<?xml version="1.0" encoding="UTF-8"?>
<!DOCTYPE svg PUBLIC "-//W3C//DTD SVG 1.1//EN" "http://www.w3.org/Graphics/SVG/1.1/DTD/svg11.dtd">
<svg xmlns="http://www.w3.org/2000/svg" version="1.1" width="254px" height="321px" style="shape-rendering:geometricPrecision; text-rendering:geometricPrecision; image-rendering:optimizeQuality; fill-rule:evenodd; clip-rule:evenodd" xmlns:xlink="http://www.w3.org/1999/xlink">
<g><path style="opacity:1" fill="#98999b" d="M 126.5,18.5 C 126.739,20.4672 126.406,22.3005 125.5,24C 126.167,24.3333 126.833,24.6667 127.5,25C 126.385,27.1008 126.385,29.2675 127.5,31.5C 127.182,32.6473 126.516,33.4806 125.5,34C 127.47,46.9189 128.137,60.0856 127.5,73.5C 127.5,77.1667 127.5,80.8333 127.5,84.5C 126.669,73.0072 126.169,61.3405 126,49.5C 125.691,50.7659 125.191,51.9326 124.5,53C 124.706,56.3655 124.873,59.8655 125,63.5C 124.282,62.5494 123.449,62.3828 122.5,63C 123.687,64.0195 124.687,65.1861 125.5,66.5C 124.559,66.4895 123.892,66.9895 123.5,68C 123.95,69.2853 124.617,70.452 125.5,71.5C 124.726,72.7112 123.893,72.7112 123,71.5C 120.942,72.1095 120.109,73.1095 120.5,74.5C 117.864,73.0295 115.364,71.3628 113,69.5C 112.833,69.8333 112.667,70.1667 112.5,70.5C 116.156,73.9758 118.822,77.8091 120.5,82C 119.407,83.3654 118.074,83.6987 116.5,83C 116.833,82.6667 117.167,82.3333 117.5,82C 116.333,81.5 115.5,80.6667 115,79.5C 114.667,80.1667 114.333,80.8333 114,81.5C 112.759,80.0625 112.259,78.5625 112.5,77C 116.18,75.7753 115.847,74.942 111.5,74.5C 111.649,75.552 111.483,76.552 111,77.5C 109.453,75.1739 107.619,74.0072 105.5,74C 107.797,72.8403 107.464,71.8403 104.5,71C 105.833,70.3333 105.833,69.6667 104.5,69C 105.749,67.1759 106.915,67.3426 108,69.5C 108.122,67.8314 107.788,66.1647 107,64.5C 106.667,65.1667 106.333,65.8333 106,66.5C 103.351,63.537 101.518,63.8703 100.5,67.5C 100.288,65.6159 99.2882,64.2826 97.5,63.5C 98.0253,62.8076 98.6919,62.3076 99.5,62C 98.5842,61.7216 97.9175,61.2216 97.5,60.5C 102.363,52.1236 107.863,44.1236 114,36.5C 114.667,35.1667 114.667,33.8333 114,32.5C 113.623,33.9423 112.79,34.9423 111.5,35.5C 112.069,32.2809 113.736,29.9475 116.5,28.5C 115.537,29.3635 115.537,30.0302 116.5,30.5C 120.263,26.7479 123.596,22.7479 126.5,18.5 Z"/></g>
<g><path style="opacity:1" fill="#d9dbdc" d="M 131.5,23.5 C 131.733,25.0618 132.4,26.3951 133.5,27.5C 132.803,29.0707 132.47,30.5707 132.5,32C 133.737,32.2321 134.737,32.7321 135.5,33.5C 134.601,34.9943 134.935,36.4943 136.5,38C 134.991,39.6736 134.324,41.3403 134.5,43C 136.23,44.8524 137.396,44.6857 138,42.5C 138.249,43.624 138.749,44.624 139.5,45.5C 139.833,44.8333 140.167,44.1667 140.5,43.5C 141.739,45.0072 141.405,46.1739 139.5,47C 143.15,46.8361 143.983,48.0028 142,50.5C 141.667,50.1667 141.333,49.8333 141,49.5C 140.71,51.9519 140.044,54.2852 139,56.5C 138.282,55.5494 137.449,55.3828 136.5,56C 137.787,57.4095 138.954,58.9095 140,60.5C 140.718,59.5494 141.551,59.3828 142.5,60C 139.685,62.2544 137.518,61.7544 136,58.5C 134.813,60.0444 134.48,61.7111 135,63.5C 136.613,62.3777 137.78,62.8777 138.5,65C 137.667,65.8333 136.833,66.6667 136,67.5C 134.815,65.1563 132.982,64.3229 130.5,65C 131.02,66.8875 132.686,68.2208 135.5,69C 134.529,70.2036 133.529,70.7036 132.5,70.5C 133.04,71.7481 133.707,72.9148 134.5,74C 133.5,74.6667 132.5,74.6667 131.5,74C 132.696,73.3457 132.696,72.8457 131.5,72.5C 130.264,73.2458 128.93,73.5792 127.5,73.5C 128.137,60.0856 127.47,46.9189 125.5,34C 126.516,33.4806 127.182,32.6473 127.5,31.5C 126.385,29.2675 126.385,27.1008 127.5,25C 126.833,24.6667 126.167,24.3333 125.5,24C 126.406,22.3005 126.739,20.4672 126.5,18.5C 126.461,17.2438 126.961,16.2438 128,15.5C 128.906,18.3098 130.073,20.9764 131.5,23.5 Z"/></g>
<g><path style="opacity:0.522" fill="#cdcdce" d="M 128.5,13.5 C 127.504,13.4142 126.671,13.7476 126,14.5C 123.012,19.3154 119.845,23.982 116.5,28.5C 113.736,29.9475 112.069,32.2809 111.5,35.5C 105.949,44.4 99.9495,53.0667 93.5,61.5C 90.4475,64.5762 87.6142,67.9095 85,71.5C 83.1878,76.4831 80.3545,80.8164 76.5,84.5C 73.0361,90.7021 69.0361,96.3688 64.5,101.5C 63.8333,101.5 63.1667,101.5 62.5,101.5C 80.0828,74.578 98.0828,47.9113 116.5,21.5C 118.308,22.3168 119.808,21.6502 121,19.5C 122.123,16.7513 123.623,14.2513 125.5,12C 126.998,11.4153 127.998,11.9153 128.5,13.5 Z"/></g>
<g><path style="opacity:1" fill="#d1d3d4" d="M 135.5,33.5 C 140.731,38.6385 144.398,44.8052 146.5,52C 143.833,52.6667 143.833,53.3333 146.5,54C 144.842,54.7253 144.342,55.892 145,57.5C 145.725,55.842 146.892,55.342 148.5,56C 150.072,59.5402 152.405,63.0402 155.5,66.5C 154.287,67.4971 154.454,68.4971 156,69.5C 157.018,68.2941 157.518,68.6274 157.5,70.5C 157.263,73.0635 156.763,73.0635 156,70.5C 155.316,71.7839 155.483,72.9505 156.5,74C 155,76.1667 153.833,76 153,73.5C 152.282,74.4506 151.449,74.6172 150.5,74C 151.34,72.3335 150.84,72.1669 149,73.5C 148.667,72.5 148.333,71.5 148,70.5C 146.612,71.5536 145.112,71.7203 143.5,71C 144.696,70.3457 144.696,69.8457 143.5,69.5C 142.646,70.5217 141.646,71.3551 140.5,72C 142.5,73 144.5,74 146.5,75C 144.579,75.3603 142.912,76.1936 141.5,77.5C 136.545,74.6245 135.878,74.9579 139.5,78.5C 138.753,78.7365 137.92,79.0698 137,79.5C 136.577,78.0439 135.744,77.5439 134.5,78C 134.799,79.3204 134.966,80.8204 135,82.5C 135.718,81.5494 136.551,81.3828 137.5,82C 135.254,83.2568 133.921,85.0901 133.5,87.5C 131.716,87.1075 130.05,86.4408 128.5,85.5C 128.5,84.8333 128.167,84.5 127.5,84.5C 127.5,80.8333 127.5,77.1667 127.5,73.5C 128.93,73.5792 130.264,73.2458 131.5,72.5C 132.696,72.8457 132.696,73.3457 131.5,74C 132.5,74.6667 133.5,74.6667 134.5,74C 133.707,72.9148 133.04,71.7481 132.5,70.5C 133.529,70.7036 134.529,70.2036 135.5,69C 132.686,68.2208 131.02,66.8875 130.5,65C 132.982,64.3229 134.815,65.1563 136,67.5C 136.833,66.6667 137.667,65.8333 138.5,65C 137.78,62.8777 136.613,62.3777 135,63.5C 134.48,61.7111 134.813,60.0444 136,58.5C 137.518,61.7544 139.685,62.2544 142.5,60C 141.551,59.3828 140.718,59.5494 140,60.5C 138.954,58.9095 137.787,57.4095 136.5,56C 137.449,55.3828 138.282,55.5494 139,56.5C 140.044,54.2852 140.71,51.9519 141,49.5C 141.333,49.8333 141.667,50.1667 142,50.5C 143.983,48.0028 143.15,46.8361 139.5,47C 141.405,46.1739 141.739,45.0072 140.5,43.5C 140.167,44.1667 139.833,44.8333 139.5,45.5C 138.749,44.624 138.249,43.624 138,42.5C 137.396,44.6857 136.23,44.8524 134.5,43C 134.324,41.3403 134.991,39.6736 136.5,38C 134.935,36.4943 134.601,34.9943 135.5,33.5 Z"/></g>
<g><path style="opacity:1" fill="#2f3032" d="M 97.5,60.5 C 93.6882,64.7767 90.3548,69.4434 87.5,74.5C 86.4265,73.7494 86.2599,72.7494 87,71.5C 89.8097,68.5355 91.9764,65.2022 93.5,61.5C 99.9495,53.0667 105.949,44.4 111.5,35.5C 112.79,34.9423 113.623,33.9423 114,32.5C 114.667,33.8333 114.667,35.1667 114,36.5C 107.863,44.1236 102.363,52.1236 97.5,60.5 Z"/></g>
<g><path style="opacity:1" fill="#929395" d="M 127.5,84.5 C 128.167,84.5 128.5,84.8333 128.5,85.5C 120.511,88.4933 112.511,91.4933 104.5,94.5C 105.058,93.2101 106.058,92.3768 107.5,92C 103.555,90.4126 101.722,87.5793 102,83.5C 103.58,86.2545 104.746,86.0878 105.5,83C 103.448,82.0671 101.614,80.2338 100,77.5C 98.4411,78.0294 96.9411,78.696 95.5,79.5C 94.0353,78.3913 93.0353,78.8913 92.5,81C 93.1667,83 94.5,84.3333 96.5,85C 94.5776,86.46 93.9109,88.1267 94.5,90C 93.0069,91.3681 91.5069,91.5348 90,90.5C 89.6667,91.1667 89.3333,91.8333 89,92.5C 87.8783,90.3762 86.3783,88.5429 84.5,87C 86.4665,87.24 88.2998,88.0734 90,89.5C 94.631,88.2529 94.4643,87.4196 89.5,87C 90.1667,86.6667 90.8333,86.3333 91.5,86C 90.1667,84.6667 90.1667,83.3333 91.5,82C 91.0681,80.3498 89.7348,78.8498 87.5,77.5C 87.6667,77.1667 87.8333,76.8333 88,76.5C 92.5377,79.4948 93.371,78.8281 90.5,74.5C 91.4769,70.99 93.8103,68.8234 97.5,68C 97.1667,67.6667 96.8333,67.3333 96.5,67C 97.9285,66.4209 99.2618,66.5876 100.5,67.5C 101.518,63.8703 103.351,63.537 106,66.5C 106.333,65.8333 106.667,65.1667 107,64.5C 107.788,66.1647 108.122,67.8314 108,69.5C 106.915,67.3426 105.749,67.1759 104.5,69C 105.833,69.6667 105.833,70.3333 104.5,71C 107.464,71.8403 107.797,72.8403 105.5,74C 107.619,74.0072 109.453,75.1739 111,77.5C 111.483,76.552 111.649,75.552 111.5,74.5C 115.847,74.942 116.18,75.7753 112.5,77C 112.259,78.5625 112.759,80.0625 114,81.5C 114.333,80.8333 114.667,80.1667 115,79.5C 115.5,80.6667 116.333,81.5 117.5,82C 117.167,82.3333 116.833,82.6667 116.5,83C 118.074,83.6987 119.407,83.3654 120.5,82C 118.822,77.8091 116.156,73.9758 112.5,70.5C 112.667,70.1667 112.833,69.8333 113,69.5C 115.364,71.3628 117.864,73.0295 120.5,74.5C 120.109,73.1095 120.942,72.1095 123,71.5C 123.893,72.7112 124.726,72.7112 125.5,71.5C 124.617,70.452 123.95,69.2853 123.5,68C 123.892,66.9895 124.559,66.4895 125.5,66.5C 124.687,65.1861 123.687,64.0195 122.5,63C 123.449,62.3828 124.282,62.5494 125,63.5C 124.873,59.8655 124.706,56.3655 124.5,53C 125.191,51.9326 125.691,50.7659 126,49.5C 126.169,61.3405 126.669,73.0072 127.5,84.5 Z"/></g>
<g><path style="opacity:1" fill="#c8cacb" d="M 155.5,66.5 C 158.59,67.665 159.924,69.9983 159.5,73.5C 162.178,74.0008 164.178,75.5008 165.5,78C 165.167,78.3333 164.833,78.6667 164.5,79C 166.359,79.6839 168.026,80.6839 169.5,82C 168.786,83.3431 169.12,84.6764 170.5,86C 168.088,88.0354 168.755,89.0354 172.5,89C 169.456,89.3589 169.122,90.0255 171.5,91C 164.833,91.6667 164.833,92.3333 171.5,93C 174.407,97.8497 178.407,100.016 183.5,99.5C 183.5,99.8333 183.5,100.167 183.5,100.5C 180.166,100.786 177,100.786 174,100.5C 172.541,100.808 171.374,101.475 170.5,102.5C 169.833,102.833 169.167,103.167 168.5,103.5C 156.479,98.9902 144.812,93.6568 133.5,87.5C 133.921,85.0901 135.254,83.2568 137.5,82C 136.551,81.3828 135.718,81.5494 135,82.5C 134.966,80.8204 134.799,79.3204 134.5,78C 135.744,77.5439 136.577,78.0439 137,79.5C 137.92,79.0698 138.753,78.7365 139.5,78.5C 135.878,74.9579 136.545,74.6245 141.5,77.5C 142.912,76.1936 144.579,75.3603 146.5,75C 144.5,74 142.5,73 140.5,72C 141.646,71.3551 142.646,70.5217 143.5,69.5C 144.696,69.8457 144.696,70.3457 143.5,71C 145.112,71.7203 146.612,71.5536 148,70.5C 148.333,71.5 148.667,72.5 149,73.5C 150.84,72.1669 151.34,72.3335 150.5,74C 151.449,74.6172 152.282,74.4506 153,73.5C 153.833,76 155,76.1667 156.5,74C 155.483,72.9505 155.316,71.7839 156,70.5C 156.763,73.0635 157.263,73.0635 157.5,70.5C 157.518,68.6274 157.018,68.2941 156,69.5C 154.454,68.4971 154.287,67.4971 155.5,66.5 Z"/></g>
<g><path style="opacity:1" fill="#1f2021" d="M 128.5,13.5 C 148.144,42.1006 167.811,70.7673 187.5,99.5C 186.311,100.429 184.978,100.762 183.5,100.5C 183.5,100.167 183.5,99.8333 183.5,99.5C 168.224,76.226 152.558,53.226 136.5,30.5C 136.031,27.3567 134.364,25.0233 131.5,23.5C 130.073,20.9764 128.906,18.3098 128,15.5C 126.961,16.2438 126.461,17.2438 126.5,18.5C 123.596,22.7479 120.263,26.7479 116.5,30.5C 115.537,30.0302 115.537,29.3635 116.5,28.5C 119.845,23.982 123.012,19.3154 126,14.5C 126.671,13.7476 127.504,13.4142 128.5,13.5 Z"/></g>
<g><path style="opacity:1" fill="#646665" d="M 131.5,23.5 C 134.364,25.0233 136.031,27.3567 136.5,30.5C 135.272,29.6935 134.272,28.6935 133.5,27.5C 132.4,26.3951 131.733,25.0618 131.5,23.5 Z"/></g>
<g><path style="opacity:1" fill="#47484a" d="M 93.5,61.5 C 91.9764,65.2022 89.8097,68.5355 87,71.5C 86.2599,72.7494 86.4265,73.7494 87.5,74.5C 86.1286,78.1443 83.9619,81.1443 81,83.5C 78.1575,88.5188 74.8241,93.1855 71,97.5C 70.5304,98.5768 70.6971,99.5768 71.5,100.5C 69.3295,102.086 66.9962,103.42 64.5,104.5C 63.8843,103.798 63.8843,102.798 64.5,101.5C 69.0361,96.3688 73.0361,90.7021 76.5,84.5C 80.3545,80.8164 83.1878,76.4831 85,71.5C 87.6142,67.9095 90.4475,64.5762 93.5,61.5 Z"/></g>
<g><path style="opacity:1" fill="#8c8d8f" d="M 97.5,60.5 C 97.9175,61.2216 98.5842,61.7216 99.5,62C 98.6919,62.3076 98.0253,62.8076 97.5,63.5C 99.2882,64.2826 100.288,65.6159 100.5,67.5C 99.2618,66.5876 97.9285,66.4209 96.5,67C 96.8333,67.3333 97.1667,67.6667 97.5,68C 93.8103,68.8234 91.4769,70.99 90.5,74.5C 93.371,78.8281 92.5377,79.4948 88,76.5C 87.8333,76.8333 87.6667,77.1667 87.5,77.5C 89.7348,78.8498 91.0681,80.3498 91.5,82C 90.1667,83.3333 90.1667,84.6667 91.5,86C 90.8333,86.3333 90.1667,86.6667 89.5,87C 94.4643,87.4196 94.631,88.2529 90,89.5C 88.2998,88.0734 86.4665,87.24 84.5,87C 86.3783,88.5429 87.8783,90.3762 89,92.5C 89.3333,91.8333 89.6667,91.1667 90,90.5C 91.5069,91.5348 93.0069,91.3681 94.5,90C 93.9109,88.1267 94.5776,86.46 96.5,85C 94.5,84.3333 93.1667,83 92.5,81C 93.0353,78.8913 94.0353,78.3913 95.5,79.5C 96.9411,78.696 98.4411,78.0294 100,77.5C 101.614,80.2338 103.448,82.0671 105.5,83C 104.746,86.0878 103.58,86.2545 102,83.5C 101.722,87.5793 103.555,90.4126 107.5,92C 106.058,92.3768 105.058,93.2101 104.5,94.5C 101.48,96.6767 98.1467,98.3434 94.5,99.5C 93.8333,99.5 93.5,99.8333 93.5,100.5C 86.197,99.1986 78.8637,99.1986 71.5,100.5C 70.6971,99.5768 70.5304,98.5768 71,97.5C 74.8241,93.1855 78.1575,88.5188 81,83.5C 83.9619,81.1443 86.1286,78.1443 87.5,74.5C 90.3548,69.4434 93.6882,64.7767 97.5,60.5 Z"/></g>
<g><path style="opacity:1" fill="#0d0e10" d="M 128.5,85.5 C 130.05,86.4408 131.716,87.1075 133.5,87.5C 144.812,93.6568 156.479,98.9902 168.5,103.5C 167.557,106.109 165.89,108.109 163.5,109.5C 163.179,107.952 162.179,107.285 160.5,107.5C 159.035,106.263 157.368,105.263 155.5,104.5C 153.747,102.777 151.747,101.277 149.5,100C 142.508,97.1716 135.508,94.3382 128.5,91.5C 127.399,90.4017 126.066,90.235 124.5,91C 114.347,95.2449 104.347,99.7449 94.5,104.5C 94.5,102.833 94.5,101.167 94.5,99.5C 98.1467,98.3434 101.48,96.6767 104.5,94.5C 112.511,91.4933 120.511,88.4933 128.5,85.5 Z"/></g>
<g><path style="opacity:1" fill="#a9aaab" d="M 133.5,27.5 C 134.272,28.6935 135.272,29.6935 136.5,30.5C 152.558,53.226 168.224,76.226 183.5,99.5C 178.407,100.016 174.407,97.8497 171.5,93C 164.833,92.3333 164.833,91.6667 171.5,91C 169.122,90.0255 169.456,89.3589 172.5,89C 168.755,89.0354 168.088,88.0354 170.5,86C 169.12,84.6764 168.786,83.3431 169.5,82C 168.026,80.6839 166.359,79.6839 164.5,79C 164.833,78.6667 165.167,78.3333 165.5,78C 164.178,75.5008 162.178,74.0008 159.5,73.5C 159.924,69.9983 158.59,67.665 155.5,66.5C 152.405,63.0402 150.072,59.5402 148.5,56C 146.892,55.342 145.725,55.842 145,57.5C 144.342,55.892 144.842,54.7253 146.5,54C 143.833,53.3333 143.833,52.6667 146.5,52C 144.398,44.8052 140.731,38.6385 135.5,33.5C 134.737,32.7321 133.737,32.2321 132.5,32C 132.47,30.5707 132.803,29.0707 133.5,27.5 Z"/></g>
<g><path style="opacity:1" fill="#4a4b4c" d="M 128.5,91.5 C 135.508,94.3382 142.508,97.1716 149.5,100C 151.747,101.277 153.747,102.777 155.5,104.5C 155.565,104.938 155.399,105.272 155,105.5C 146.603,101.57 138.437,98.07 130.5,95C 129.177,94.1841 128.511,93.0174 128.5,91.5 Z"/></g>
<g><path style="opacity:0.98" fill="#e2e3e3" d="M 202.5,118.5 C 201.778,118.082 201.278,117.416 201,116.5C 200.751,117.624 200.251,118.624 199.5,119.5C 199.167,119 198.833,118.5 198.5,118C 198.483,115.256 198.65,112.423 199,109.5C 197.915,111.657 196.749,111.824 195.5,110C 196.967,108.902 197.801,107.402 198,105.5C 198.333,106.167 198.667,106.833 199,107.5C 199.49,106.207 199.657,104.873 199.5,103.5C 197.8,103.626 196.3,104.293 195,105.5C 193.989,105.108 193.489,104.441 193.5,103.5C 192.201,104.09 191.368,105.09 191,106.5C 190,105.167 189,105.167 188,106.5C 185.598,100.46 183.765,100.127 182.5,105.5C 181.614,104.675 181.281,103.675 181.5,102.5C 177.627,102.451 174.627,103.451 172.5,105.5C 172.984,104.219 172.317,103.219 170.5,102.5C 171.374,101.475 172.541,100.808 174,100.5C 177,100.786 180.166,100.786 183.5,100.5C 184.978,100.762 186.311,100.429 187.5,99.5C 167.811,70.7673 148.144,42.1006 128.5,13.5C 127.998,11.9153 126.998,11.4153 125.5,12C 123.623,14.2513 122.123,16.7513 121,19.5C 119.808,21.6502 118.308,22.3168 116.5,21.5C 119.069,16.0413 122.402,11.0413 126.5,6.5C 127.274,5.28882 128.107,5.28882 129,6.5C 149.085,38.2027 170.252,69.036 192.5,99C 195.53,99.2882 198.364,99.4549 201,99.5C 201.5,100.5 202,101.5 202.5,102.5C 202.448,107.937 202.448,113.27 202.5,118.5 Z"/></g>
<g><path style="opacity:1" fill="#cacccd" d="M 93.5,100.5 C 93.5,103.167 93.5,105.833 93.5,108.5C 92.79,110.893 92.1233,113.393 91.5,116C 92.4244,120.952 92.4244,126.118 91.5,131.5C 90.7132,130.758 90.0465,129.925 89.5,129C 90.4506,128.282 90.6172,127.449 90,126.5C 87.9419,127.109 87.1086,128.109 87.5,129.5C 86.6919,129.192 86.0253,128.692 85.5,128C 88.2265,126.034 88.5598,124.034 86.5,122C 87.8333,121.333 89.1667,120.667 90.5,120C 86.0317,117.282 82.365,113.782 79.5,109.5C 80.0016,108.284 80.3349,107.117 80.5,106C 79.5509,105.383 78.7175,105.549 78,106.5C 77.4444,104.405 76.9444,104.238 76.5,106C 76.9054,106.945 77.572,107.612 78.5,108C 75.5574,108.29 73.0574,109.456 71,111.5C 70.7474,110.465 69.914,109.465 68.5,108.5C 69.2768,106.461 70.4435,105.795 72,106.5C 73.9006,105.017 73.5673,104.017 71,103.5C 69.1284,104.068 67.2951,104.735 65.5,105.5C 64.8933,105.376 64.56,105.043 64.5,104.5C 66.9962,103.42 69.3295,102.086 71.5,100.5C 78.8637,99.1986 86.197,99.1986 93.5,100.5 Z"/></g>
<g><path style="opacity:1" fill="#454648" d="M 128.5,91.5 C 127.833,92.5 127.167,93.5 126.5,94.5C 125.427,95.6579 124.261,95.6579 123,94.5C 119.195,95.9384 115.028,97.4384 110.5,99C 109.501,101.761 107.501,103.094 104.5,103C 101.97,105.033 99.6365,107.2 97.5,109.5C 96.791,108.596 95.791,108.263 94.5,108.5C 94.5,107.167 94.5,105.833 94.5,104.5C 104.347,99.7449 114.347,95.2449 124.5,91C 126.066,90.235 127.399,90.4017 128.5,91.5 Z"/></g>
<g><path style="opacity:0.71" fill="#e3e3e3" d="M 62.5,101.5 C 62.67,102.822 62.3366,103.989 61.5,105C 62.1667,105.333 62.8333,105.667 63.5,106C 59.0006,108.463 54.334,110.63 49.5,112.5C 48.8332,117.985 48.1665,123.319 47.5,128.5C 47.3338,122.491 47.5005,116.491 48,110.5C 51.2047,108.314 54.7047,106.814 58.5,106C 59.7332,104.333 61.0665,102.833 62.5,101.5 Z"/></g>
<g><path style="opacity:1" fill="#a8a9ab" d="M 128.5,154.5 C 127.514,150.03 127.181,145.363 127.5,140.5C 127.44,126.321 127.44,112.321 127.5,98.5C 127.351,97.448 127.517,96.448 128,95.5C 129.385,96.5505 130.385,97.8839 131,99.5C 131.414,99.0426 131.914,98.7093 132.5,98.5C 134.612,100.206 136.945,101.539 139.5,102.5C 140,103.5 140.5,104.5 141,105.5C 142.333,101.5 143.667,101.5 145,105.5C 145.333,104.833 145.667,104.167 146,103.5C 147.655,103.802 148.988,105.136 150,107.5C 150.333,106.833 150.667,106.167 151,105.5C 151.29,107.044 151.956,108.377 153,109.5C 153.333,108.833 153.667,108.167 154,107.5C 158.439,108.454 158.439,109.788 154,111.5C 152.984,110.366 152.317,110.699 152,112.5C 151.085,111.672 150.419,110.672 150,109.5C 149.257,111.441 149.424,113.274 150.5,115C 149.004,115.507 147.837,115.007 147,113.5C 146.135,115.888 146.968,117.388 149.5,118C 148.333,118.5 147.5,119.333 147,120.5C 146.692,119.692 146.192,119.025 145.5,118.5C 144.387,120.031 142.887,121.031 141,121.5C 139.45,121.05 137.95,120.883 136.5,121C 137.815,122.395 137.481,123.395 135.5,124C 137.14,125.395 138.64,126.895 140,128.5C 140.333,128.167 140.667,127.833 141,127.5C 143,129.5 143,131.5 141,133.5C 139.887,131.671 138.387,130.837 136.5,131C 137.833,132.333 139.167,133.667 140.5,135C 139.062,135.219 137.729,135.719 136.5,136.5C 136.833,137.167 137.167,137.833 137.5,138.5C 136.019,139.48 134.685,140.647 133.5,142C 133.957,142.414 134.291,142.914 134.5,143.5C 130.021,146.173 128.021,149.839 128.5,154.5 Z"/></g>
<g><path style="opacity:1" fill="#b6b8b7" d="M 62.5,101.5 C 63.1667,101.5 63.8333,101.5 64.5,101.5C 63.8843,102.798 63.8843,103.798 64.5,104.5C 64.56,105.043 64.8933,105.376 65.5,105.5C 67.2951,104.735 69.1284,104.068 71,103.5C 73.5673,104.017 73.9006,105.017 72,106.5C 70.4435,105.795 69.2768,106.461 68.5,108.5C 69.914,109.465 70.7474,110.465 71,111.5C 73.0574,109.456 75.5574,108.29 78.5,108C 77.572,107.612 76.9054,106.945 76.5,106C 76.9444,104.238 77.4444,104.405 78,106.5C 78.7175,105.549 79.5509,105.383 80.5,106C 80.3349,107.117 80.0016,108.284 79.5,109.5C 82.365,113.782 86.0317,117.282 90.5,120C 89.1667,120.667 87.8333,121.333 86.5,122C 88.5598,124.034 88.2265,126.034 85.5,128C 86.0253,128.692 86.6919,129.192 87.5,129.5C 87.1086,128.109 87.9419,127.109 90,126.5C 90.6172,127.449 90.4506,128.282 89.5,129C 90.0465,129.925 90.7132,130.758 91.5,131.5C 92.4244,126.118 92.4244,120.952 91.5,116C 92.1233,113.393 92.79,110.893 93.5,108.5C 93.5,117.167 93.5,125.833 93.5,134.5C 92.776,136.218 92.1094,138.052 91.5,140C 92.4217,155.168 92.755,170.668 92.5,186.5C 92.2985,190.424 91.7985,190.424 91,186.5C 90.6667,186.833 90.3333,187.167 90,187.5C 88.1476,185.77 88.3143,184.604 90.5,184C 90.1286,182.397 89.7952,180.897 89.5,179.5C 88.3215,177.493 88.8215,177.16 91,178.5C 91.1667,177 91.3333,175.5 91.5,174C 91.0093,171.794 91.0093,169.794 91.5,168C 88.8333,166.667 88.8333,165.333 91.5,164C 90.8333,162.333 90.1667,160.667 89.5,159C 90.2797,157.927 90.113,156.76 89,155.5C 88.3333,156.833 87.6667,156.833 87,155.5C 86.6667,156.5 86.3333,157.5 86,158.5C 85.3333,157.167 84.6667,157.167 84,158.5C 84.2659,156.536 85.4326,155.036 87.5,154C 84.4427,153.446 82.2761,154.613 81,157.5C 79.9328,156.057 78.7662,154.724 77.5,153.5C 79.4755,152.251 79.8088,150.751 78.5,149C 80.108,148.342 81.2747,148.842 82,150.5C 82.4828,149.552 82.6495,148.552 82.5,147.5C 81.0695,147.579 79.7362,147.246 78.5,146.5C 77.8076,147.025 77.3076,147.692 77,148.5C 76,146.833 75,145.167 74,143.5C 71.9045,144.715 72.0712,145.549 74.5,146C 73.2513,147.824 72.0847,147.657 71,145.5C 71.5465,148.093 73.0465,150.26 75.5,152C 74.7471,153.487 73.9138,153.654 73,152.5C 72.2174,154.433 72.7174,155.933 74.5,157C 73.255,157.791 71.9217,158.291 70.5,158.5C 69.8522,146.402 69.1855,134.402 68.5,122.5C 61.1277,124.688 54.1277,127.688 47.5,131.5C 47.5,130.5 47.5,129.5 47.5,128.5C 48.1665,123.319 48.8332,117.985 49.5,112.5C 54.334,110.63 59.0006,108.463 63.5,106C 62.8333,105.667 62.1667,105.333 61.5,105C 62.3366,103.989 62.67,102.822 62.5,101.5 Z"/></g>
<g><path style="opacity:1" fill="#929394" d="M 128.5,91.5 C 128.511,93.0174 129.177,94.1841 130.5,95C 138.437,98.07 146.603,101.57 155,105.5C 155.399,105.272 155.565,104.938 155.5,104.5C 157.368,105.263 159.035,106.263 160.5,107.5C 159.699,109.042 159.366,110.708 159.5,112.5C 158.448,112.351 157.448,112.517 156.5,113C 157.451,113.718 157.617,114.551 157,115.5C 151.211,120.398 146.877,126.398 144,133.5C 142.252,135.584 140.418,137.584 138.5,139.5C 137.391,142.847 135.724,145.847 133.5,148.5C 133.624,149.107 133.957,149.44 134.5,149.5C 134.5,149.833 134.5,150.167 134.5,150.5C 132.605,151.973 130.939,153.64 129.5,155.5C 129.5,154.833 129.167,154.5 128.5,154.5C 128.021,149.839 130.021,146.173 134.5,143.5C 134.291,142.914 133.957,142.414 133.5,142C 134.685,140.647 136.019,139.48 137.5,138.5C 137.167,137.833 136.833,137.167 136.5,136.5C 137.729,135.719 139.062,135.219 140.5,135C 139.167,133.667 137.833,132.333 136.5,131C 138.387,130.837 139.887,131.671 141,133.5C 143,131.5 143,129.5 141,127.5C 140.667,127.833 140.333,128.167 140,128.5C 138.64,126.895 137.14,125.395 135.5,124C 137.481,123.395 137.815,122.395 136.5,121C 137.95,120.883 139.45,121.05 141,121.5C 142.887,121.031 144.387,120.031 145.5,118.5C 146.192,119.025 146.692,119.692 147,120.5C 147.5,119.333 148.333,118.5 149.5,118C 146.968,117.388 146.135,115.888 147,113.5C 147.837,115.007 149.004,115.507 150.5,115C 149.424,113.274 149.257,111.441 150,109.5C 150.419,110.672 151.085,111.672 152,112.5C 152.317,110.699 152.984,110.366 154,111.5C 158.439,109.788 158.439,108.454 154,107.5C 153.667,108.167 153.333,108.833 153,109.5C 151.956,108.377 151.29,107.044 151,105.5C 150.667,106.167 150.333,106.833 150,107.5C 148.988,105.136 147.655,103.802 146,103.5C 145.667,104.167 145.333,104.833 145,105.5C 143.667,101.5 142.333,101.5 141,105.5C 140.5,104.5 140,103.5 139.5,102.5C 136.945,101.539 134.612,100.206 132.5,98.5C 131.914,98.7093 131.414,99.0426 131,99.5C 130.385,97.8839 129.385,96.5505 128,95.5C 127.517,96.448 127.351,97.448 127.5,98.5C 126.566,97.4324 126.232,96.099 126.5,94.5C 127.167,93.5 127.833,92.5 128.5,91.5 Z"/></g>
<g><path style="opacity:1" fill="#d0d1d1" d="M 202.5,118.5 C 214.071,133.394 224.404,149.06 233.5,165.5C 233.392,166.442 233.059,167.275 232.5,168C 226.974,170.926 221.641,174.093 216.5,177.5C 216.5,176.833 216.5,176.167 216.5,175.5C 217.574,174.115 218.907,172.949 220.5,172C 223.689,171.158 226.689,169.825 229.5,168C 230.022,167.439 230.355,166.772 230.5,166C 220.268,151.434 210.434,136.6 201,121.5C 200.503,123.81 200.337,126.143 200.5,128.5C 200.5,129.5 200.5,130.5 200.5,131.5C 199.711,131.783 199.044,132.283 198.5,133C 199.598,133.77 199.598,134.603 198.5,135.5C 196.193,135.23 194.026,133.897 192,131.5C 190.164,134.708 191.331,136.208 195.5,136C 193.559,136.743 191.726,136.576 190,135.5C 189.316,134.216 189.483,133.049 190.5,132C 189.833,131.667 189.167,131.333 188.5,131C 190.385,126.535 192.552,126.369 195,130.5C 195.722,128.339 195.055,126.672 193,125.5C 192.667,125.833 192.333,126.167 192,126.5C 191.691,125.234 191.191,124.067 190.5,123C 191.641,122.259 191.641,121.425 190.5,120.5C 191.376,119.749 192.376,119.249 193.5,119C 192.833,118 192.167,117 191.5,116C 188.827,116.063 188.827,116.729 191.5,118C 189.667,119.167 187.833,120.333 186,121.5C 184.401,119.944 182.901,118.277 181.5,116.5C 180.572,118.335 179.406,118.668 178,117.5C 177.085,118.328 176.419,119.328 176,120.5C 175.107,119.289 174.274,119.289 173.5,120.5C 174.612,121.265 175.279,122.265 175.5,123.5C 173.183,127.146 170.516,130.48 167.5,133.5C 166.155,131.303 164.989,128.97 164,126.5C 163.331,129.028 162.498,129.028 161.5,126.5C 163.276,125.685 163.943,124.518 163.5,123C 161.152,122.89 159.652,121.723 159,119.5C 158.667,120.5 158.333,121.5 158,122.5C 157.667,122.167 157.333,121.833 157,121.5C 156.626,122.416 156.126,123.25 155.5,124C 156.893,126.178 158.56,127.178 160.5,127C 158.299,127.825 156.466,127.325 155,125.5C 153.034,127.82 150.867,129.82 148.5,131.5C 153.5,124.167 158.5,116.833 163.5,109.5C 165.89,108.109 167.557,106.109 168.5,103.5C 169.167,103.167 169.833,102.833 170.5,102.5C 172.317,103.219 172.984,104.219 172.5,105.5C 174.627,103.451 177.627,102.451 181.5,102.5C 181.281,103.675 181.614,104.675 182.5,105.5C 183.765,100.127 185.598,100.46 188,106.5C 189,105.167 190,105.167 191,106.5C 191.368,105.09 192.201,104.09 193.5,103.5C 193.489,104.441 193.989,105.108 195,105.5C 196.3,104.293 197.8,103.626 199.5,103.5C 199.657,104.873 199.49,106.207 199,107.5C 198.667,106.833 198.333,106.167 198,105.5C 197.801,107.402 196.967,108.902 195.5,110C 196.749,111.824 197.915,111.657 199,109.5C 198.65,112.423 198.483,115.256 198.5,118C 198.833,118.5 199.167,119 199.5,119.5C 200.251,118.624 200.751,117.624 201,116.5C 201.278,117.416 201.778,118.082 202.5,118.5 Z"/></g>
<g><path style="opacity:1" fill="#6b6c6e" d="M 126.5,94.5 C 126.232,96.099 126.566,97.4324 127.5,98.5C 127.44,112.321 127.44,126.321 127.5,140.5C 126.835,138.302 126.168,135.969 125.5,133.5C 124.705,137.038 124.372,140.705 124.5,144.5C 122.844,142.978 121.677,143.311 121,145.5C 119.667,144.167 118.333,142.833 117,141.5C 116.833,141.833 116.667,142.167 116.5,142.5C 118.114,145.284 120.448,147.118 123.5,148C 122.216,148.684 121.049,148.517 120,147.5C 116.712,148.536 115.879,150.536 117.5,153.5C 116.469,154.7 115.635,156.034 115,157.5C 114.56,155.924 113.727,154.59 112.5,153.5C 114.925,152.351 114.925,151.684 112.5,151.5C 111.434,150.308 110.601,150.641 110,152.5C 108.082,151.458 106.249,150.292 104.5,149C 106.18,148.966 107.68,148.799 109,148.5C 110.411,146.35 111.245,144.016 111.5,141.5C 112.675,141.719 113.675,141.386 114.5,140.5C 113.418,140.251 112.085,140.085 110.5,140C 111.308,139.692 111.975,139.192 112.5,138.5C 110.5,135.833 108.5,133.167 106.5,130.5C 106.667,130.167 106.833,129.833 107,129.5C 108.667,131.167 110.333,132.833 112,134.5C 112.167,131.667 113.667,130.167 116.5,130C 115.299,129.097 114.465,127.931 114,126.5C 113.549,128.929 112.715,129.096 111.5,127C 111.833,126.667 112.167,126.333 112.5,126C 110.884,125.385 109.551,124.385 108.5,123C 109.928,121.084 110.928,118.917 111.5,116.5C 112.843,119.159 114.51,121.492 116.5,123.5C 117.93,121.614 119.597,119.947 121.5,118.5C 122.478,118.977 123.311,119.643 124,120.5C 123.518,118.592 122.851,116.592 122,114.5C 121.751,115.624 121.251,116.624 120.5,117.5C 115.331,113.645 115.664,111.145 121.5,110C 120.833,109.667 120.167,109.333 119.5,109C 120.18,106.987 121.513,105.654 123.5,105C 122.044,103.203 120.544,101.369 119,99.5C 118.276,101.959 116.943,102.959 115,102.5C 112.022,104.311 109.522,106.644 107.5,109.5C 108.771,111.829 110.771,112.995 113.5,113C 112.5,113.333 111.5,113.667 110.5,114C 111.696,114.654 111.696,115.154 110.5,115.5C 109.52,114.019 108.353,112.685 107,111.5C 106.667,112.167 106.333,112.833 106,113.5C 104.89,111.963 103.39,111.297 101.5,111.5C 100.07,111.421 98.7362,111.754 97.5,112.5C 96.913,111.767 96.913,110.767 97.5,109.5C 99.6365,107.2 101.97,105.033 104.5,103C 107.501,103.094 109.501,101.761 110.5,99C 115.028,97.4384 119.195,95.9384 123,94.5C 124.261,95.6579 125.427,95.6579 126.5,94.5 Z"/></g>
<g><path style="opacity:1" fill="#090a0a" d="M 68.5,122.5 C 68.5,142.833 68.5,163.167 68.5,183.5C 68.8016,186.059 68.4682,188.393 67.5,190.5C 66.1667,189.5 64.8333,188.5 63.5,187.5C 64.1884,181.866 64.6884,176.199 65,170.5C 65.6543,171.696 66.1543,171.696 66.5,170.5C 66.0061,165.251 65.0061,159.918 63.5,154.5C 64.3928,151.916 64.7261,149.249 64.5,146.5C 62.1743,145.849 59.8409,145.182 57.5,144.5C 54.4214,145.234 51.4214,145.401 48.5,145C 47.6842,141.731 46.6842,138.564 45.5,135.5C 45.7329,133.938 46.3995,132.605 47.5,131.5C 54.1277,127.688 61.1277,124.688 68.5,122.5 Z"/></g>
<g><path style="opacity:1" fill="#090a0b" d="M 178.5,123.5 C 177.506,133.319 177.173,143.319 177.5,153.5C 177.5,156.167 177.5,158.833 177.5,161.5C 175.5,161.5 173.5,161.5 171.5,161.5C 170.833,161.5 170.167,161.5 169.5,161.5C 170.209,160.596 171.209,160.263 172.5,160.5C 173.128,147.583 168.962,145.583 160,154.5C 158.295,156.577 157.128,158.91 156.5,161.5C 153.482,161.665 150.482,161.498 147.5,161C 154.796,152.217 161.463,143.05 167.5,133.5C 170.516,130.48 173.183,127.146 175.5,123.5C 176.151,122.909 176.818,122.243 177.5,121.5C 178.298,121.957 178.631,122.624 178.5,123.5 Z"/></g>
<g><path style="opacity:1" fill="#616364" d="M 160.5,107.5 C 162.179,107.285 163.179,107.952 163.5,109.5C 158.5,116.833 153.5,124.167 148.5,131.5C 143.49,137.183 138.823,143.183 134.5,149.5C 133.957,149.44 133.624,149.107 133.5,148.5C 135.724,145.847 137.391,142.847 138.5,139.5C 140.418,137.584 142.252,135.584 144,133.5C 146.877,126.398 151.211,120.398 157,115.5C 157.617,114.551 157.451,113.718 156.5,113C 157.448,112.517 158.448,112.351 159.5,112.5C 159.366,110.708 159.699,109.042 160.5,107.5 Z"/></g>
<g><path style="opacity:1" fill="#717274" d="M 112.5,151.5 C 111.442,152.6 110.608,153.934 110,155.5C 105.893,150.46 103.227,151.46 102,158.5C 101.004,156.34 99.5041,154.673 97.5,153.5C 96.2216,151.456 96.3883,149.456 98,147.5C 98.0848,149.085 98.2514,150.418 98.5,151.5C 99.2621,150.372 99.9288,149.205 100.5,148C 97.0175,145.512 96.3508,142.678 98.5,139.5C 97.696,138.059 97.0294,136.559 96.5,135C 97.1667,134.333 97.8333,133.667 98.5,133C 97.2117,133.027 96.2117,132.027 95.5,130C 96.6328,124.545 98.2995,119.879 100.5,116C 99.062,115.781 97.7287,115.281 96.5,114.5C 97.6507,113.269 98.8173,113.269 100,114.5C 102.158,113.95 102.658,112.95 101.5,111.5C 103.39,111.297 104.89,111.963 106,113.5C 106.333,112.833 106.667,112.167 107,111.5C 108.353,112.685 109.52,114.019 110.5,115.5C 111.696,115.154 111.696,114.654 110.5,114C 111.5,113.667 112.5,113.333 113.5,113C 110.771,112.995 108.771,111.829 107.5,109.5C 109.522,106.644 112.022,104.311 115,102.5C 116.943,102.959 118.276,101.959 119,99.5C 120.544,101.369 122.044,103.203 123.5,105C 121.513,105.654 120.18,106.987 119.5,109C 120.167,109.333 120.833,109.667 121.5,110C 115.664,111.145 115.331,113.645 120.5,117.5C 121.251,116.624 121.751,115.624 122,114.5C 122.851,116.592 123.518,118.592 124,120.5C 123.311,119.643 122.478,118.977 121.5,118.5C 119.597,119.947 117.93,121.614 116.5,123.5C 114.51,121.492 112.843,119.159 111.5,116.5C 110.928,118.917 109.928,121.084 108.5,123C 109.551,124.385 110.884,125.385 112.5,126C 112.167,126.333 111.833,126.667 111.5,127C 112.715,129.096 113.549,128.929 114,126.5C 114.465,127.931 115.299,129.097 116.5,130C 113.667,130.167 112.167,131.667 112,134.5C 110.333,132.833 108.667,131.167 107,129.5C 106.833,129.833 106.667,130.167 106.5,130.5C 108.5,133.167 110.5,135.833 112.5,138.5C 111.975,139.192 111.308,139.692 110.5,140C 112.085,140.085 113.418,140.251 114.5,140.5C 113.675,141.386 112.675,141.719 111.5,141.5C 111.245,144.016 110.411,146.35 109,148.5C 107.68,148.799 106.18,148.966 104.5,149C 106.249,150.292 108.082,151.458 110,152.5C 110.601,150.641 111.434,150.308 112.5,151.5 Z"/></g>
<g><path style="opacity:1" fill="#bcbebf" d="M 167.5,133.5 C 161.463,143.05 154.796,152.217 147.5,161C 150.482,161.498 153.482,161.665 156.5,161.5C 160.833,161.5 165.167,161.5 169.5,161.5C 170.167,161.5 170.833,161.5 171.5,161.5C 173.292,162.309 175.292,162.809 177.5,163C 165.35,163.866 153.35,163.533 141.5,162C 142.167,162.333 142.833,162.667 143.5,163C 142.748,163.671 142.414,164.504 142.5,165.5C 140.99,164.164 139.323,162.997 137.5,162C 139.953,160.516 142.286,159.682 144.5,159.5C 143.065,157.599 141.398,157.266 139.5,158.5C 138.289,157.726 138.289,156.893 139.5,156C 137.875,155.147 137.542,154.147 138.5,153C 137.529,151.519 136.196,150.685 134.5,150.5C 134.5,150.167 134.5,149.833 134.5,149.5C 138.823,143.183 143.49,137.183 148.5,131.5C 150.867,129.82 153.034,127.82 155,125.5C 156.466,127.325 158.299,127.825 160.5,127C 158.56,127.178 156.893,126.178 155.5,124C 156.126,123.25 156.626,122.416 157,121.5C 157.333,121.833 157.667,122.167 158,122.5C 158.333,121.5 158.667,120.5 159,119.5C 159.652,121.723 161.152,122.89 163.5,123C 163.943,124.518 163.276,125.685 161.5,126.5C 162.498,129.028 163.331,129.028 164,126.5C 164.989,128.97 166.155,131.303 167.5,133.5 Z"/></g>
<g><path style="opacity:1" fill="#252627" d="M 45.5,135.5 C 46.6842,138.564 47.6842,141.731 48.5,145C 51.4214,145.401 54.4214,145.234 57.5,144.5C 59.8409,145.182 62.1743,145.849 64.5,146.5C 64.7261,149.249 64.3928,151.916 63.5,154.5C 65.0061,159.918 66.0061,165.251 66.5,170.5C 66.1543,171.696 65.6543,171.696 65,170.5C 64.6884,176.199 64.1884,181.866 63.5,187.5C 50.0574,181.612 37.0574,174.946 24.5,167.5C 25.5025,165.989 26.1692,164.322 26.5,162.5C 29.8979,159.373 32.5646,155.707 34.5,151.5C 36.4711,146.895 38.9711,142.562 42,138.5C 43.0391,137.29 44.2058,136.29 45.5,135.5 Z"/></g>
<g><path style="opacity:1" fill="#c0c1c1" d="M 198.5,135.5 C 198.775,139.304 198.775,142.971 198.5,146.5C 197.808,145.975 197.308,145.308 197,144.5C 196.228,145.849 195.061,146.682 193.5,147C 195.966,147.93 195.799,148.763 193,149.5C 191.341,148.02 189.508,146.686 187.5,145.5C 183.587,146.062 182.921,147.562 185.5,150C 182.894,152.957 181.394,152.124 181,147.5C 180.085,148.328 179.419,149.328 179,150.5C 178.5,141.506 178.334,132.506 178.5,123.5C 178.631,122.624 178.298,121.957 177.5,121.5C 176.818,122.243 176.151,122.909 175.5,123.5C 175.279,122.265 174.612,121.265 173.5,120.5C 174.274,119.289 175.107,119.289 176,120.5C 176.419,119.328 177.085,118.328 178,117.5C 179.406,118.668 180.572,118.335 181.5,116.5C 182.901,118.277 184.401,119.944 186,121.5C 187.833,120.333 189.667,119.167 191.5,118C 188.827,116.729 188.827,116.063 191.5,116C 192.167,117 192.833,118 193.5,119C 192.376,119.249 191.376,119.749 190.5,120.5C 191.641,121.425 191.641,122.259 190.5,123C 191.191,124.067 191.691,125.234 192,126.5C 192.333,126.167 192.667,125.833 193,125.5C 195.055,126.672 195.722,128.339 195,130.5C 192.552,126.369 190.385,126.535 188.5,131C 189.167,131.333 189.833,131.667 190.5,132C 189.483,133.049 189.316,134.216 190,135.5C 191.726,136.576 193.559,136.743 195.5,136C 191.331,136.208 190.164,134.708 192,131.5C 194.026,133.897 196.193,135.23 198.5,135.5 Z"/></g>
<g><path style="opacity:1" fill="#8c8d8f" d="M 200.5,142.5 C 204.542,143.429 208.209,144.429 211.5,145.5C 213.074,148.729 214.741,151.896 216.5,155C 212.662,154.58 212.496,155.747 216,158.5C 216.777,156.299 217.944,156.299 219.5,158.5C 217.539,159.848 217.372,161.181 219,162.5C 219.333,162.167 219.667,161.833 220,161.5C 220.684,162.784 220.517,163.951 219.5,165C 221.32,165.2 222.653,166.034 223.5,167.5C 223.158,168.338 222.492,168.672 221.5,168.5C 219.076,168.808 216.743,168.474 214.5,167.5C 215.04,166.252 215.707,165.085 216.5,164C 216.272,163.601 215.938,163.435 215.5,163.5C 210.944,161.558 205.944,160.892 200.5,161.5C 200.5,155.167 200.5,148.833 200.5,142.5 Z"/></g>
<g><path style="opacity:0.975" fill="#717274" d="M 34.5,151.5 C 32.5646,155.707 29.8979,159.373 26.5,162.5C 27.9811,157.831 30.6478,154.165 34.5,151.5 Z"/></g>
<g><path style="opacity:1" fill="#232426" d="M 169.5,161.5 C 165.167,161.5 160.833,161.5 156.5,161.5C 157.128,158.91 158.295,156.577 160,154.5C 168.962,145.583 173.128,147.583 172.5,160.5C 171.209,160.263 170.209,160.596 169.5,161.5 Z"/></g>
<g><path style="opacity:1" fill="#424345" d="M 56.5,180.5 C 57.0431,180.44 57.3764,180.107 57.5,179.5C 55.9539,178.316 54.2873,177.316 52.5,176.5C 51.9052,174.107 50.5719,172.273 48.5,171C 49.8333,170.333 49.8333,169.667 48.5,169C 52.3863,168.421 52.3863,167.588 48.5,166.5C 46.9017,167.485 45.235,167.651 43.5,167C 44.8333,166.333 44.8333,165.667 43.5,165C 44.7376,165.077 45.7376,164.911 46.5,164.5C 45.0977,163.158 45.4311,162.324 47.5,162C 44.8693,160.309 45.2027,159.142 48.5,158.5C 48.1924,157.692 47.6924,157.025 47,156.5C 45.5402,159.21 43.5402,159.876 41,158.5C 40.4926,159.996 40.9926,161.163 42.5,162C 42.1667,162.167 41.8333,162.333 41.5,162.5C 40.0495,161.345 39.0495,159.845 38.5,158C 41.0317,157.388 41.8651,155.888 41,153.5C 40.3333,154.167 39.6667,154.833 39,155.5C 37.5386,155.063 36.3719,155.063 35.5,155.5C 36.716,152.083 39.0493,149.75 42.5,148.5C 44.1965,149.364 45.3632,150.697 46,152.5C 47.3876,151.446 48.8876,151.28 50.5,152C 51.8333,152.667 51.8333,153.333 50.5,154C 52.108,154.658 53.2747,154.158 54,152.5C 54.4017,153.872 54.9017,155.205 55.5,156.5C 54.7376,156.911 53.7376,157.077 52.5,157C 54.5,158 56.5,159 58.5,160C 55.8333,160.667 55.8333,161.333 58.5,162C 55.4557,162.359 55.1224,163.026 57.5,164C 56.8333,164.667 56.1667,165.333 55.5,166C 59.2527,167.14 59.9193,168.974 57.5,171.5C 58.8499,173.02 60.1832,173.687 61.5,173.5C 58.972,174.517 58.972,175.684 61.5,177C 60.5,177.333 59.5,177.667 58.5,178C 59.8334,180.009 61.5,181.676 63.5,183C 60.7583,183.295 58.425,182.462 56.5,180.5 Z"/></g>
<g><path style="opacity:1" fill="#666769" d="M 127.5,140.5 C 127.181,145.363 127.514,150.03 128.5,154.5C 129.167,154.5 129.5,154.833 129.5,155.5C 127.727,158.06 125.727,160.393 123.5,162.5C 123.103,161.475 122.437,161.308 121.5,162C 122.598,162.77 122.598,163.603 121.5,164.5C 118.082,166.029 116.248,168.363 116,171.5C 115.667,171.167 115.333,170.833 115,170.5C 114.89,172.848 113.723,174.348 111.5,175C 112.337,176.011 112.67,177.178 112.5,178.5C 111.778,178.082 111.278,177.416 111,176.5C 110,177.833 109,177.833 108,176.5C 107.833,176.833 107.667,177.167 107.5,177.5C 108.376,178.251 109.376,178.751 110.5,179C 109.833,179.333 109.167,179.667 108.5,180C 108.5,181 108.5,182 108.5,183C 107.315,184.353 105.981,185.52 104.5,186.5C 102.91,182.982 101.41,183.315 100,187.5C 99.6271,185.302 99.1271,183.135 98.5,181C 100.141,179.354 99.8075,178.354 97.5,178C 98.4239,177.15 98.4239,176.15 97.5,175C 97.7788,172.338 98.9455,171.505 101,172.5C 104.69,170.506 104.69,168.173 101,165.5C 100.691,166.766 100.191,167.933 99.5,169C 96.8271,168.937 96.8271,168.271 99.5,167C 96.7375,164.397 96.0709,161.397 97.5,158C 96.8333,157.667 96.1667,157.333 95.5,157C 97.2407,155.917 97.9074,154.75 97.5,153.5C 99.5041,154.673 101.004,156.34 102,158.5C 103.227,151.46 105.893,150.46 110,155.5C 110.608,153.934 111.442,152.6 112.5,151.5C 114.925,151.684 114.925,152.351 112.5,153.5C 113.727,154.59 114.56,155.924 115,157.5C 115.635,156.034 116.469,154.7 117.5,153.5C 115.879,150.536 116.712,148.536 120,147.5C 121.049,148.517 122.216,148.684 123.5,148C 120.448,147.118 118.114,145.284 116.5,142.5C 116.667,142.167 116.833,141.833 117,141.5C 118.333,142.833 119.667,144.167 121,145.5C 121.677,143.311 122.844,142.978 124.5,144.5C 124.372,140.705 124.705,137.038 125.5,133.5C 126.168,135.969 126.835,138.302 127.5,140.5 Z"/></g>
<g><path style="opacity:1" fill="#737574" d="M 68.5,122.5 C 69.1855,134.402 69.8522,146.402 70.5,158.5C 69.5093,164.979 69.176,171.646 69.5,178.5C 69.7845,180.415 69.4511,182.081 68.5,183.5C 68.5,163.167 68.5,142.833 68.5,122.5 Z"/></g>
<g><path style="opacity:1" fill="#565759" d="M 56.5,180.5 C 46.6076,176.22 36.941,171.387 27.5,166C 30.0657,162.342 32.7324,158.842 35.5,155.5C 36.3719,155.063 37.5386,155.063 39,155.5C 39.6667,154.833 40.3333,154.167 41,153.5C 41.8651,155.888 41.0317,157.388 38.5,158C 39.0495,159.845 40.0495,161.345 41.5,162.5C 41.8333,162.333 42.1667,162.167 42.5,162C 40.9926,161.163 40.4926,159.996 41,158.5C 43.5402,159.876 45.5402,159.21 47,156.5C 47.6924,157.025 48.1924,157.692 48.5,158.5C 45.2027,159.142 44.8693,160.309 47.5,162C 45.4311,162.324 45.0977,163.158 46.5,164.5C 45.7376,164.911 44.7376,165.077 43.5,165C 44.8333,165.667 44.8333,166.333 43.5,167C 45.235,167.651 46.9017,167.485 48.5,166.5C 52.3863,167.588 52.3863,168.421 48.5,169C 49.8333,169.667 49.8333,170.333 48.5,171C 50.5719,172.273 51.9052,174.107 52.5,176.5C 54.2873,177.316 55.9539,178.316 57.5,179.5C 57.3764,180.107 57.0431,180.44 56.5,180.5 Z"/></g>
<g><path style="opacity:1" fill="#202123" d="M 216.5,175.5 C 215.549,174.081 215.216,172.415 215.5,170.5C 217.898,170.741 219.898,170.074 221.5,168.5C 222.492,168.672 223.158,168.338 223.5,167.5C 225.686,167.489 226.519,166.489 226,164.5C 217.927,151.971 209.427,139.971 200.5,128.5C 200.337,126.143 200.503,123.81 201,121.5C 210.434,136.6 220.268,151.434 230.5,166C 230.355,166.772 230.022,167.439 229.5,168C 226.689,169.825 223.689,171.158 220.5,172C 218.907,172.949 217.574,174.115 216.5,175.5 Z"/></g>
<g><path style="opacity:1" fill="#747576" d="M 200.5,128.5 C 209.427,139.971 217.927,151.971 226,164.5C 226.519,166.489 225.686,167.489 223.5,167.5C 222.653,166.034 221.32,165.2 219.5,165C 220.517,163.951 220.684,162.784 220,161.5C 219.667,161.833 219.333,162.167 219,162.5C 217.372,161.181 217.539,159.848 219.5,158.5C 217.944,156.299 216.777,156.299 216,158.5C 212.496,155.747 212.662,154.58 216.5,155C 214.741,151.896 213.074,148.729 211.5,145.5C 208.209,144.429 204.542,143.429 200.5,142.5C 200.5,138.833 200.5,135.167 200.5,131.5C 200.5,130.5 200.5,129.5 200.5,128.5 Z"/></g>
<g><path style="opacity:1" fill="#e9eaec" d="M 200.5,161.5 C 205.944,160.892 210.944,161.558 215.5,163.5C 210.167,163.5 204.833,163.5 199.5,163.5C 199.328,162.508 199.662,161.842 200.5,161.5 Z"/></g>
<g><path style="opacity:0.971" fill="#737373" d="M 26.5,162.5 C 26.1692,164.322 25.5025,165.989 24.5,167.5C 23.1416,165.257 23.8083,163.591 26.5,162.5 Z"/></g>
<g><path style="opacity:1" fill="#b4b5b5" d="M 178.5,123.5 C 178.334,132.506 178.5,141.506 179,150.5C 179.419,149.328 180.085,148.328 181,147.5C 181.394,152.124 182.894,152.957 185.5,150C 182.921,147.562 183.587,146.062 187.5,145.5C 189.508,146.686 191.341,148.02 193,149.5C 195.799,148.763 195.966,147.93 193.5,147C 195.061,146.682 196.228,145.849 197,144.5C 197.308,145.308 197.808,145.975 198.5,146.5C 198.775,142.971 198.775,139.304 198.5,135.5C 199.598,134.603 199.598,133.77 198.5,133C 199.044,132.283 199.711,131.783 200.5,131.5C 200.5,135.167 200.5,138.833 200.5,142.5C 200.5,148.833 200.5,155.167 200.5,161.5C 199.662,161.842 199.328,162.508 199.5,163.5C 198.127,163.343 196.793,163.51 195.5,164C 197.329,164.273 198.829,165.107 200,166.5C 200.739,165.426 201.739,164.759 203,164.5C 204.235,165.615 205.402,165.615 206.5,164.5C 207.478,164.977 208.311,165.643 209,166.5C 210.557,165.795 211.723,166.461 212.5,168.5C 210.405,169.229 208.572,168.563 207,166.5C 205.933,167.191 204.766,167.691 203.5,168C 203.833,168.333 204.167,168.667 204.5,169C 203.216,169.684 202.049,169.517 201,168.5C 200.309,170.891 199.309,170.891 198,168.5C 195.152,169.433 194.986,170.933 197.5,173C 197.167,173.167 196.833,173.333 196.5,173.5C 194.979,173.12 193.313,172.954 191.5,173C 190.167,172 190.167,171 191.5,170C 184.516,168.467 184.183,166.8 190.5,165C 188.015,163.371 185.849,163.871 184,166.5C 182.513,165.747 182.346,164.914 183.5,164C 180.574,162.988 179.74,161.155 181,158.5C 179.956,159.623 179.29,160.956 179,162.5C 178.819,159.305 178.319,156.305 177.5,153.5C 177.173,143.319 177.506,133.319 178.5,123.5 Z"/></g>
<g><path style="opacity:1" fill="#a0a2a1" d="M 89.5,179.5 C 87.8748,180.325 86.2082,179.992 84.5,178.5C 85.5042,176.323 84.8375,175.989 82.5,177.5C 81.7348,176.388 80.7348,175.721 79.5,175.5C 77.2392,173.949 74.7392,172.616 72,171.5C 71.4054,172.899 71.5721,174.232 72.5,175.5C 71.452,176.548 70.452,177.548 69.5,178.5C 69.176,171.646 69.5093,164.979 70.5,158.5C 71.9217,158.291 73.255,157.791 74.5,157C 72.7174,155.933 72.2174,154.433 73,152.5C 73.9138,153.654 74.7471,153.487 75.5,152C 73.0465,150.26 71.5465,148.093 71,145.5C 72.0847,147.657 73.2513,147.824 74.5,146C 72.0712,145.549 71.9045,144.715 74,143.5C 75,145.167 76,146.833 77,148.5C 77.3076,147.692 77.8076,147.025 78.5,146.5C 79.7362,147.246 81.0695,147.579 82.5,147.5C 82.6495,148.552 82.4828,149.552 82,150.5C 81.2747,148.842 80.108,148.342 78.5,149C 79.8088,150.751 79.4755,152.251 77.5,153.5C 78.7662,154.724 79.9328,156.057 81,157.5C 82.2761,154.613 84.4427,153.446 87.5,154C 85.4326,155.036 84.2659,156.536 84,158.5C 84.6667,157.167 85.3333,157.167 86,158.5C 86.3333,157.5 86.6667,156.5 87,155.5C 87.6667,156.833 88.3333,156.833 89,155.5C 90.113,156.76 90.2797,157.927 89.5,159C 90.1667,160.667 90.8333,162.333 91.5,164C 88.8333,165.333 88.8333,166.667 91.5,168C 91.0093,169.794 91.0093,171.794 91.5,174C 91.3333,175.5 91.1667,177 91,178.5C 88.8215,177.16 88.3215,177.493 89.5,179.5 Z"/></g>
<g><path style="opacity:1" fill="#acaeae" d="M 177.5,153.5 C 178.319,156.305 178.819,159.305 179,162.5C 179.29,160.956 179.956,159.623 181,158.5C 179.74,161.155 180.574,162.988 183.5,164C 182.346,164.914 182.513,165.747 184,166.5C 185.849,163.871 188.015,163.371 190.5,165C 184.183,166.8 184.516,168.467 191.5,170C 190.167,171 190.167,172 191.5,173C 193.313,172.954 194.979,173.12 196.5,173.5C 196.833,173.333 197.167,173.167 197.5,173C 194.986,170.933 195.152,169.433 198,168.5C 199.309,170.891 200.309,170.891 201,168.5C 202.049,169.517 203.216,169.684 204.5,169C 204.167,168.667 203.833,168.333 203.5,168C 204.766,167.691 205.933,167.191 207,166.5C 208.572,168.563 210.405,169.229 212.5,168.5C 211.723,166.461 210.557,165.795 209,166.5C 208.311,165.643 207.478,164.977 206.5,164.5C 205.402,165.615 204.235,165.615 203,164.5C 201.739,164.759 200.739,165.426 200,166.5C 198.829,165.107 197.329,164.273 195.5,164C 196.793,163.51 198.127,163.343 199.5,163.5C 204.833,163.5 210.167,163.5 215.5,163.5C 215.938,163.435 216.272,163.601 216.5,164C 215.707,165.085 215.04,166.252 214.5,167.5C 216.743,168.474 219.076,168.808 221.5,168.5C 219.898,170.074 217.898,170.741 215.5,170.5C 215.216,172.415 215.549,174.081 216.5,175.5C 216.5,176.167 216.5,176.833 216.5,177.5C 216.5,177.833 216.5,178.167 216.5,178.5C 211.392,180.333 206.058,180.999 200.5,180.5C 200.5,186.167 200.5,191.833 200.5,197.5C 199.778,197.918 199.278,198.584 199,199.5C 198.626,198.584 198.126,197.75 197.5,197C 198.428,196.612 199.095,195.945 199.5,195C 198.303,193.48 196.803,192.313 195,191.5C 194.626,192.416 194.126,193.25 193.5,194C 196.15,197.207 195.984,197.707 193,195.5C 192.293,193.919 191.46,192.419 190.5,191C 191.842,188.985 192.342,186.818 192,184.5C 191.667,185.167 191.333,185.833 191,186.5C 189.748,184.999 188.748,183.332 188,181.5C 187.02,183.059 186.187,184.726 185.5,186.5C 182.888,186.015 182.888,186.849 185.5,189C 183.699,189.317 183.366,189.984 184.5,191C 183.256,191.456 182.423,190.956 182,189.5C 180.586,190.991 179.086,192.325 177.5,193.5C 177.5,188.833 177.5,184.167 177.5,179.5C 174.425,178.953 171.425,177.953 168.5,176.5C 168.167,177.167 167.833,177.833 167.5,178.5C 165.833,178.5 164.167,178.5 162.5,178.5C 158.52,175.014 154.02,171.348 149,167.5C 146.14,169.077 143.973,168.41 142.5,165.5C 142.414,164.504 142.748,163.671 143.5,163C 142.833,162.667 142.167,162.333 141.5,162C 153.35,163.533 165.35,163.866 177.5,163C 175.292,162.809 173.292,162.309 171.5,161.5C 173.5,161.5 175.5,161.5 177.5,161.5C 177.5,158.833 177.5,156.167 177.5,153.5 Z"/></g>
<g><path style="opacity:1" fill="#a6a8a7" d="M 134.5,150.5 C 136.196,150.685 137.529,151.519 138.5,153C 137.542,154.147 137.875,155.147 139.5,156C 138.289,156.893 138.289,157.726 139.5,158.5C 141.398,157.266 143.065,157.599 144.5,159.5C 142.286,159.682 139.953,160.516 137.5,162C 139.323,162.997 140.99,164.164 142.5,165.5C 143.973,168.41 146.14,169.077 149,167.5C 154.02,171.348 158.52,175.014 162.5,178.5C 164.167,178.5 165.833,178.5 167.5,178.5C 167.833,177.833 168.167,177.167 168.5,176.5C 171.425,177.953 174.425,178.953 177.5,179.5C 177.167,179.5 176.833,179.5 176.5,179.5C 158.833,179.5 141.167,179.5 123.5,179.5C 123.5,173.833 123.5,168.167 123.5,162.5C 125.727,160.393 127.727,158.06 129.5,155.5C 130.939,153.64 132.605,151.973 134.5,150.5 Z"/></g>
<g><path style="opacity:1" fill="#606163" d="M 94.5,99.5 C 94.5,101.167 94.5,102.833 94.5,104.5C 94.5,105.833 94.5,107.167 94.5,108.5C 95.791,108.263 96.791,108.596 97.5,109.5C 96.913,110.767 96.913,111.767 97.5,112.5C 98.7362,111.754 100.07,111.421 101.5,111.5C 102.658,112.95 102.158,113.95 100,114.5C 98.8173,113.269 97.6507,113.269 96.5,114.5C 97.7287,115.281 99.062,115.781 100.5,116C 98.2995,119.879 96.6328,124.545 95.5,130C 96.2117,132.027 97.2117,133.027 98.5,133C 97.8333,133.667 97.1667,134.333 96.5,135C 97.0294,136.559 97.696,138.059 98.5,139.5C 96.3508,142.678 97.0175,145.512 100.5,148C 99.9288,149.205 99.2621,150.372 98.5,151.5C 98.2514,150.418 98.0848,149.085 98,147.5C 96.3883,149.456 96.2216,151.456 97.5,153.5C 97.9074,154.75 97.2407,155.917 95.5,157C 96.1667,157.333 96.8333,157.667 97.5,158C 96.0709,161.397 96.7375,164.397 99.5,167C 96.8271,168.271 96.8271,168.937 99.5,169C 100.191,167.933 100.691,166.766 101,165.5C 104.69,168.173 104.69,170.506 101,172.5C 98.9455,171.505 97.7788,172.338 97.5,175C 98.4239,176.15 98.4239,177.15 97.5,178C 99.8075,178.354 100.141,179.354 98.5,181C 99.1271,183.135 99.6271,185.302 100,187.5C 101.41,183.315 102.91,182.982 104.5,186.5C 105.981,185.52 107.315,184.353 108.5,183C 108.5,182 108.5,181 108.5,180C 109.167,179.667 109.833,179.333 110.5,179C 109.376,178.751 108.376,178.251 107.5,177.5C 107.667,177.167 107.833,176.833 108,176.5C 109,177.833 110,177.833 111,176.5C 111.278,177.416 111.778,178.082 112.5,178.5C 115.125,179.466 115.125,180.466 112.5,181.5C 112.846,182.696 113.346,182.696 114,181.5C 114.034,183.18 114.201,184.68 114.5,186C 112.5,186.667 110.5,187.333 108.5,188C 112.932,188.623 113.265,189.623 109.5,191C 111.087,191.862 112.754,192.529 114.5,193C 113.167,193.333 111.833,193.667 110.5,194C 112.394,195.101 113.061,196.434 112.5,198C 114.715,199.943 114.715,201.609 112.5,203C 115.628,205.355 116.795,204.855 116,201.5C 117.307,202.772 118.807,203.772 120.5,204.5C 118.164,205.594 118.164,206.927 120.5,208.5C 122.444,209.189 124.444,209.689 126.5,210C 125.304,210.654 125.304,211.154 126.5,211.5C 127.167,206.833 127.833,202.167 128.5,197.5C 129.842,198.902 130.676,198.569 131,196.5C 131.976,200.183 133.643,200.849 136,198.5C 138.71,200.688 141.71,202.355 145,203.5C 145.333,202.833 145.667,202.167 146,201.5C 147.603,201.871 149.103,202.205 150.5,202.5C 143.219,206.638 135.553,209.972 127.5,212.5C 116.407,208.407 105.741,203.407 95.5,197.5C 94.5258,199.743 94.1924,202.076 94.5,204.5C 97.0593,204.198 99.3926,204.532 101.5,205.5C 98.248,205.29 95.248,205.956 92.5,207.5C 92.5,206.5 92.5,205.5 92.5,204.5C 84.5,204.5 76.5,204.5 68.5,204.5C 68.7148,206.179 68.0481,207.179 66.5,207.5C 66.5,207.167 66.5,206.833 66.5,206.5C 67.1667,205.5 67.8333,204.5 68.5,203.5C 73.1667,203.5 77.8333,203.5 82.5,203.5C 85.681,203.258 88.681,203.258 91.5,203.5C 92.2811,202.271 92.7811,200.938 93,199.5C 93.5,177.836 93.6666,156.169 93.5,134.5C 93.5,125.833 93.5,117.167 93.5,108.5C 93.5,105.833 93.5,103.167 93.5,100.5C 93.5,99.8333 93.8333,99.5 94.5,99.5 Z"/></g>
<g><path style="opacity:1" fill="#9c9e9e" d="M 93.5,134.5 C 93.6666,156.169 93.5,177.836 93,199.5C 92.7811,200.938 92.2811,202.271 91.5,203.5C 88.681,203.258 85.681,203.258 82.5,203.5C 83.3984,202.842 84.3984,202.176 85.5,201.5C 84.086,200.376 82.586,199.376 81,198.5C 80.6667,199.167 80.3333,199.833 80,200.5C 78.9003,196.778 76.7337,193.944 73.5,192C 75.3902,188.554 76.8902,188.721 78,192.5C 78.6667,191.167 78.6667,189.833 78,188.5C 77.2588,187.359 76.4255,187.359 75.5,188.5C 74.8076,187.975 74.3076,187.308 74,186.5C 70.4891,190.787 69.1557,190.121 70,184.5C 71.016,185.634 71.6827,185.301 72,183.5C 73.4707,185.902 74.9707,185.736 76.5,183C 75.4954,181.493 74.162,180.327 72.5,179.5C 73.1831,176.539 74.0164,176.205 75,178.5C 75.495,175.259 76.995,174.259 79.5,175.5C 80.7348,175.721 81.7348,176.388 82.5,177.5C 84.8375,175.989 85.5042,176.323 84.5,178.5C 86.2082,179.992 87.8748,180.325 89.5,179.5C 89.7952,180.897 90.1286,182.397 90.5,184C 88.3143,184.604 88.1476,185.77 90,187.5C 90.3333,187.167 90.6667,186.833 91,186.5C 91.7985,190.424 92.2985,190.424 92.5,186.5C 92.755,170.668 92.4217,155.168 91.5,140C 92.1094,138.052 92.776,136.218 93.5,134.5 Z"/></g>
<g><path style="opacity:1" fill="#040405" d="M 176.5,180.5 C 176.5,184.833 176.5,189.167 176.5,193.5C 174.833,193.5 173.167,193.5 171.5,193.5C 170.25,193.423 169.417,192.756 169,191.5C 162.924,192.476 156.758,192.81 150.5,192.5C 150.29,195.97 149.123,195.97 147,192.5C 145.333,195.167 143.667,195.167 142,192.5C 141.329,193.252 140.496,193.586 139.5,193.5C 134.966,192.784 130.299,192.117 125.5,191.5C 125.289,189.362 124.955,187.195 124.5,185C 125,183.5 125.5,182 126,180.5C 126.739,181.574 127.739,182.241 129,182.5C 134.51,182.565 140.344,181.899 146.5,180.5C 156.568,180.789 166.568,180.789 176.5,180.5 Z"/></g>
<g><path style="opacity:1" fill="#171819" d="M 123.5,162.5 C 123.5,168.167 123.5,173.833 123.5,179.5C 141.167,179.5 158.833,179.5 176.5,179.5C 176.5,179.833 176.5,180.167 176.5,180.5C 166.568,180.789 156.568,180.789 146.5,180.5C 140.344,181.899 134.51,182.565 129,182.5C 127.739,182.241 126.739,181.574 126,180.5C 125.5,182 125,183.5 124.5,185C 124.955,187.195 125.289,189.362 125.5,191.5C 130.299,192.117 134.966,192.784 139.5,193.5C 138.732,194.263 138.232,195.263 138,196.5C 135.04,196.708 132.04,196.041 129,194.5C 127.779,195.272 126.779,196.272 126,197.5C 125,194.833 124,194.833 123,197.5C 122.729,194.728 121.229,193.062 118.5,192.5C 119.167,192.167 119.833,191.833 120.5,191.5C 119.885,188.961 119.218,186.461 118.5,184C 119.167,183.667 119.833,183.333 120.5,183C 117.242,179.206 117.242,175.206 120.5,171C 119.833,170.333 119.167,169.667 118.5,169C 120.141,167.871 121.141,166.371 121.5,164.5C 122.598,163.603 122.598,162.77 121.5,162C 122.437,161.308 123.103,161.475 123.5,162.5 Z"/></g>
<g><path style="opacity:0.239" fill="#dfdfe0" d="M 216.5,178.5 C 216.423,179.75 215.756,180.583 214.5,181C 210.514,181.499 206.514,181.666 202.5,181.5C 201.274,185.845 201.274,190.178 202.5,194.5C 204.199,194.66 205.866,194.494 207.5,194C 216.5,189.5 225.5,185 234.5,180.5C 236.283,181.348 236.783,182.681 236,184.5C 232.998,188.668 229.498,192.335 225.5,195.5C 225.5,195.167 225.5,194.833 225.5,194.5C 228.345,191.488 231.012,188.321 233.5,185C 233.333,184.5 233.167,184 233,183.5C 229.732,184.942 226.899,186.942 224.5,189.5C 218.244,191.3 212.244,193.633 206.5,196.5C 204.5,196.833 202.5,197.167 200.5,197.5C 200.5,191.833 200.5,186.167 200.5,180.5C 206.058,180.999 211.392,180.333 216.5,178.5 Z"/></g>
<g><path style="opacity:1" fill="#424345" d="M 121.5,164.5 C 121.141,166.371 120.141,167.871 118.5,169C 119.167,169.667 119.833,170.333 120.5,171C 117.242,175.206 117.242,179.206 120.5,183C 119.833,183.333 119.167,183.667 118.5,184C 119.218,186.461 119.885,188.961 120.5,191.5C 119.833,191.833 119.167,192.167 118.5,192.5C 121.229,193.062 122.729,194.728 123,197.5C 124,194.833 125,194.833 126,197.5C 126.779,196.272 127.779,195.272 129,194.5C 132.04,196.041 135.04,196.708 138,196.5C 138.232,195.263 138.732,194.263 139.5,193.5C 140.641,195.088 142.141,196.421 144,197.5C 145.343,196.786 146.676,197.12 148,198.5C 150.5,196.464 153.167,196.13 156,197.5C 157.458,195.476 159.291,195.309 161.5,197C 158.093,199.306 154.426,201.139 150.5,202.5C 149.103,202.205 147.603,201.871 146,201.5C 145.667,202.167 145.333,202.833 145,203.5C 141.71,202.355 138.71,200.688 136,198.5C 133.643,200.849 131.976,200.183 131,196.5C 130.676,198.569 129.842,198.902 128.5,197.5C 127.833,202.167 127.167,206.833 126.5,211.5C 125.304,211.154 125.304,210.654 126.5,210C 124.444,209.689 122.444,209.189 120.5,208.5C 118.164,206.927 118.164,205.594 120.5,204.5C 118.807,203.772 117.307,202.772 116,201.5C 116.795,204.855 115.628,205.355 112.5,203C 114.715,201.609 114.715,199.943 112.5,198C 113.061,196.434 112.394,195.101 110.5,194C 111.833,193.667 113.167,193.333 114.5,193C 112.754,192.529 111.087,191.862 109.5,191C 113.265,189.623 112.932,188.623 108.5,188C 110.5,187.333 112.5,186.667 114.5,186C 114.201,184.68 114.034,183.18 114,181.5C 113.346,182.696 112.846,182.696 112.5,181.5C 115.125,180.466 115.125,179.466 112.5,178.5C 112.67,177.178 112.337,176.011 111.5,175C 113.723,174.348 114.89,172.848 115,170.5C 115.333,170.833 115.667,171.167 116,171.5C 116.248,168.363 118.082,166.029 121.5,164.5 Z"/></g>
<g><path style="opacity:1" fill="#8e9090" d="M 79.5,175.5 C 76.995,174.259 75.495,175.259 75,178.5C 74.0164,176.205 73.1831,176.539 72.5,179.5C 74.162,180.327 75.4954,181.493 76.5,183C 74.9707,185.736 73.4707,185.902 72,183.5C 71.6827,185.301 71.016,185.634 70,184.5C 69.1557,190.121 70.4891,190.787 74,186.5C 74.3076,187.308 74.8076,187.975 75.5,188.5C 76.4255,187.359 77.2588,187.359 78,188.5C 78.6667,189.833 78.6667,191.167 78,192.5C 76.8902,188.721 75.3902,188.554 73.5,192C 76.7337,193.944 78.9003,196.778 80,200.5C 80.3333,199.833 80.6667,199.167 81,198.5C 82.586,199.376 84.086,200.376 85.5,201.5C 84.3984,202.176 83.3984,202.842 82.5,203.5C 77.8333,203.5 73.1667,203.5 68.5,203.5C 68.7059,199.102 68.3726,194.768 67.5,190.5C 68.4682,188.393 68.8016,186.059 68.5,183.5C 69.4511,182.081 69.7845,180.415 69.5,178.5C 70.452,177.548 71.452,176.548 72.5,175.5C 71.5721,174.232 71.4054,172.899 72,171.5C 74.7392,172.616 77.2392,173.949 79.5,175.5 Z"/></g>
<g><path style="opacity:1" fill="#9d9ea0" d="M 200.5,197.5 C 202.5,197.167 204.5,196.833 206.5,196.5C 205.833,197.167 205.167,197.833 204.5,198.5C 201.516,198.787 200.183,200.454 200.5,203.5C 192.833,203.5 185.167,203.5 177.5,203.5C 177.5,200.167 177.5,196.833 177.5,193.5C 179.086,192.325 180.586,190.991 182,189.5C 182.423,190.956 183.256,191.456 184.5,191C 183.366,189.984 183.699,189.317 185.5,189C 182.888,186.849 182.888,186.015 185.5,186.5C 186.187,184.726 187.02,183.059 188,181.5C 188.748,183.332 189.748,184.999 191,186.5C 191.333,185.833 191.667,185.167 192,184.5C 192.342,186.818 191.842,188.985 190.5,191C 191.46,192.419 192.293,193.919 193,195.5C 195.984,197.707 196.15,197.207 193.5,194C 194.126,193.25 194.626,192.416 195,191.5C 196.803,192.313 198.303,193.48 199.5,195C 199.095,195.945 198.428,196.612 197.5,197C 198.126,197.75 198.626,198.584 199,199.5C 199.278,198.584 199.778,197.918 200.5,197.5 Z"/></g>
<g><path style="opacity:1" fill="#58595a" d="M 176.5,179.5 C 176.833,179.5 177.167,179.5 177.5,179.5C 177.5,184.167 177.5,188.833 177.5,193.5C 177.5,196.833 177.5,200.167 177.5,203.5C 185.167,203.5 192.833,203.5 200.5,203.5C 200.183,200.454 201.516,198.787 204.5,198.5C 205.29,199.794 206.29,200.961 207.5,202C 206.24,203.113 205.073,203.28 204,202.5C 202.45,203.591 201.283,204.924 200.5,206.5C 192.903,204.533 184.903,203.866 176.5,204.5C 176.662,202.473 176.495,200.473 176,198.5C 175.823,202.356 175.323,206.023 174.5,209.5C 174.5,204.5 174.5,199.5 174.5,194.5C 173.5,194.5 172.5,194.5 171.5,194.5C 171.5,194.167 171.5,193.833 171.5,193.5C 173.167,193.5 174.833,193.5 176.5,193.5C 176.5,189.167 176.5,184.833 176.5,180.5C 176.5,180.167 176.5,179.833 176.5,179.5 Z"/></g>
<g><path style="opacity:1" fill="#838485" d="M 224.5,189.5 C 216.816,199.178 208.816,208.511 200.5,217.5C 199.624,217.631 198.957,217.298 198.5,216.5C 199.167,215.5 199.833,214.5 200.5,213.5C 199.873,212.583 199.539,211.583 199.5,210.5C 199.5,209.5 199.5,208.5 199.5,207.5C 199.5,206.833 199.833,206.5 200.5,206.5C 201.283,204.924 202.45,203.591 204,202.5C 205.073,203.28 206.24,203.113 207.5,202C 206.29,200.961 205.29,199.794 204.5,198.5C 205.167,197.833 205.833,197.167 206.5,196.5C 212.244,193.633 218.244,191.3 224.5,189.5 Z"/></g>
<g><path style="opacity:1" fill="#1c1c1d" d="M 171.5,193.5 C 171.5,193.833 171.5,194.167 171.5,194.5C 157.995,201.806 144.328,208.972 130.5,216C 128.167,216.667 125.833,216.667 123.5,216C 116.262,212.213 108.928,208.713 101.5,205.5C 99.3926,204.532 97.0593,204.198 94.5,204.5C 94.1924,202.076 94.5258,199.743 95.5,197.5C 105.741,203.407 116.407,208.407 127.5,212.5C 135.553,209.972 143.219,206.638 150.5,202.5C 154.426,201.139 158.093,199.306 161.5,197C 159.291,195.309 157.458,195.476 156,197.5C 153.167,196.13 150.5,196.464 148,198.5C 146.676,197.12 145.343,196.786 144,197.5C 142.141,196.421 140.641,195.088 139.5,193.5C 140.496,193.586 141.329,193.252 142,192.5C 143.667,195.167 145.333,195.167 147,192.5C 149.123,195.97 150.29,195.97 150.5,192.5C 156.758,192.81 162.924,192.476 169,191.5C 169.417,192.756 170.25,193.423 171.5,193.5 Z"/></g>
<g><path style="opacity:1" fill="#28292a" d="M 225.5,194.5 C 201.466,220.833 177.633,247.5 154,274.5C 146.989,283.206 139.989,291.873 133,300.5C 131.316,302.351 129.483,304.018 127.5,305.5C 126.081,304.995 125.415,303.995 125.5,302.5C 127.698,302.591 128.031,301.925 126.5,300.5C 127.239,300.631 127.906,300.464 128.5,300C 131.002,296.667 133.668,293.501 136.5,290.5C 151.186,273.152 166.186,256.152 181.5,239.5C 183.878,237.122 185.878,234.455 187.5,231.5C 192.744,227.677 197.078,223.011 200.5,217.5C 208.816,208.511 216.816,199.178 224.5,189.5C 226.899,186.942 229.732,184.942 233,183.5C 233.167,184 233.333,184.5 233.5,185C 231.012,188.321 228.345,191.488 225.5,194.5 Z"/></g>
<g><path style="opacity:0.188" fill="#d2d2d2" d="M 47.5,128.5 C 47.5,129.5 47.5,130.5 47.5,131.5C 46.3995,132.605 45.7329,133.938 45.5,135.5C 44.2058,136.29 43.0391,137.29 42,138.5C 38.9711,142.562 36.4711,146.895 34.5,151.5C 30.6478,154.165 27.9811,157.831 26.5,162.5C 23.8083,163.591 23.1416,165.257 24.5,167.5C 37.0574,174.946 50.0574,181.612 63.5,187.5C 64.8333,188.5 66.1667,189.5 67.5,190.5C 68.3726,194.768 68.7059,199.102 68.5,203.5C 67.8333,204.5 67.1667,205.5 66.5,206.5C 65.8333,206.5 65.1667,206.5 64.5,206.5C 62.1515,204.659 59.4848,203.326 56.5,202.5C 48.1821,197.674 39.5155,193.341 30.5,189.5C 29.5,188.833 28.5,188.167 27.5,187.5C 25.6693,185.251 23.3359,184.085 20.5,184C 21.6635,186.328 23.3302,188.162 25.5,189.5C 58.8621,227.192 92.1955,264.859 125.5,302.5C 125.415,303.995 126.081,304.995 127.5,305.5C 129.483,304.018 131.316,302.351 133,300.5C 139.989,291.873 146.989,283.206 154,274.5C 177.633,247.5 201.466,220.833 225.5,194.5C 225.5,194.833 225.5,195.167 225.5,195.5C 193.716,233.363 161.216,270.696 128,307.5C 90.1273,266.592 53.2939,224.759 17.5,182C 18.5929,180.635 19.9262,180.301 21.5,181C 36.494,188.271 51.494,195.437 66.5,202.5C 66.6653,198.818 66.4986,195.152 66,191.5C 52.4022,183.951 38.5689,176.784 24.5,170C 21.9133,168.475 21.0799,166.308 22,163.5C 29.5899,151.091 38.0899,139.424 47.5,128.5 Z M 171.5,196.5 C 172.117,196.611 172.617,196.944 173,197.5C 174.163,202.762 173.329,207.596 170.5,212C 156.1,218.868 141.767,225.702 127.5,232.5C 115.386,226.275 103.386,219.775 91.5,213C 93.1088,209.719 95.6088,207.553 99,206.5C 106.939,209.053 114.439,212.553 121.5,217C 124.406,218.318 127.406,218.652 130.5,218C 144.796,211.854 158.463,204.687 171.5,196.5 Z"/></g>
<g><path style="opacity:1" fill="#5a5b5c" d="M 102.5,240.5 C 104.113,242.27 106.113,243.436 108.5,244C 107.167,244.667 105.833,245.333 104.5,246C 106.513,246.875 106.513,248.209 104.5,250C 105.833,250.667 107.167,251.333 108.5,252C 106.968,252.7 105.968,253.866 105.5,255.5C 106.5,256.833 107.5,258.167 108.5,259.5C 104.986,260.993 105.32,262.493 109.5,264C 108.833,264.333 108.167,264.667 107.5,265C 110.877,266.039 111.543,267.539 109.5,269.5C 110.5,271.167 111.833,272.5 113.5,273.5C 112.189,274.258 111.689,275.258 112,276.5C 113.016,275.366 113.683,275.699 114,277.5C 114.423,276.044 115.256,275.544 116.5,276C 114.6,281.75 115.933,286.417 120.5,290C 120.272,290.399 119.938,290.565 119.5,290.5C 104.434,274.439 89.7677,258.106 75.5,241.5C 75.7828,240.711 76.2828,240.044 77,239.5C 77.5,240.667 78.3333,241.5 79.5,242C 79.1667,242.333 78.8333,242.667 78.5,243C 81.053,243.851 83.3863,243.518 85.5,242C 84.376,241.751 83.376,241.251 82.5,240.5C 82.6667,240.167 82.8333,239.833 83,239.5C 84.2682,239.616 85.6015,239.949 87,240.5C 87.6914,238.109 88.6914,238.109 90,240.5C 91.544,237.736 92.7107,237.903 93.5,241C 92.4258,241.739 91.7591,242.739 91.5,244C 93.0295,246.363 95.0295,248.197 97.5,249.5C 98.2508,248.624 98.7508,247.624 99,246.5C 100.503,246.835 101.836,246.835 103,246.5C 103.108,244.517 102.941,242.517 102.5,240.5 Z"/></g>
<g><path style="opacity:1" fill="#4c4d4f" d="M 127.5,258.5 C 127.518,271.765 127.185,285.098 126.5,298.5C 123.427,296.431 121.094,293.764 119.5,290.5C 119.938,290.565 120.272,290.399 120.5,290C 115.933,286.417 114.6,281.75 116.5,276C 115.256,275.544 114.423,276.044 114,277.5C 113.683,275.699 113.016,275.366 112,276.5C 111.689,275.258 112.189,274.258 113.5,273.5C 111.833,272.5 110.5,271.167 109.5,269.5C 111.543,267.539 110.877,266.039 107.5,265C 108.167,264.667 108.833,264.333 109.5,264C 105.32,262.493 104.986,260.993 108.5,259.5C 107.5,258.167 106.5,256.833 105.5,255.5C 105.968,253.866 106.968,252.7 108.5,252C 107.167,251.333 105.833,250.667 104.5,250C 106.513,248.209 106.513,246.875 104.5,246C 105.833,245.333 107.167,244.667 108.5,244C 106.113,243.436 104.113,242.27 102.5,240.5C 101.622,237.15 100.122,236.817 98,239.5C 96.9367,238.562 95.7701,237.562 94.5,236.5C 95.0253,235.808 95.6919,235.308 96.5,235C 95.1667,233 93.8333,231 92.5,229C 93.4162,228.626 94.2496,228.126 95,227.5C 95.2896,229.044 95.9563,230.377 97,231.5C 97.6924,230.975 98.1924,230.308 98.5,229.5C 97.6744,228.549 97.5078,227.549 98,226.5C 99.5013,228.369 101.001,230.203 102.5,232C 100.307,231.43 98.3072,231.764 96.5,233C 99.0739,235.516 101.907,237.683 105,239.5C 105.5,239 106,238.5 106.5,238C 105.328,237.581 104.328,236.915 103.5,236C 103.833,235.833 104.167,235.667 104.5,235.5C 105.967,236.695 107.467,236.695 109,235.5C 109.667,236.167 110.333,236.833 111,237.5C 112.15,236.576 113.15,236.576 114,237.5C 117.524,235.234 120.191,236.234 122,240.5C 123.558,239.655 124.558,240.321 125,242.5C 125.333,242.167 125.667,241.833 126,241.5C 126.173,247.348 126.673,253.015 127.5,258.5 Z"/></g>
<g><path style="opacity:1" fill="#949597" d="M 127.5,235.5 C 127.833,235.5 128.167,235.5 128.5,235.5C 128.369,236.239 128.536,236.906 129,237.5C 131.17,236.994 133.504,236.994 136,237.5C 137.098,238.384 137.598,239.384 137.5,240.5C 138.968,238.667 140.635,238.334 142.5,239.5C 141.019,240.48 139.685,241.647 138.5,243C 139.416,243.374 140.25,243.874 141,244.5C 143.563,244.654 146.063,244.154 148.5,243C 146.096,242.492 145.429,241.325 146.5,239.5C 147.59,240.727 148.924,241.56 150.5,242C 149.663,243.011 149.33,244.178 149.5,245.5C 143.322,245.902 142.989,247.402 148.5,250C 147.672,250.915 146.672,251.581 145.5,252C 147.078,253.14 148.744,253.64 150.5,253.5C 149.5,254.167 148.5,254.833 147.5,255.5C 147.667,255.833 147.833,256.167 148,256.5C 149.789,256.377 151.622,256.377 153.5,256.5C 153.192,257.308 152.692,257.975 152,258.5C 150.951,257.483 149.784,257.316 148.5,258C 149.833,258.667 149.833,259.333 148.5,260C 150.454,259.547 152.287,259.38 154,259.5C 154.667,260.5 154.667,261.5 154,262.5C 152.883,262.335 151.716,262.002 150.5,261.5C 148.941,262.074 147.441,262.74 146,263.5C 145.363,265.303 144.197,266.636 142.5,267.5C 144.329,269.156 145.663,271.156 146.5,273.5C 143.768,275.238 141.268,277.238 139,279.5C 138.24,277.503 137.74,275.837 137.5,274.5C 136.769,276.401 136.769,278.401 137.5,280.5C 135.94,280.481 134.44,280.148 133,279.5C 131.495,280.673 129.995,281.839 128.5,283C 130.081,283.707 131.581,284.54 133,285.5C 133.423,284.044 134.256,283.544 135.5,284C 134.167,285 134.167,286 135.5,287C 134.833,287.333 134.167,287.667 133.5,288C 134.571,288.852 135.571,289.685 136.5,290.5C 133.668,293.501 131.002,296.667 128.5,300C 127.906,300.464 127.239,300.631 126.5,300.5C 126.5,299.833 126.5,299.167 126.5,298.5C 127.185,285.098 127.518,271.765 127.5,258.5C 127.5,250.833 127.5,243.167 127.5,235.5 Z"/></g>
<g><path style="opacity:1" fill="#1f1f20" d="M 27.5,187.5 C 28.5,188.167 29.5,188.833 30.5,189.5C 43.1557,204.821 56.1557,219.821 69.5,234.5C 71.5293,236.858 73.5293,239.192 75.5,241.5C 89.7677,258.106 104.434,274.439 119.5,290.5C 121.094,293.764 123.427,296.431 126.5,298.5C 126.5,299.167 126.5,299.833 126.5,300.5C 128.031,301.925 127.698,302.591 125.5,302.5C 92.1955,264.859 58.8621,227.192 25.5,189.5C 25.5,188.167 26.1667,187.5 27.5,187.5 Z"/></g>
<g><path style="opacity:1" fill="#505052" d="M 30.5,189.5 C 39.5155,193.341 48.1821,197.674 56.5,202.5C 56.0618,202.435 55.7284,202.601 55.5,203C 57.0774,206.251 59.0774,209.251 61.5,212C 57.5,213.333 57.5,214.667 61.5,216C 59.6992,216.317 59.3659,216.984 60.5,218C 56.7741,219.043 57.1074,219.543 61.5,219.5C 61.1459,222.421 62.1459,224.754 64.5,226.5C 65.9987,224.198 67.332,224.531 68.5,227.5C 71.5884,227.648 74.755,227.315 78,226.5C 79.676,227.061 81.0094,228.061 82,229.5C 83.0793,227.606 84.4126,227.273 86,228.5C 85.0383,223.76 85.8717,223.426 88.5,227.5C 87.4265,228.251 87.2599,229.251 88,230.5C 89.0084,230.982 90.175,231.148 91.5,231C 89.0532,232.229 88.8865,233.729 91,235.5C 94.3124,234.545 94.3124,234.879 91,236.5C 87.8143,232.359 85.481,232.693 84,237.5C 82.3974,233.915 80.2307,233.582 77.5,236.5C 76.5745,235.359 75.7412,235.359 75,236.5C 74.1475,234.875 73.1475,234.542 72,235.5C 71.1618,234.001 70.3285,233.668 69.5,234.5C 56.1557,219.821 43.1557,204.821 30.5,189.5 Z"/></g>
<g><path style="opacity:1" fill="#8c8c8e" d="M 181.5,239.5 C 166.186,256.152 151.186,273.152 136.5,290.5C 135.571,289.685 134.571,288.852 133.5,288C 134.167,287.667 134.833,287.333 135.5,287C 134.167,286 134.167,285 135.5,284C 134.256,283.544 133.423,284.044 133,285.5C 131.581,284.54 130.081,283.707 128.5,283C 129.995,281.839 131.495,280.673 133,279.5C 134.44,280.148 135.94,280.481 137.5,280.5C 136.769,278.401 136.769,276.401 137.5,274.5C 137.74,275.837 138.24,277.503 139,279.5C 141.268,277.238 143.768,275.238 146.5,273.5C 145.663,271.156 144.329,269.156 142.5,267.5C 144.197,266.636 145.363,265.303 146,263.5C 147.441,262.74 148.941,262.074 150.5,261.5C 151.716,262.002 152.883,262.335 154,262.5C 154.667,261.5 154.667,260.5 154,259.5C 152.287,259.38 150.454,259.547 148.5,260C 149.833,259.333 149.833,258.667 148.5,258C 149.784,257.316 150.951,257.483 152,258.5C 152.692,257.975 153.192,257.308 153.5,256.5C 151.622,256.377 149.789,256.377 148,256.5C 147.833,256.167 147.667,255.833 147.5,255.5C 148.5,254.833 149.5,254.167 150.5,253.5C 148.744,253.64 147.078,253.14 145.5,252C 146.672,251.581 147.672,250.915 148.5,250C 142.989,247.402 143.322,245.902 149.5,245.5C 149.33,244.178 149.663,243.011 150.5,242C 148.924,241.56 147.59,240.727 146.5,239.5C 145.429,241.325 146.096,242.492 148.5,243C 146.063,244.154 143.563,244.654 141,244.5C 140.25,243.874 139.416,243.374 138.5,243C 139.685,241.647 141.019,240.48 142.5,239.5C 140.635,238.334 138.968,238.667 137.5,240.5C 137.598,239.384 137.098,238.384 136,237.5C 133.504,236.994 131.17,236.994 129,237.5C 128.536,236.906 128.369,236.239 128.5,235.5C 134.845,232.328 141.511,228.994 148.5,225.5C 150.45,226.006 152.283,227.34 154,229.5C 154.5,229.333 155,229.167 155.5,229C 151.053,224.49 151.553,223.656 157,226.5C 157.333,225.5 157.667,224.5 158,223.5C 158.84,226.464 159.84,226.797 161,224.5C 161.667,227.167 162.333,227.167 163,224.5C 163.741,225.641 164.575,225.641 165.5,224.5C 167.922,226.286 167.922,227.952 165.5,229.5C 166.035,231.271 166.869,231.604 168,230.5C 169.092,233.044 169.759,235.711 170,238.5C 170.149,235.721 170.983,235.221 172.5,237C 172.167,237.333 171.833,237.667 171.5,238C 174.709,240.481 176.542,239.648 177,235.5C 178.992,236.328 180.492,237.661 181.5,239.5 Z"/></g>
<g><path style="opacity:1" fill="#555657" d="M 98.5,221.5 C 108.024,226.558 117.691,231.225 127.5,235.5C 127.5,243.167 127.5,250.833 127.5,258.5C 126.673,253.015 126.173,247.348 126,241.5C 125.667,241.833 125.333,242.167 125,242.5C 124.558,240.321 123.558,239.655 122,240.5C 120.191,236.234 117.524,235.234 114,237.5C 113.15,236.576 112.15,236.576 111,237.5C 110.333,236.833 109.667,236.167 109,235.5C 107.467,236.695 105.967,236.695 104.5,235.5C 104.167,235.667 103.833,235.833 103.5,236C 104.328,236.915 105.328,237.581 106.5,238C 106,238.5 105.5,239 105,239.5C 101.907,237.683 99.0739,235.516 96.5,233C 98.3072,231.764 100.307,231.43 102.5,232C 101.001,230.203 99.5013,228.369 98,226.5C 97.5078,227.549 97.6744,228.549 98.5,229.5C 98.1924,230.308 97.6924,230.975 97,231.5C 95.9563,230.377 95.2896,229.044 95,227.5C 94.2496,228.126 93.4162,228.626 92.5,229C 93.8333,231 95.1667,233 96.5,235C 95.6919,235.308 95.0253,235.808 94.5,236.5C 95.7701,237.562 96.9367,238.562 98,239.5C 100.122,236.817 101.622,237.15 102.5,240.5C 102.941,242.517 103.108,244.517 103,246.5C 101.836,246.835 100.503,246.835 99,246.5C 98.7508,247.624 98.2508,248.624 97.5,249.5C 95.0295,248.197 93.0295,246.363 91.5,244C 91.7591,242.739 92.4258,241.739 93.5,241C 92.7107,237.903 91.544,237.736 90,240.5C 88.6914,238.109 87.6914,238.109 87,240.5C 85.6015,239.949 84.2682,239.616 83,239.5C 82.8333,239.833 82.6667,240.167 82.5,240.5C 83.376,241.251 84.376,241.751 85.5,242C 83.3863,243.518 81.053,243.851 78.5,243C 78.8333,242.667 79.1667,242.333 79.5,242C 78.3333,241.5 77.5,240.667 77,239.5C 76.2828,240.044 75.7828,240.711 75.5,241.5C 73.5293,239.192 71.5293,236.858 69.5,234.5C 70.3285,233.668 71.1618,234.001 72,235.5C 73.1475,234.542 74.1475,234.875 75,236.5C 75.7412,235.359 76.5745,235.359 77.5,236.5C 80.2307,233.582 82.3974,233.915 84,237.5C 85.481,232.693 87.8143,232.359 91,236.5C 94.3124,234.879 94.3124,234.545 91,235.5C 88.8865,233.729 89.0532,232.229 91.5,231C 90.175,231.148 89.0084,230.982 88,230.5C 87.2599,229.251 87.4265,228.251 88.5,227.5C 92.0785,226.863 92.4118,225.363 89.5,223C 92.1354,221.646 94.8021,221.812 97.5,223.5C 98.2975,223.043 98.6309,222.376 98.5,221.5 Z"/></g>
<g><path style="opacity:1" fill="#78797b" d="M 167.5,216.5 C 168.461,218.438 167.795,219.938 165.5,221C 166.667,222.167 167.833,223.333 169,224.5C 169.333,223.833 169.667,223.167 170,222.5C 171.65,223.891 172.15,225.391 171.5,227C 173.061,227.318 174.228,228.151 175,229.5C 175.333,229.167 175.667,228.833 176,228.5C 176.894,231.392 178.56,233.726 181,235.5C 181.167,235 181.333,234.5 181.5,234C 180.465,232.726 179.298,231.56 178,230.5C 177.719,228.095 178.385,228.095 180,230.5C 180.423,229.044 181.256,228.544 182.5,229C 182.167,229.333 181.833,229.667 181.5,230C 182.646,230.645 183.646,231.478 184.5,232.5C 184.296,231.471 184.796,230.471 186,229.5C 186.278,230.416 186.778,231.082 187.5,231.5C 185.878,234.455 183.878,237.122 181.5,239.5C 180.492,237.661 178.992,236.328 177,235.5C 176.542,239.648 174.709,240.481 171.5,238C 171.833,237.667 172.167,237.333 172.5,237C 170.983,235.221 170.149,235.721 170,238.5C 169.759,235.711 169.092,233.044 168,230.5C 166.869,231.604 166.035,231.271 165.5,229.5C 167.922,227.952 167.922,226.286 165.5,224.5C 164.575,225.641 163.741,225.641 163,224.5C 162.333,227.167 161.667,227.167 161,224.5C 159.84,226.797 158.84,226.464 158,223.5C 157.667,224.5 157.333,225.5 157,226.5C 151.553,223.656 151.053,224.49 155.5,229C 155,229.167 154.5,229.333 154,229.5C 152.283,227.34 150.45,226.006 148.5,225.5C 154.713,222.314 161.046,219.314 167.5,216.5 Z"/></g>
<g><path style="opacity:1" fill="#636465" d="M 199.5,210.5 C 199.539,211.583 199.873,212.583 200.5,213.5C 199.833,214.5 199.167,215.5 198.5,216.5C 198.957,217.298 199.624,217.631 200.5,217.5C 197.078,223.011 192.744,227.677 187.5,231.5C 186.778,231.082 186.278,230.416 186,229.5C 184.796,230.471 184.296,231.471 184.5,232.5C 183.646,231.478 182.646,230.645 181.5,230C 181.833,229.667 182.167,229.333 182.5,229C 181.256,228.544 180.423,229.044 180,230.5C 178.385,228.095 177.719,228.095 178,230.5C 179.298,231.56 180.465,232.726 181.5,234C 181.333,234.5 181.167,235 181,235.5C 178.56,233.726 176.894,231.392 176,228.5C 175.667,228.833 175.333,229.167 175,229.5C 174.228,228.151 173.061,227.318 171.5,227C 172.15,225.391 171.65,223.891 170,222.5C 169.667,223.167 169.333,223.833 169,224.5C 167.833,223.333 166.667,222.167 165.5,221C 167.795,219.938 168.461,218.438 167.5,216.5C 168.833,215.833 170.167,215.167 171.5,214.5C 171.721,215.735 172.388,216.735 173.5,217.5C 172.998,218.716 172.665,219.883 172.5,221C 174.448,221.983 176.282,223.15 178,224.5C 179.566,223.939 180.899,224.606 182,226.5C 184.479,226.899 186.979,226.399 189.5,225C 189.167,224.667 188.833,224.333 188.5,224C 191.018,222.498 193.518,220.998 196,219.5C 196.309,218.234 196.809,217.067 197.5,216C 197.272,215.601 196.938,215.435 196.5,215.5C 197.263,213.632 198.263,211.965 199.5,210.5 Z"/></g>
<g><path style="opacity:1" fill="#373739" d="M 56.5,202.5 C 59.4848,203.326 62.1515,204.659 64.5,206.5C 64.3555,209.689 64.3555,212.855 64.5,216C 63.8333,216.333 63.1667,216.667 62.5,217C 64.1233,219.08 65.6233,221.246 67,223.5C 68.9068,223.579 70.9068,223.246 73,222.5C 73.5831,224.002 74.4164,225.335 75.5,226.5C 76.1924,225.975 76.6924,225.308 77,224.5C 79.0902,225.791 80.4236,225.124 81,222.5C 81.6667,223.167 82.3333,223.833 83,224.5C 84.4352,222.789 86.2686,221.622 88.5,221C 88.2716,220.601 87.9382,220.435 87.5,220.5C 88.2341,219.292 88.5674,217.959 88.5,216.5C 91.5498,218.692 94.8832,220.358 98.5,221.5C 98.6309,222.376 98.2975,223.043 97.5,223.5C 94.8021,221.812 92.1354,221.646 89.5,223C 92.4118,225.363 92.0785,226.863 88.5,227.5C 85.8717,223.426 85.0383,223.76 86,228.5C 84.4126,227.273 83.0793,227.606 82,229.5C 81.0094,228.061 79.676,227.061 78,226.5C 74.755,227.315 71.5884,227.648 68.5,227.5C 67.332,224.531 65.9987,224.198 64.5,226.5C 62.1459,224.754 61.1459,222.421 61.5,219.5C 57.1074,219.543 56.7741,219.043 60.5,218C 59.3659,216.984 59.6992,216.317 61.5,216C 57.5,214.667 57.5,213.333 61.5,212C 59.0774,209.251 57.0774,206.251 55.5,203C 55.7284,202.601 56.0618,202.435 56.5,202.5 Z"/></g>
<g><path style="opacity:1" fill="#252628" d="M 64.5,206.5 C 65.1667,206.5 65.8333,206.5 66.5,206.5C 66.5,206.833 66.5,207.167 66.5,207.5C 67.2588,211.477 67.9254,215.477 68.5,219.5C 72.2664,219.95 75.9331,219.95 79.5,219.5C 81.0589,220.074 82.5589,220.74 84,221.5C 84.3333,220.833 84.6667,220.167 85,219.5C 85.6708,220.252 86.5041,220.586 87.5,220.5C 87.9382,220.435 88.2716,220.601 88.5,221C 86.2686,221.622 84.4352,222.789 83,224.5C 82.3333,223.833 81.6667,223.167 81,222.5C 80.4236,225.124 79.0902,225.791 77,224.5C 76.6924,225.308 76.1924,225.975 75.5,226.5C 74.4164,225.335 73.5831,224.002 73,222.5C 70.9068,223.246 68.9068,223.579 67,223.5C 65.6233,221.246 64.1233,219.08 62.5,217C 63.1667,216.667 63.8333,216.333 64.5,216C 64.3555,212.855 64.3555,209.689 64.5,206.5 Z"/></g>
<g><path style="opacity:1" fill="#424344" d="M 173.5,213.5 C 173.833,214.167 174.167,214.833 174.5,215.5C 174.5,216.833 174.5,218.167 174.5,219.5C 176.401,219.567 178.234,219.233 180,218.5C 180.945,218.905 181.612,219.572 182,220.5C 183.402,218.027 184.902,218.027 186.5,220.5C 190.379,219.819 193.713,218.152 196.5,215.5C 196.938,215.435 197.272,215.601 197.5,216C 196.809,217.067 196.309,218.234 196,219.5C 193.518,220.998 191.018,222.498 188.5,224C 188.833,224.333 189.167,224.667 189.5,225C 186.979,226.399 184.479,226.899 182,226.5C 180.899,224.606 179.566,223.939 178,224.5C 176.282,223.15 174.448,221.983 172.5,221C 172.665,219.883 172.998,218.716 173.5,217.5C 172.388,216.735 171.721,215.735 171.5,214.5C 172.167,214.167 172.833,213.833 173.5,213.5 Z"/></g>
<g><path style="opacity:1" fill="#212223" d="M 199.5,207.5 C 199.5,208.5 199.5,209.5 199.5,210.5C 198.263,211.965 197.263,213.632 196.5,215.5C 193.713,218.152 190.379,219.819 186.5,220.5C 184.902,218.027 183.402,218.027 182,220.5C 181.612,219.572 180.945,218.905 180,218.5C 178.234,219.233 176.401,219.567 174.5,219.5C 174.5,218.167 174.5,216.833 174.5,215.5C 179.042,216.978 183.709,217.478 188.5,217C 192.359,213.968 196.026,210.802 199.5,207.5 Z"/></g>
<g><path style="opacity:0.055" fill="#d6d6d6" d="M 171.5,194.5 C 172.5,194.5 173.5,194.5 174.5,194.5C 174.5,199.5 174.5,204.5 174.5,209.5C 174.768,211.099 174.434,212.432 173.5,213.5C 172.833,213.833 172.167,214.167 171.5,214.5C 170.167,215.167 168.833,215.833 167.5,216.5C 161.046,219.314 154.713,222.314 148.5,225.5C 141.511,228.994 134.845,232.328 128.5,235.5C 128.167,235.5 127.833,235.5 127.5,235.5C 117.691,231.225 108.024,226.558 98.5,221.5C 94.8832,220.358 91.5498,218.692 88.5,216.5C 88.3433,215.127 88.51,213.793 89,212.5C 90.6692,211.154 91.8358,209.487 92.5,207.5C 95.248,205.956 98.248,205.29 101.5,205.5C 108.928,208.713 116.262,212.213 123.5,216C 125.833,216.667 128.167,216.667 130.5,216C 144.328,208.972 157.995,201.806 171.5,194.5 Z M 171.5,196.5 C 158.463,204.687 144.796,211.854 130.5,218C 127.406,218.652 124.406,218.318 121.5,217C 114.439,212.553 106.939,209.053 99,206.5C 95.6088,207.553 93.1088,209.719 91.5,213C 103.386,219.775 115.386,226.275 127.5,232.5C 141.767,225.702 156.1,218.868 170.5,212C 173.329,207.596 174.163,202.762 173,197.5C 172.617,196.944 172.117,196.611 171.5,196.5 Z"/></g>
<g><path style="opacity:1" fill="#060708" d="M 200.5,206.5 C 199.833,206.5 199.5,206.833 199.5,207.5C 196.026,210.802 192.359,213.968 188.5,217C 183.709,217.478 179.042,216.978 174.5,215.5C 174.167,214.833 173.833,214.167 173.5,213.5C 174.434,212.432 174.768,211.099 174.5,209.5C 175.323,206.023 175.823,202.356 176,198.5C 176.495,200.473 176.662,202.473 176.5,204.5C 184.903,203.866 192.903,204.533 200.5,206.5 Z"/></g>
<g><path style="opacity:1" fill="#080809" d="M 92.5,207.5 C 91.8358,209.487 90.6692,211.154 89,212.5C 88.51,213.793 88.3433,215.127 88.5,216.5C 88.5674,217.959 88.2341,219.292 87.5,220.5C 86.5041,220.586 85.6708,220.252 85,219.5C 84.6667,220.167 84.3333,220.833 84,221.5C 82.5589,220.74 81.0589,220.074 79.5,219.5C 75.9331,219.95 72.2664,219.95 68.5,219.5C 67.9254,215.477 67.2588,211.477 66.5,207.5C 68.0481,207.179 68.7148,206.179 68.5,204.5C 76.5,204.5 84.5,204.5 92.5,204.5C 92.5,205.5 92.5,206.5 92.5,207.5 Z"/></g>
<g><path style="opacity:0.927" fill="#545454" d="M 27.5,187.5 C 26.1667,187.5 25.5,188.167 25.5,189.5C 23.3302,188.162 21.6635,186.328 20.5,184C 23.3359,184.085 25.6693,185.251 27.5,187.5 Z"/></g>
</svg>
