<?xml version="1.0" encoding="UTF-8"?>
<!DOCTYPE svg PUBLIC "-//W3C//DTD SVG 1.1//EN" "http://www.w3.org/Graphics/SVG/1.1/DTD/svg11.dtd">
<svg xmlns="http://www.w3.org/2000/svg" version="1.1" width="456px" height="470px" style="shape-rendering:geometricPrecision; text-rendering:geometricPrecision; image-rendering:optimizeQuality; fill-rule:evenodd; clip-rule:evenodd" xmlns:xlink="http://www.w3.org/1999/xlink">
<g><path style="opacity:1" fill="#a2b7c5" d="M 228.5,6.5 C 241.259,11.7134 253.593,17.7134 265.5,24.5C 264.178,24.33 263.011,24.6634 262,25.5C 259.501,23.5005 256.668,22.6672 253.5,23C 255.932,24.0875 255.598,24.5875 252.5,24.5C 252.167,24.5 251.833,24.5 251.5,24.5C 251.611,23.8826 251.944,23.3826 252.5,23C 248.033,19.6626 243.033,17.1626 237.5,15.5C 236.558,15.6082 235.725,15.9415 235,16.5C 233.065,13.6293 231.399,10.6293 230,7.5C 229.814,10.0356 229.314,12.369 228.5,14.5C 228.5,11.8333 228.5,9.16667 228.5,6.5 Z"/></g>
<g><path style="opacity:1" fill="#6a7f90" d="M 251.5,24.5 C 246.581,22.7072 241.914,20.3739 237.5,17.5C 236.432,19.1875 236.599,20.8541 238,22.5C 240.415,23.1319 242.582,24.1319 244.5,25.5C 243.178,25.67 242.011,25.3366 241,24.5C 240.805,25.8193 240.972,27.1526 241.5,28.5C 239.046,26.7149 237.379,24.3815 236.5,21.5C 232.408,21.5506 230.408,19.884 230.5,16.5C 229.959,18.7138 229.626,20.8805 229.5,23C 232.097,23.7792 232.097,24.2792 229.5,24.5C 228.521,21.3752 228.187,18.0419 228.5,14.5C 229.314,12.369 229.814,10.0356 230,7.5C 231.399,10.6293 233.065,13.6293 235,16.5C 235.725,15.9415 236.558,15.6082 237.5,15.5C 243.033,17.1626 248.033,19.6626 252.5,23C 251.944,23.3826 251.611,23.8826 251.5,24.5 Z"/></g>
<g><path style="opacity:0.878" fill="#bbcdda" d="M 228.5,6.5 C 228.5,9.16667 228.5,11.8333 228.5,14.5C 228.187,18.0419 228.521,21.3752 229.5,24.5C 229.5,25.1667 229.5,25.8333 229.5,26.5C 228.67,36.9921 228.17,47.6588 228,58.5C 227.1,57.2298 225.934,56.2298 224.5,55.5C 225.609,54.0353 225.109,53.0353 223,52.5C 222.253,49.0493 222.92,48.716 225,51.5C 225.925,50.9535 226.758,50.2868 227.5,49.5C 225.496,47.1664 223.163,45.1664 220.5,43.5C 220.833,43.1667 221.167,42.8333 221.5,42.5C 223.497,43.7474 225.497,44.5808 227.5,45C 226.315,43.647 224.981,42.4803 223.5,41.5C 224.262,41.0894 225.262,40.9227 226.5,41C 225.786,39.6569 226.12,38.3236 227.5,37C 227.045,33.1214 227.045,29.2881 227.5,25.5C 226.738,25.0894 225.738,24.9227 224.5,25C 223.242,23.2591 222.242,21.4258 221.5,19.5C 222.822,17.6889 223.322,15.6889 223,13.5C 221.074,15.5389 218.907,17.2055 216.5,18.5C 210.191,21.4246 203.524,23.4246 196.5,24.5C 196.5,25.5 196.5,26.5 196.5,27.5C 192.447,28.3495 188.447,29.5162 184.5,31C 178.961,34.9552 172.961,37.9552 166.5,40C 167.416,40.2784 168.082,40.7784 168.5,41.5C 167.833,41.5 167.167,41.5 166.5,41.5C 165.85,41.1961 165.183,40.8627 164.5,40.5C 157.804,44.343 150.804,47.5096 143.5,50C 140.591,52.7433 137.257,54.7433 133.5,56C 132.748,56.6708 132.414,57.5041 132.5,58.5C 131.609,59.1098 130.609,59.4431 129.5,59.5C 120.577,64.9694 111.577,70.4694 102.5,76C 97.9637,80.0405 93.297,83.8739 88.5,87.5C 77.1047,91.0248 65.7714,94.8581 54.5,99C 56.6614,99.5847 58.6614,100.418 60.5,101.5C 58.4168,102.973 56.0835,104.14 53.5,105C 55.6667,106.5 57.8333,108 60,109.5C 60.4169,108.244 61.2502,107.577 62.5,107.5C 63.5434,110.056 65.2101,112.223 67.5,114C 73.1667,117.667 78.8333,121.333 84.5,125C 90.6267,127.411 96.9601,129.078 103.5,130C 105.751,130.748 107.084,132.248 107.5,134.5C 106.542,134.047 105.708,133.381 105,132.5C 103.473,134.221 102.473,136.221 102,138.5C 101.329,137.748 100.496,137.414 99.5,137.5C 90.3484,132.633 81.3484,126.799 72.5,120C 68.926,118.707 65.5927,117.207 62.5,115.5C 61.8333,115.167 61.1667,114.833 60.5,114.5C 55.1233,109.79 49.4566,105.457 43.5,101.5C 44.8936,99.2918 46.8936,97.7918 49.5,97C 60.6625,96.2793 70.9958,92.946 80.5,87C 97.8119,74.0077 115.812,62.0077 134.5,51C 166.192,36.8299 197.526,21.9966 228.5,6.5 Z"/></g>
<g><path style="opacity:0.941" fill="#101f2f" d="M 221.5,19.5 C 220.833,20.1667 220.167,20.8333 219.5,21.5C 213.225,23.9064 207.225,26.9064 201.5,30.5C 199.273,29.737 197.94,30.737 197.5,33.5C 194.911,33.461 192.911,34.461 191.5,36.5C 187.387,37.3933 183.72,39.0599 180.5,41.5C 178.323,41.5861 176.323,42.2528 174.5,43.5C 172.232,42.4557 169.899,42.289 167.5,43C 168.167,43.3333 168.833,43.6667 169.5,44C 167.638,45.3657 165.972,46.8657 164.5,48.5C 162.105,49.3635 159.771,49.3635 157.5,48.5C 160.637,46.3431 163.637,44.0098 166.5,41.5C 167.167,41.5 167.833,41.5 168.5,41.5C 180.463,35.5519 192.796,30.0519 205.5,25C 209.56,23.3109 213.227,21.1442 216.5,18.5C 218.907,17.2055 221.074,15.5389 223,13.5C 223.322,15.6889 222.822,17.6889 221.5,19.5 Z"/></g>
<g><path style="opacity:1" fill="#8395a4" d="M 216.5,18.5 C 213.227,21.1442 209.56,23.3109 205.5,25C 192.796,30.0519 180.463,35.5519 168.5,41.5C 168.082,40.7784 167.416,40.2784 166.5,40C 172.961,37.9552 178.961,34.9552 184.5,31C 188.447,29.5162 192.447,28.3495 196.5,27.5C 196.5,26.5 196.5,25.5 196.5,24.5C 203.524,23.4246 210.191,21.4246 216.5,18.5 Z"/></g>
<g><path style="opacity:0.714" fill="#708592" d="M 219.5,21.5 C 218.212,28.7225 215.212,35.0558 210.5,40.5C 212.159,35.8445 213.826,31.1778 215.5,26.5C 215.167,26.1667 214.833,25.8333 214.5,25.5C 208.932,28.4513 203.266,31.118 197.5,33.5C 197.94,30.737 199.273,29.737 201.5,30.5C 207.225,26.9064 213.225,23.9064 219.5,21.5 Z"/></g>
<g><path style="opacity:0.106" fill="#9ca5c2" d="M 197.5,33.5 C 195.819,35.0075 193.819,36.0075 191.5,36.5C 192.911,34.461 194.911,33.461 197.5,33.5 Z"/></g>
<g><path style="opacity:0.969" fill="#8094a2" d="M 265.5,24.5 C 286.574,33.9518 307.241,43.9518 327.5,54.5C 322.774,55.3829 318.774,54.2162 315.5,51C 306.253,46.7129 296.92,42.3796 287.5,38C 279.128,36.479 271.462,33.3123 264.5,28.5C 259.831,29.3294 255.831,27.9961 252.5,24.5C 255.598,24.5875 255.932,24.0875 253.5,23C 256.668,22.6672 259.501,23.5005 262,25.5C 263.011,24.6634 264.178,24.33 265.5,24.5 Z"/></g>
<g><path style="opacity:0.875" fill="#5e7889" d="M 242.5,30.5 C 246.66,38.1617 250.327,46.1617 253.5,54.5C 250.801,54.9536 248.135,54.287 245.5,52.5C 246.665,51.4164 247.998,50.5831 249.5,50C 248.167,49.3333 248.167,48.6667 249.5,48C 248.167,48 246.833,48 245.5,48C 245.833,47.6667 246.167,47.3333 246.5,47C 245.047,44.8856 243.047,43.5522 240.5,43C 241.833,42.3333 241.833,41.6667 240.5,41C 234.328,41.1369 234.161,39.9703 240,37.5C 244.991,44.1857 245.491,43.8523 241.5,36.5C 240.335,35.4164 239.002,34.5831 237.5,34C 239.301,33.6827 239.634,33.016 238.5,32C 239.449,31.3828 240.282,31.5494 241,32.5C 241.278,31.5842 241.778,30.9175 242.5,30.5 Z"/></g>
<g><path style="opacity:0.016" fill="#a4afc0" d="M 191.5,36.5 C 188.26,38.951 184.593,40.6176 180.5,41.5C 183.72,39.0599 187.387,37.3933 191.5,36.5 Z"/></g>
<g><path style="opacity:0.876" fill="#525e6c" d="M 180.5,41.5 C 175.469,44.3446 170.136,46.6779 164.5,48.5C 165.972,46.8657 167.638,45.3657 169.5,44C 168.833,43.6667 168.167,43.3333 167.5,43C 169.899,42.289 172.232,42.4557 174.5,43.5C 176.323,42.2528 178.323,41.5861 180.5,41.5 Z"/></g>
<g><path style="opacity:0.937" fill="#4e606e" d="M 166.5,41.5 C 163.637,44.0098 160.637,46.3431 157.5,48.5C 159.771,49.3635 162.105,49.3635 164.5,48.5C 159.023,51.4032 153.357,54.0698 147.5,56.5C 148.234,55.2921 148.567,53.9587 148.5,52.5C 142.963,53.9343 137.63,55.9343 132.5,58.5C 132.414,57.5041 132.748,56.6708 133.5,56C 137.257,54.7433 140.591,52.7433 143.5,50C 150.804,47.5096 157.804,44.343 164.5,40.5C 165.183,40.8627 165.85,41.1961 166.5,41.5 Z"/></g>
<g><path style="opacity:0.929" fill="#a6bfcb" d="M 221.5,19.5 C 222.242,21.4258 223.242,23.2591 224.5,25C 225.738,24.9227 226.738,25.0894 227.5,25.5C 227.045,29.2881 227.045,33.1214 227.5,37C 226.12,38.3236 225.786,39.6569 226.5,41C 225.262,40.9227 224.262,41.0894 223.5,41.5C 224.981,42.4803 226.315,43.647 227.5,45C 225.497,44.5808 223.497,43.7474 221.5,42.5C 221.167,42.8333 220.833,43.1667 220.5,43.5C 223.163,45.1664 225.496,47.1664 227.5,49.5C 226.758,50.2868 225.925,50.9535 225,51.5C 222.92,48.716 222.253,49.0493 223,52.5C 225.109,53.0353 225.609,54.0353 224.5,55.5C 225.934,56.2298 227.1,57.2298 228,58.5C 228.17,47.6588 228.67,36.9921 229.5,26.5C 229.526,38.5088 229.859,51.0088 230.5,64C 228.732,73.7019 228.065,83.5352 228.5,93.5C 228.5,96.8333 228.5,100.167 228.5,103.5C 227.778,103.918 227.278,104.584 227,105.5C 225.316,103.649 223.483,101.982 221.5,100.5C 223.07,100.306 224.57,100.306 226,100.5C 226.556,102.595 227.056,102.762 227.5,101C 226.978,100.05 226.311,99.2164 225.5,98.5C 228.133,97.1156 228.133,95.7822 225.5,94.5C 224.12,96.9767 223.12,96.9767 222.5,94.5C 223.774,93.8106 223.774,92.9772 222.5,92C 223.449,91.3828 224.282,91.5494 225,92.5C 225.925,91.9535 226.758,91.2868 227.5,90.5C 225.892,89.7579 224.225,89.5913 222.5,90C 222.833,89.6667 223.167,89.3333 223.5,89C 221.035,88.3678 219.369,86.8678 218.5,84.5C 218.833,84.1667 219.167,83.8333 219.5,83.5C 220.741,86.144 222.741,86.9774 225.5,86C 226.935,83.7328 226.602,81.7328 224.5,80C 222.5,78.6667 220.5,77.3333 218.5,76C 221.028,75.3311 221.028,74.4978 218.5,73.5C 217.692,73.8076 217.025,74.3076 216.5,75C 217.451,75.7175 217.617,76.5509 217,77.5C 215.5,76 214,74.5 212.5,73C 211.517,72.4092 210.85,72.7425 210.5,74C 211.863,74.9366 213.53,76.2699 215.5,78C 212.833,79.6667 212.833,81.3333 215.5,83C 215.167,83.1667 214.833,83.3333 214.5,83.5C 213.114,81.3564 211.614,80.023 210,79.5C 208.372,80.8187 208.539,82.1521 210.5,83.5C 210.023,84.4776 209.357,85.3109 208.5,86C 212.174,86.288 213.007,87.788 211,90.5C 209.315,88.9825 207.815,87.3159 206.5,85.5C 207.025,84.8076 207.692,84.3076 208.5,84C 205.215,78.8729 200.882,77.7062 195.5,80.5C 195.167,79.8333 194.833,79.1667 194.5,78.5C 192.599,80.0063 190.932,81.6729 189.5,83.5C 196.263,68.9745 203.263,54.6411 210.5,40.5C 215.212,35.0558 218.212,28.7225 219.5,21.5C 220.167,20.8333 220.833,20.1667 221.5,19.5 Z"/></g>
<g><path style="opacity:1" fill="#364f62" d="M 241.5,28.5 C 242.338,28.8417 242.672,29.5084 242.5,30.5C 241.778,30.9175 241.278,31.5842 241,32.5C 240.282,31.5494 239.449,31.3828 238.5,32C 239.634,33.016 239.301,33.6827 237.5,34C 239.002,34.5831 240.335,35.4164 241.5,36.5C 245.491,43.8523 244.991,44.1857 240,37.5C 234.161,39.9703 234.328,41.1369 240.5,41C 241.833,41.6667 241.833,42.3333 240.5,43C 243.047,43.5522 245.047,44.8856 246.5,47C 246.167,47.3333 245.833,47.6667 245.5,48C 246.833,48 248.167,48 249.5,48C 248.167,48.6667 248.167,49.3333 249.5,50C 247.998,50.5831 246.665,51.4164 245.5,52.5C 248.135,54.287 250.801,54.9536 253.5,54.5C 258.496,64.4923 263.496,74.4923 268.5,84.5C 265.791,84.2421 263.291,85.2421 261,87.5C 260.667,86.1667 260.333,84.8333 260,83.5C 257.281,82.3234 255.781,80.6567 255.5,78.5C 253.234,79.6854 251.234,80.8521 249.5,82C 251.513,80.2087 251.513,78.8753 249.5,78C 251.23,76.1476 252.396,76.3143 253,78.5C 254.399,77.7734 255.899,77.2734 257.5,77C 254.456,76.6411 254.122,75.9745 256.5,75C 254.959,73.4207 253.792,71.5873 253,69.5C 251.297,71.3473 251.464,73.1806 253.5,75C 252.256,75.4561 251.423,74.9561 251,73.5C 249.637,75.7843 248.137,75.951 246.5,74C 247.328,73.0853 248.328,72.4186 249.5,72C 249,71.8333 248.5,71.6667 248,71.5C 246.387,73.3067 244.553,74.9733 242.5,76.5C 241.749,75.624 241.249,74.624 241,73.5C 239.915,74.2931 238.748,74.9598 237.5,75.5C 236.758,77.1082 236.591,78.7749 237,80.5C 236.167,79.5 235.333,78.5 234.5,77.5C 233.18,79.2701 231.68,79.6034 230,78.5C 231.507,80.0262 232.007,81.8595 231.5,84C 229.943,87.019 228.943,90.1856 228.5,93.5C 228.065,83.5352 228.732,73.7019 230.5,64C 229.859,51.0088 229.526,38.5088 229.5,26.5C 229.5,25.8333 229.5,25.1667 229.5,24.5C 232.097,24.2792 232.097,23.7792 229.5,23C 229.626,20.8805 229.959,18.7138 230.5,16.5C 230.408,19.884 232.408,21.5506 236.5,21.5C 237.379,24.3815 239.046,26.7149 241.5,28.5 Z"/></g>
<g><path style="opacity:0.851" fill="#6c7c89" d="M 327.5,54.5 C 339.932,60.6085 351.265,68.2752 361.5,77.5C 359.025,77.1461 356.692,76.6461 354.5,76C 350.015,73.0122 346.015,69.5122 342.5,65.5C 341.575,64.3595 340.741,64.3595 340,65.5C 337.359,62.7404 334.192,60.7404 330.5,59.5C 329.446,57.7988 328.446,56.1321 327.5,54.5 Z"/></g>
<g><path style="opacity:0.027" fill="#aab6c3" d="M 361.5,77.5 C 365.392,79.0621 368.725,81.3954 371.5,84.5C 367.578,82.8967 364.245,80.5633 361.5,77.5 Z"/></g>
<g><path style="opacity:0.118" fill="#afc3cf" d="M 371.5,84.5 C 376.09,86.4394 380.423,88.7728 384.5,91.5C 379.432,90.4096 375.099,88.0763 371.5,84.5 Z"/></g>
<g><path style="opacity:1" fill="#91aebc" d="M 222.5,94.5 C 220.539,95.4602 218.873,96.7935 217.5,98.5C 215.267,97.2578 213.101,95.9245 211,94.5C 210.667,95.5 210.333,96.5 210,97.5C 207.988,97.5246 205.988,97.5246 204,97.5C 203.055,97.9054 202.388,98.572 202,99.5C 201.136,95.9034 199.969,96.0701 198.5,100C 199.949,101.117 201.616,101.784 203.5,102C 202.584,102.374 201.75,102.874 201,103.5C 198.73,102.273 196.897,100.606 195.5,98.5C 194.653,100.061 194.986,101.561 196.5,103C 195.91,104.509 195.244,106.009 194.5,107.5C 195.061,105.934 194.394,104.601 192.5,103.5C 189.723,104.658 186.723,105.824 183.5,107C 184.833,106.333 184.833,105.667 183.5,105C 185.095,105.617 186.428,105.284 187.5,104C 186.348,101.851 184.848,100.018 183,98.5C 182.617,99.056 182.117,99.3893 181.5,99.5C 183.659,93.8489 186.326,88.5156 189.5,83.5C 190.932,81.6729 192.599,80.0063 194.5,78.5C 194.833,79.1667 195.167,79.8333 195.5,80.5C 200.882,77.7062 205.215,78.8729 208.5,84C 207.692,84.3076 207.025,84.8076 206.5,85.5C 207.815,87.3159 209.315,88.9825 211,90.5C 213.007,87.788 212.174,86.288 208.5,86C 209.357,85.3109 210.023,84.4776 210.5,83.5C 208.539,82.1521 208.372,80.8187 210,79.5C 211.614,80.023 213.114,81.3564 214.5,83.5C 214.833,83.3333 215.167,83.1667 215.5,83C 212.833,81.3333 212.833,79.6667 215.5,78C 213.53,76.2699 211.863,74.9366 210.5,74C 210.85,72.7425 211.517,72.4092 212.5,73C 214,74.5 215.5,76 217,77.5C 217.617,76.5509 217.451,75.7175 216.5,75C 217.025,74.3076 217.692,73.8076 218.5,73.5C 221.028,74.4978 221.028,75.3311 218.5,76C 220.5,77.3333 222.5,78.6667 224.5,80C 226.602,81.7328 226.935,83.7328 225.5,86C 222.741,86.9774 220.741,86.144 219.5,83.5C 219.167,83.8333 218.833,84.1667 218.5,84.5C 219.369,86.8678 221.035,88.3678 223.5,89C 223.167,89.3333 222.833,89.6667 222.5,90C 224.225,89.5913 225.892,89.7579 227.5,90.5C 226.758,91.2868 225.925,91.9535 225,92.5C 224.282,91.5494 223.449,91.3828 222.5,92C 223.774,92.9772 223.774,93.8106 222.5,94.5 Z"/></g>
<g><path style="opacity:1" fill="#2a4050" d="M 268.5,84.5 C 277.688,100.876 286.355,117.542 294.5,134.5C 292.043,133.977 289.709,133.144 287.5,132C 287.957,131.586 288.291,131.086 288.5,130.5C 288.086,128.081 287.086,126.081 285.5,124.5C 285.275,119.046 282.775,115.046 278,112.5C 277.647,111.328 277.813,110.162 278.5,109C 276.541,107.7 275.374,105.867 275,103.5C 273.823,105.176 272.323,106.509 270.5,107.5C 271.485,109.098 271.651,110.765 271,112.5C 270.676,110.431 269.842,110.098 268.5,111.5C 267.315,110.147 265.981,108.98 264.5,108C 264.957,107.586 265.291,107.086 265.5,106.5C 264.349,105.269 263.183,105.269 262,106.5C 261.692,105.692 261.192,105.025 260.5,104.5C 260.167,105.167 259.833,105.833 259.5,106.5C 258.117,103.924 257.283,104.258 257,107.5C 255.16,106.167 254.66,106.334 255.5,108C 254.975,108.692 254.308,109.192 253.5,109.5C 251.878,107.561 250.044,107.228 248,108.5C 247.167,107.667 246.333,106.833 245.5,106C 247.598,106.984 249.598,106.651 251.5,105C 250.454,103.461 249.121,103.295 247.5,104.5C 245.853,103.722 244.52,102.556 243.5,101C 246.236,99.6378 248.569,97.8044 250.5,95.5C 248.932,93.4558 247.098,93.1224 245,94.5C 243.189,93.5765 243.355,92.7431 245.5,92C 244.552,91.5172 243.552,91.3505 242.5,91.5C 242.657,90.1266 242.49,88.7932 242,87.5C 238.688,89.6453 235.854,92.312 233.5,95.5C 235.818,96.8344 237.485,96.1677 238.5,93.5C 238.736,94.2472 239.07,95.0805 239.5,96C 242.486,95.8724 245.486,95.8724 248.5,96C 246,97.8333 243.5,99.6667 241,101.5C 240.252,99.6675 239.252,98.0009 238,96.5C 235.668,97.8523 233.501,100.019 231.5,103C 232.749,104.824 233.915,104.657 235,102.5C 235.749,103.635 235.583,104.635 234.5,105.5C 231.976,107.878 230.643,107.545 230.5,104.5C 229.833,113.991 229.167,123.325 228.5,132.5C 228.339,129.81 228.339,126.81 228.5,123.5C 228.5,116.833 228.5,110.167 228.5,103.5C 228.5,100.167 228.5,96.8333 228.5,93.5C 228.943,90.1856 229.943,87.019 231.5,84C 232.007,81.8595 231.507,80.0262 230,78.5C 231.68,79.6034 233.18,79.2701 234.5,77.5C 235.333,78.5 236.167,79.5 237,80.5C 236.591,78.7749 236.758,77.1082 237.5,75.5C 238.748,74.9598 239.915,74.2931 241,73.5C 241.249,74.624 241.749,75.624 242.5,76.5C 244.553,74.9733 246.387,73.3067 248,71.5C 248.5,71.6667 249,71.8333 249.5,72C 248.328,72.4186 247.328,73.0853 246.5,74C 248.137,75.951 249.637,75.7843 251,73.5C 251.423,74.9561 252.256,75.4561 253.5,75C 251.464,73.1806 251.297,71.3473 253,69.5C 253.792,71.5873 254.959,73.4207 256.5,75C 254.122,75.9745 254.456,76.6411 257.5,77C 255.899,77.2734 254.399,77.7734 253,78.5C 252.396,76.3143 251.23,76.1476 249.5,78C 251.513,78.8753 251.513,80.2087 249.5,82C 251.234,80.8521 253.234,79.6854 255.5,78.5C 255.781,80.6567 257.281,82.3234 260,83.5C 260.333,84.8333 260.667,86.1667 261,87.5C 263.291,85.2421 265.791,84.2421 268.5,84.5 Z"/></g>
<g><path style="opacity:1" fill="#5a6d7e" d="M 129.5,59.5 C 127.696,62.0979 125.362,64.2646 122.5,66C 106.844,77.1628 90.844,87.8295 74.5,98C 69.8338,99.5062 65.1671,100.006 60.5,99.5C 59.537,99.9698 59.537,100.637 60.5,101.5C 58.6614,100.418 56.6614,99.5847 54.5,99C 65.7714,94.8581 77.1047,91.0248 88.5,87.5C 93.297,83.8739 97.9637,80.0405 102.5,76C 111.577,70.4694 120.577,64.9694 129.5,59.5 Z"/></g>
<g><path style="opacity:1" fill="#1a2634" d="M 251.5,24.5 C 251.833,24.5 252.167,24.5 252.5,24.5C 255.831,27.9961 259.831,29.3294 264.5,28.5C 271.462,33.3123 279.128,36.479 287.5,38C 296.92,42.3796 306.253,46.7129 315.5,51C 318.774,54.2162 322.774,55.3829 327.5,54.5C 328.446,56.1321 329.446,57.7988 330.5,59.5C 334.192,60.7404 337.359,62.7404 340,65.5C 340.741,64.3595 341.575,64.3595 342.5,65.5C 346.015,69.5122 350.015,73.0122 354.5,76C 356.692,76.6461 359.025,77.1461 361.5,77.5C 364.245,80.5633 367.578,82.8967 371.5,84.5C 375.099,88.0763 379.432,90.4096 384.5,91.5C 390.208,94.4652 396.208,96.9652 402.5,99C 395.872,101.591 396.205,103.424 403.5,104.5C 400.683,106.817 398.016,109.317 395.5,112C 394.255,112.791 392.922,113.291 391.5,113.5C 392.81,111.852 394.143,110.186 395.5,108.5C 387.717,105.293 380.05,101.793 372.5,98C 357.324,87.5789 342.324,76.9123 327.5,66C 299.895,52.1979 272.228,38.6979 244.5,25.5C 242.582,24.1319 240.415,23.1319 238,22.5C 236.599,20.8541 236.432,19.1875 237.5,17.5C 241.914,20.3739 246.581,22.7072 251.5,24.5 Z"/></g>
<g><path style="opacity:0.925" fill="#212f3e" d="M 147.5,56.5 C 126.268,68.463 105.935,81.963 86.5,97C 79.0943,101.87 71.0943,105.37 62.5,107.5C 61.2502,107.577 60.4169,108.244 60,109.5C 57.8333,108 55.6667,106.5 53.5,105C 56.0835,104.14 58.4168,102.973 60.5,101.5C 59.537,100.637 59.537,99.9698 60.5,99.5C 65.1671,100.006 69.8338,99.5062 74.5,98C 90.844,87.8295 106.844,77.1628 122.5,66C 125.362,64.2646 127.696,62.0979 129.5,59.5C 130.609,59.4431 131.609,59.1098 132.5,58.5C 137.63,55.9343 142.963,53.9343 148.5,52.5C 148.567,53.9587 148.234,55.2921 147.5,56.5 Z"/></g>
<g><path style="opacity:1" fill="#1f3242" d="M 285.5,124.5 C 283.61,124.297 282.11,124.963 281,126.5C 280.383,125.551 280.549,124.718 281.5,124C 281,123.833 280.5,123.667 280,123.5C 279.298,124.795 278.631,126.128 278,127.5C 277.331,124.972 276.498,124.972 275.5,127.5C 277.323,128.491 278.823,129.824 280,131.5C 281.087,129.068 281.587,129.402 281.5,132.5C 280.178,132.67 279.011,132.337 278,131.5C 277.751,132.624 277.251,133.624 276.5,134.5C 275.289,133.726 275.289,132.893 276.5,132C 275.299,131.097 274.465,129.931 274,128.5C 273.107,129.711 272.274,129.711 271.5,128.5C 276.468,126.146 276.468,124.313 271.5,123C 271.833,122.667 272.167,122.333 272.5,122C 270.687,122.046 269.021,121.88 267.5,121.5C 268.09,120.201 269.09,119.368 270.5,119C 269,118.167 267.833,117 267,115.5C 266.508,116.549 266.674,117.549 267.5,118.5C 266.167,118.833 264.833,119.167 263.5,119.5C 264.833,120.62 265.333,121.953 265,123.5C 262.721,121.711 260.721,119.711 259,117.5C 256.165,118.916 253.498,120.583 251,122.5C 248.266,121.638 248.099,120.805 250.5,120C 248.321,118.013 246.488,118.18 245,120.5C 243.422,119.289 243.255,117.955 244.5,116.5C 245.833,116.833 247.167,117.167 248.5,117.5C 249.799,115.693 249.632,114.027 248,112.5C 245.266,113.601 242.433,115.267 239.5,117.5C 238.188,116.54 236.854,116.706 235.5,118C 235.014,120.027 235.014,122.193 235.5,124.5C 236.5,124.5 237.5,124.5 238.5,124.5C 238.651,121.282 239.484,120.949 241,123.5C 241.483,122.552 241.649,121.552 241.5,120.5C 240.178,120.67 239.011,120.337 238,119.5C 236.913,121.932 236.413,121.598 236.5,118.5C 238.46,119.138 240.293,119.138 242,118.5C 242.11,120.848 243.277,122.348 245.5,123C 243.939,123.318 242.772,124.151 242,125.5C 241.586,125.043 241.086,124.709 240.5,124.5C 239.198,127.634 236.865,129.468 233.5,130C 234.451,130.718 234.617,131.551 234,132.5C 232.956,131.377 232.29,130.044 232,128.5C 231.305,130.722 230.472,132.889 229.5,135C 230.686,136.947 232.02,138.78 233.5,140.5C 232.726,141.711 231.893,141.711 231,140.5C 229.422,141.711 229.255,143.045 230.5,144.5C 231.192,143.975 231.692,143.308 232,142.5C 232.551,144.353 231.885,145.687 230,146.5C 229.821,150.025 229.321,153.359 228.5,156.5C 228.5,148.5 228.5,140.5 228.5,132.5C 229.167,123.325 229.833,113.991 230.5,104.5C 230.643,107.545 231.976,107.878 234.5,105.5C 235.583,104.635 235.749,103.635 235,102.5C 233.915,104.657 232.749,104.824 231.5,103C 233.501,100.019 235.668,97.8523 238,96.5C 239.252,98.0009 240.252,99.6675 241,101.5C 243.5,99.6667 246,97.8333 248.5,96C 245.486,95.8724 242.486,95.8724 239.5,96C 239.07,95.0805 238.736,94.2472 238.5,93.5C 237.485,96.1677 235.818,96.8344 233.5,95.5C 235.854,92.312 238.688,89.6453 242,87.5C 242.49,88.7932 242.657,90.1266 242.5,91.5C 243.552,91.3505 244.552,91.5172 245.5,92C 243.355,92.7431 243.189,93.5765 245,94.5C 247.098,93.1224 248.932,93.4558 250.5,95.5C 248.569,97.8044 246.236,99.6378 243.5,101C 244.52,102.556 245.853,103.722 247.5,104.5C 249.121,103.295 250.454,103.461 251.5,105C 249.598,106.651 247.598,106.984 245.5,106C 246.333,106.833 247.167,107.667 248,108.5C 250.044,107.228 251.878,107.561 253.5,109.5C 254.308,109.192 254.975,108.692 255.5,108C 254.66,106.334 255.16,106.167 257,107.5C 257.283,104.258 258.117,103.924 259.5,106.5C 259.833,105.833 260.167,105.167 260.5,104.5C 261.192,105.025 261.692,105.692 262,106.5C 263.183,105.269 264.349,105.269 265.5,106.5C 265.291,107.086 264.957,107.586 264.5,108C 265.981,108.98 267.315,110.147 268.5,111.5C 269.842,110.098 270.676,110.431 271,112.5C 271.651,110.765 271.485,109.098 270.5,107.5C 272.323,106.509 273.823,105.176 275,103.5C 275.374,105.867 276.541,107.7 278.5,109C 277.813,110.162 277.647,111.328 278,112.5C 282.775,115.046 285.275,119.046 285.5,124.5 Z"/></g>
<g><path style="opacity:1" fill="#bdced9" d="M 384.5,91.5 C 393.762,94.8119 403.096,97.4786 412.5,99.5C 401.341,109.435 389.341,118.435 376.5,126.5C 369.962,130.264 363.628,134.264 357.5,138.5C 357.5,139.167 357.167,139.5 356.5,139.5C 354.306,137.779 353.139,135.445 353,132.5C 352.617,133.056 352.117,133.389 351.5,133.5C 352.122,131.665 353.456,130.498 355.5,130C 361.244,128.987 366.911,127.654 372.5,126C 379.204,122.32 385.538,118.153 391.5,113.5C 392.922,113.291 394.255,112.791 395.5,112C 398.016,109.317 400.683,106.817 403.5,104.5C 396.205,103.424 395.872,101.591 402.5,99C 396.208,96.9652 390.208,94.4652 384.5,91.5 Z"/></g>
<g><path style="opacity:1" fill="#7d9cad" d="M 222.5,94.5 C 223.12,96.9767 224.12,96.9767 225.5,94.5C 228.133,95.7822 228.133,97.1156 225.5,98.5C 226.311,99.2164 226.978,100.05 227.5,101C 227.056,102.762 226.556,102.595 226,100.5C 224.57,100.306 223.07,100.306 221.5,100.5C 223.483,101.982 225.316,103.649 227,105.5C 227.278,104.584 227.778,103.918 228.5,103.5C 228.5,110.167 228.5,116.833 228.5,123.5C 225.883,120.853 222.883,118.686 219.5,117C 221.464,115.206 222.964,115.706 224,118.5C 224.659,115.647 223.492,113.98 220.5,113.5C 218.959,114.286 217.626,115.286 216.5,116.5C 216.423,115.25 215.756,114.417 214.5,114C 214.833,113.667 215.167,113.333 215.5,113C 211.99,111.56 210.323,109.227 210.5,106C 209.07,104.56 207.403,104.226 205.5,105C 206.5,105.833 207.5,106.667 208.5,107.5C 207.5,108.333 206.5,109.167 205.5,110C 207.363,111.418 207.863,113.251 207,115.5C 205.35,115.068 203.85,113.735 202.5,111.5C 202.436,112.365 202.103,113.365 201.5,114.5C 202.025,115.192 202.692,115.692 203.5,116C 201.515,117.997 199.181,118.664 196.5,118C 197.572,116.716 198.905,116.383 200.5,117C 197,114.167 193.5,111.333 190,108.5C 189.51,109.793 189.343,111.127 189.5,112.5C 186.653,112.782 183.987,112.782 181.5,112.5C 180.169,113.592 179.336,114.926 179,116.5C 177.48,114.165 175.98,114.332 174.5,117C 178.525,118.572 178.358,119.739 174,120.5C 173.658,118.381 172.825,118.047 171.5,119.5C 174.325,112.516 177.659,105.849 181.5,99.5C 182.117,99.3893 182.617,99.056 183,98.5C 184.848,100.018 186.348,101.851 187.5,104C 186.428,105.284 185.095,105.617 183.5,105C 184.833,105.667 184.833,106.333 183.5,107C 186.723,105.824 189.723,104.658 192.5,103.5C 194.394,104.601 195.061,105.934 194.5,107.5C 195.244,106.009 195.91,104.509 196.5,103C 194.986,101.561 194.653,100.061 195.5,98.5C 196.897,100.606 198.73,102.273 201,103.5C 201.75,102.874 202.584,102.374 203.5,102C 201.616,101.784 199.949,101.117 198.5,100C 199.969,96.0701 201.136,95.9034 202,99.5C 202.388,98.572 203.055,97.9054 204,97.5C 205.988,97.5246 207.988,97.5246 210,97.5C 210.333,96.5 210.667,95.5 211,94.5C 213.101,95.9245 215.267,97.2578 217.5,98.5C 218.873,96.7935 220.539,95.4602 222.5,94.5 Z"/></g>
<g><path style="opacity:1" fill="#6a899d" d="M 216.5,116.5 C 216.541,118.745 217.375,119.412 219,118.5C 221.158,119.826 222.992,121.493 224.5,123.5C 224.333,123.833 224.167,124.167 224,124.5C 219.618,119.126 217.618,119.46 218,125.5C 214.943,126.529 214.943,127.862 218,129.5C 218.667,130.5 218.667,131.5 218,132.5C 216.502,130.386 214.669,129.886 212.5,131C 213.328,130.085 214.328,129.419 215.5,129C 213.459,127.259 211.292,127.092 209,128.5C 208.667,127.833 208.333,127.167 208,126.5C 206.493,130.68 204.993,131.014 203.5,127.5C 201.443,128.822 199.61,128.489 198,126.5C 196.989,126.892 196.489,127.559 196.5,128.5C 194.941,127.926 193.441,127.26 192,126.5C 190.482,126.057 189.315,126.724 188.5,128.5C 188.851,126.797 188.184,125.13 186.5,123.5C 187.262,123.089 188.262,122.923 189.5,123C 188.335,121.916 187.002,121.083 185.5,120.5C 184.803,123.344 183.636,123.011 182,119.5C 182.088,122.642 183.588,125.142 186.5,127C 185.167,127.667 183.833,128.333 182.5,129C 183.956,129.423 184.456,130.256 184,131.5C 182.082,130.458 180.249,129.292 178.5,128C 181.167,127.333 181.167,126.667 178.5,126C 181.649,125.224 182.149,123.724 180,121.5C 177.378,125.785 173.544,127.952 168.5,128C 169.672,128.419 170.672,129.085 171.5,130C 169.192,130.991 166.859,131.824 164.5,132.5C 166.074,127.68 168.407,123.347 171.5,119.5C 172.825,118.047 173.658,118.381 174,120.5C 178.358,119.739 178.525,118.572 174.5,117C 175.98,114.332 177.48,114.165 179,116.5C 179.336,114.926 180.169,113.592 181.5,112.5C 183.987,112.782 186.653,112.782 189.5,112.5C 189.343,111.127 189.51,109.793 190,108.5C 193.5,111.333 197,114.167 200.5,117C 198.905,116.383 197.572,116.716 196.5,118C 199.181,118.664 201.515,117.997 203.5,116C 202.692,115.692 202.025,115.192 201.5,114.5C 202.103,113.365 202.436,112.365 202.5,111.5C 203.85,113.735 205.35,115.068 207,115.5C 207.863,113.251 207.363,111.418 205.5,110C 206.5,109.167 207.5,108.333 208.5,107.5C 207.5,106.667 206.5,105.833 205.5,105C 207.403,104.226 209.07,104.56 210.5,106C 210.323,109.227 211.99,111.56 215.5,113C 215.167,113.333 214.833,113.667 214.5,114C 215.756,114.417 216.423,115.25 216.5,116.5 Z"/></g>
<g><path style="opacity:1" fill="#778998" d="M 376.5,126.5 C 376.649,127.552 376.483,128.552 376,129.5C 371.5,133.333 367,137.167 362.5,141C 360.565,140.942 358.898,140.109 357.5,138.5C 363.628,134.264 369.962,130.264 376.5,126.5 Z"/></g>
<g><path style="opacity:0.949" fill="#2c3c4a" d="M 43.5,101.5 C 49.4566,105.457 55.1233,109.79 60.5,114.5C 59.8826,114.611 59.3826,114.944 59,115.5C 56.5333,113.198 53.7,111.531 50.5,110.5C 48.703,109.305 47.703,107.638 47.5,105.5C 44.8732,105.293 43.2065,106.46 42.5,109C 44.2426,110.837 46.2426,112.504 48.5,114C 47.376,114.249 46.376,114.749 45.5,115.5C 47.7827,116.135 49.4493,117.468 50.5,119.5C 50.4258,124.74 50.2591,130.074 50,135.5C 48.9326,136.191 47.7659,136.691 46.5,137C 47.2931,138.085 47.9598,139.252 48.5,140.5C 47.4798,142.432 47.3131,144.432 48,146.5C 48.6695,144.41 49.8361,142.743 51.5,141.5C 50.9448,145.397 49.9448,149.063 48.5,152.5C 48.7692,150.571 48.2692,148.905 47,147.5C 45.483,151.234 43.8163,154.901 42,158.5C 39.6731,167.074 37.3397,175.741 35,184.5C 34.6667,182.167 34.3333,179.833 34,177.5C 33.7679,178.737 33.2679,179.737 32.5,180.5C 35.6623,165.849 38.8289,151.182 42,136.5C 44.7717,126.811 43.9384,117.478 39.5,108.5C 40.0864,105.651 41.4197,103.318 43.5,101.5 Z"/></g>
<g><path style="opacity:1" fill="#8296a4" d="M 62.5,115.5 C 65.5927,117.207 68.926,118.707 72.5,120C 81.3484,126.799 90.3484,132.633 99.5,137.5C 98.5213,139.145 97.188,140.479 95.5,141.5C 87.3195,135.575 79.3195,129.409 71.5,123C 69.7834,121.441 67.7834,120.608 65.5,120.5C 65.2785,118.336 64.2785,116.67 62.5,115.5 Z"/></g>
<g><path style="opacity:1" fill="#547386" d="M 228.5,123.5 C 228.339,126.81 228.339,129.81 228.5,132.5C 228.5,140.5 228.5,148.5 228.5,156.5C 228.167,157.167 227.833,157.833 227.5,158.5C 226.522,158.189 225.855,157.522 225.5,156.5C 226.641,155.575 226.641,154.741 225.5,154C 227.781,152.518 227.781,150.851 225.5,149C 225.833,148.667 226.167,148.333 226.5,148C 222.229,145.526 217.896,143.359 213.5,141.5C 212.753,145.193 211.42,145.193 209.5,141.5C 210.355,140.707 211.189,141.04 212,142.5C 212.492,141.451 212.326,140.451 211.5,139.5C 209.07,137.444 206.403,136.277 203.5,136C 204.833,137 206.167,138 207.5,139C 205.983,140.685 204.316,142.185 202.5,143.5C 201.522,143.023 200.689,142.357 200,141.5C 199.552,143.409 200.385,144.576 202.5,145C 201.833,145.333 201.167,145.667 200.5,146C 201.678,146.967 203.011,147.467 204.5,147.5C 205.192,146.975 205.692,146.308 206,145.5C 206.748,147.332 207.748,148.999 209,150.5C 210.84,149.167 211.34,149.334 210.5,151C 211,151.5 211.5,152 212,152.5C 213,151.167 214,151.167 215,152.5C 215.838,151.001 216.671,150.668 217.5,151.5C 217.262,153.645 216.262,155.312 214.5,156.5C 212.517,155.018 210.684,153.351 209,151.5C 208.5,152 208,152.5 207.5,153C 209.864,154.012 211.198,155.345 211.5,157C 209.311,157.322 207.311,156.822 205.5,155.5C 204.737,154.732 203.737,154.232 202.5,154C 204.615,153.576 205.448,152.409 205,150.5C 203.082,149.458 201.249,148.292 199.5,147C 197.443,146.695 195.443,146.695 193.5,147C 193.167,146.667 192.833,146.333 192.5,146C 193.448,145.517 194.448,145.351 195.5,145.5C 195.649,144.448 195.483,143.448 195,142.5C 193.951,143.517 192.784,143.684 191.5,143C 192.545,141.384 193.545,139.717 194.5,138C 193.551,137.383 192.718,137.549 192,138.5C 191.692,137.692 191.192,137.025 190.5,136.5C 190.089,137.262 189.923,138.262 190,139.5C 187.843,137.282 185.343,136.115 182.5,136C 184.96,137.458 187.127,139.291 189,141.5C 189.595,142.899 189.428,144.232 188.5,145.5C 189.263,146.719 190.263,147.719 191.5,148.5C 191.167,148.833 190.833,149.167 190.5,149.5C 189.126,148.289 187.626,147.289 186,146.5C 184.211,147.409 182.377,147.576 180.5,147C 182.007,146.163 182.507,144.996 182,143.5C 180.294,140.726 178.294,139.059 176,138.5C 175.097,139.701 173.931,140.535 172.5,141C 171.761,142.765 171.761,144.765 172.5,147C 171.5,147.333 170.5,147.667 169.5,148C 171.376,149.017 173.376,149.851 175.5,150.5C 175.167,150.833 174.833,151.167 174.5,151.5C 171.057,150.251 167.723,150.584 164.5,152.5C 164.415,151.068 163.415,149.735 161.5,148.5C 158.972,149.517 158.972,150.684 161.5,152C 158.905,152.741 156.239,153.241 153.5,153.5C 156.421,145.988 160.087,138.988 164.5,132.5C 166.859,131.824 169.192,130.991 171.5,130C 170.672,129.085 169.672,128.419 168.5,128C 173.544,127.952 177.378,125.785 180,121.5C 182.149,123.724 181.649,125.224 178.5,126C 181.167,126.667 181.167,127.333 178.5,128C 180.249,129.292 182.082,130.458 184,131.5C 184.456,130.256 183.956,129.423 182.5,129C 183.833,128.333 185.167,127.667 186.5,127C 183.588,125.142 182.088,122.642 182,119.5C 183.636,123.011 184.803,123.344 185.5,120.5C 187.002,121.083 188.335,121.916 189.5,123C 188.262,122.923 187.262,123.089 186.5,123.5C 188.184,125.13 188.851,126.797 188.5,128.5C 189.315,126.724 190.482,126.057 192,126.5C 193.441,127.26 194.941,127.926 196.5,128.5C 196.489,127.559 196.989,126.892 198,126.5C 199.61,128.489 201.443,128.822 203.5,127.5C 204.993,131.014 206.493,130.68 208,126.5C 208.333,127.167 208.667,127.833 209,128.5C 211.292,127.092 213.459,127.259 215.5,129C 214.328,129.419 213.328,130.085 212.5,131C 214.669,129.886 216.502,130.386 218,132.5C 218.667,131.5 218.667,130.5 218,129.5C 214.943,127.862 214.943,126.529 218,125.5C 217.618,119.46 219.618,119.126 224,124.5C 224.167,124.167 224.333,123.833 224.5,123.5C 222.992,121.493 221.158,119.826 219,118.5C 217.375,119.412 216.541,118.745 216.5,116.5C 217.626,115.286 218.959,114.286 220.5,113.5C 223.492,113.98 224.659,115.647 224,118.5C 222.964,115.706 221.464,115.206 219.5,117C 222.883,118.686 225.883,120.853 228.5,123.5 Z"/></g>
<g><path style="opacity:1" fill="#415d71" d="M 227.5,158.5 C 228.331,163.491 228.664,168.491 228.5,173.5C 226.501,174.857 225.335,174.19 225,171.5C 219.171,174.655 215.838,172.988 215,166.5C 217.106,170.983 220.273,172.15 224.5,170C 222.687,170.046 221.021,169.88 219.5,169.5C 218.687,168.186 217.687,167.019 216.5,166C 217.191,164.933 217.691,163.766 218,162.5C 218.689,163.357 219.522,164.023 220.5,164.5C 221.696,164.154 221.696,163.654 220.5,163C 222.568,163.017 224.234,164.017 225.5,166C 224.262,165.923 223.262,166.089 222.5,166.5C 223.325,167.386 224.325,167.719 225.5,167.5C 226.455,170.263 226.622,169.263 226,164.5C 224.833,163.333 223.667,162.167 222.5,161C 223.996,160.493 225.163,160.993 226,162.5C 226.167,162.167 226.333,161.833 226.5,161.5C 225.008,159.844 223.342,158.344 221.5,157C 222.634,155.984 222.301,155.317 220.5,155C 221.167,154.667 221.833,154.333 222.5,154C 220.807,153.153 219.14,152.32 217.5,151.5C 216.671,150.668 215.838,151.001 215,152.5C 214,151.167 213,151.167 212,152.5C 211.5,152 211,151.5 210.5,151C 211.34,149.334 210.84,149.167 209,150.5C 207.748,148.999 206.748,147.332 206,145.5C 205.692,146.308 205.192,146.975 204.5,147.5C 203.011,147.467 201.678,146.967 200.5,146C 201.167,145.667 201.833,145.333 202.5,145C 200.385,144.576 199.552,143.409 200,141.5C 200.689,142.357 201.522,143.023 202.5,143.5C 204.316,142.185 205.983,140.685 207.5,139C 206.167,138 204.833,137 203.5,136C 206.403,136.277 209.07,137.444 211.5,139.5C 212.326,140.451 212.492,141.451 212,142.5C 211.189,141.04 210.355,140.707 209.5,141.5C 211.42,145.193 212.753,145.193 213.5,141.5C 217.896,143.359 222.229,145.526 226.5,148C 226.167,148.333 225.833,148.667 225.5,149C 227.781,150.851 227.781,152.518 225.5,154C 226.641,154.741 226.641,155.575 225.5,156.5C 225.855,157.522 226.522,158.189 227.5,158.5 Z"/></g>
<g><path style="opacity:1" fill="#131e2b" d="M 60.5,114.5 C 61.1667,114.833 61.8333,115.167 62.5,115.5C 64.2785,116.67 65.2785,118.336 65.5,120.5C 67.7834,120.608 69.7834,121.441 71.5,123C 79.3195,129.409 87.3195,135.575 95.5,141.5C 97.188,140.479 98.5213,139.145 99.5,137.5C 100.496,137.414 101.329,137.748 102,138.5C 102.473,136.221 103.473,134.221 105,132.5C 105.708,133.381 106.542,134.047 107.5,134.5C 109.548,136.456 110.548,138.956 110.5,142C 104.007,161.827 93.1741,164.66 78,150.5C 78.2148,147.189 78.2148,143.856 78,140.5C 72.5319,136.033 67.3653,131.2 62.5,126C 60.4732,124.121 58.1398,122.954 55.5,122.5C 54.3167,128.895 52.9834,135.229 51.5,141.5C 49.8361,142.743 48.6695,144.41 48,146.5C 47.3131,144.432 47.4798,142.432 48.5,140.5C 47.9598,139.252 47.2931,138.085 46.5,137C 47.7659,136.691 48.9326,136.191 50,135.5C 50.2591,130.074 50.4258,124.74 50.5,119.5C 49.4493,117.468 47.7827,116.135 45.5,115.5C 46.376,114.749 47.376,114.249 48.5,114C 46.2426,112.504 44.2426,110.837 42.5,109C 43.2065,106.46 44.8732,105.293 47.5,105.5C 47.703,107.638 48.703,109.305 50.5,110.5C 53.7,111.531 56.5333,113.198 59,115.5C 59.3826,114.944 59.8826,114.611 60.5,114.5 Z"/></g>
<g><path style="opacity:0.647" fill="#2e3f4e" d="M 356.5,139.5 C 356.34,143.236 355.507,143.236 354,139.5C 352.833,140.667 351.667,141.833 350.5,143C 351.63,146.81 353.63,150.143 356.5,153C 355.619,153.708 354.953,154.542 354.5,155.5C 350.606,151.712 348.272,147.045 347.5,141.5C 347.8,138.234 349.133,135.567 351.5,133.5C 352.117,133.389 352.617,133.056 353,132.5C 353.139,135.445 354.306,137.779 356.5,139.5 Z"/></g>
<g><path style="opacity:1" fill="#122330" d="M 285.5,124.5 C 287.086,126.081 288.086,128.081 288.5,130.5C 288.291,131.086 287.957,131.586 287.5,132C 289.709,133.144 292.043,133.977 294.5,134.5C 300.672,144.842 306.339,155.509 311.5,166.5C 311.631,167.239 311.464,167.906 311,168.5C 309.305,167.843 307.472,167.843 305.5,168.5C 303.956,168.21 302.623,167.544 301.5,166.5C 299.883,167.642 298.05,168.309 296,168.5C 291.586,167.602 287.253,167.269 283,167.5C 279.999,168.286 279.166,169.953 280.5,172.5C 278.263,173.449 275.929,174.116 273.5,174.5C 273.657,175.873 273.49,177.207 273,178.5C 270.978,179.802 269.478,181.468 268.5,183.5C 266.492,182.699 265.992,181.366 267,179.5C 266,178.833 265,178.167 264,177.5C 262.599,179.192 260.766,179.859 258.5,179.5C 258.33,178.178 258.663,177.011 259.5,176C 261.936,176.053 264.269,175.887 266.5,175.5C 265.167,174.5 263.833,173.5 262.5,172.5C 263.833,171.167 263.833,169.833 262.5,168.5C 264.167,167.167 265.833,165.833 267.5,164.5C 264.667,164.418 261.667,164.252 258.5,164C 257.007,162.844 257.174,162.01 259,161.5C 264.255,163.767 264.588,163.1 260,159.5C 257.167,160.87 254.5,160.536 252,158.5C 252,159.833 252,161.167 252,162.5C 251.586,162.043 251.086,161.709 250.5,161.5C 248.089,162.454 245.923,163.788 244,165.5C 242.135,163.479 239.968,161.813 237.5,160.5C 238.948,159.646 240.281,158.646 241.5,157.5C 246.837,158.13 246.837,157.464 241.5,155.5C 240.086,156.624 238.586,157.624 237,158.5C 236.082,155.937 236.582,153.77 238.5,152C 237.887,149.853 237.221,147.686 236.5,145.5C 236.287,150.387 235.62,155.387 234.5,160.5C 234.331,158.883 233.997,157.216 233.5,155.5C 232.92,157.637 231.92,159.47 230.5,161C 233.167,162 233.167,163 230.5,164C 230.077,171.967 230.077,179.301 230.5,186C 229.934,186.995 229.267,187.828 228.5,188.5C 227.051,186.836 225.051,186.002 222.5,186C 224.473,185.505 226.473,185.338 228.5,185.5C 228.5,181.5 228.5,177.5 228.5,173.5C 228.664,168.491 228.331,163.491 227.5,158.5C 227.833,157.833 228.167,157.167 228.5,156.5C 229.321,153.359 229.821,150.025 230,146.5C 231.885,145.687 232.551,144.353 232,142.5C 231.692,143.308 231.192,143.975 230.5,144.5C 229.255,143.045 229.422,141.711 231,140.5C 231.893,141.711 232.726,141.711 233.5,140.5C 232.02,138.78 230.686,136.947 229.5,135C 230.472,132.889 231.305,130.722 232,128.5C 232.29,130.044 232.956,131.377 234,132.5C 234.617,131.551 234.451,130.718 233.5,130C 236.865,129.468 239.198,127.634 240.5,124.5C 241.086,124.709 241.586,125.043 242,125.5C 242.772,124.151 243.939,123.318 245.5,123C 243.277,122.348 242.11,120.848 242,118.5C 240.293,119.138 238.46,119.138 236.5,118.5C 236.413,121.598 236.913,121.932 238,119.5C 239.011,120.337 240.178,120.67 241.5,120.5C 241.649,121.552 241.483,122.552 241,123.5C 239.484,120.949 238.651,121.282 238.5,124.5C 237.5,124.5 236.5,124.5 235.5,124.5C 235.014,122.193 235.014,120.027 235.5,118C 236.854,116.706 238.188,116.54 239.5,117.5C 242.433,115.267 245.266,113.601 248,112.5C 249.632,114.027 249.799,115.693 248.5,117.5C 247.167,117.167 245.833,116.833 244.5,116.5C 243.255,117.955 243.422,119.289 245,120.5C 246.488,118.18 248.321,118.013 250.5,120C 248.099,120.805 248.266,121.638 251,122.5C 253.498,120.583 256.165,118.916 259,117.5C 260.721,119.711 262.721,121.711 265,123.5C 265.333,121.953 264.833,120.62 263.5,119.5C 264.833,119.167 266.167,118.833 267.5,118.5C 266.674,117.549 266.508,116.549 267,115.5C 267.833,117 269,118.167 270.5,119C 269.09,119.368 268.09,120.201 267.5,121.5C 269.021,121.88 270.687,122.046 272.5,122C 272.167,122.333 271.833,122.667 271.5,123C 276.468,124.313 276.468,126.146 271.5,128.5C 272.274,129.711 273.107,129.711 274,128.5C 274.465,129.931 275.299,131.097 276.5,132C 275.289,132.893 275.289,133.726 276.5,134.5C 277.251,133.624 277.751,132.624 278,131.5C 279.011,132.337 280.178,132.67 281.5,132.5C 281.587,129.402 281.087,129.068 280,131.5C 278.823,129.824 277.323,128.491 275.5,127.5C 276.498,124.972 277.331,124.972 278,127.5C 278.631,126.128 279.298,124.795 280,123.5C 280.5,123.667 281,123.833 281.5,124C 280.549,124.718 280.383,125.551 281,126.5C 282.11,124.963 283.61,124.297 285.5,124.5 Z"/></g>
<g><path style="opacity:1" fill="#37556b" d="M 205.5,155.5 C 205.414,156.496 205.748,157.329 206.5,158C 203.772,158.639 203.272,159.806 205,161.5C 208.228,157.556 210.228,157.556 211,161.5C 212.314,160.687 213.481,159.687 214.5,158.5C 215.086,158.709 215.586,159.043 216,159.5C 217.337,158.235 218.837,157.735 220.5,158C 218.999,159.252 217.332,160.252 215.5,161C 214.91,162.509 214.244,164.009 213.5,165.5C 212.914,165.291 212.414,164.957 212,164.5C 211.581,165.672 210.915,166.672 210,167.5C 208.371,166.435 207.204,165.101 206.5,163.5C 205.186,164.313 204.019,165.313 203,166.5C 200.585,166.929 198.252,166.262 196,164.5C 193.868,164.677 192.868,165.677 193,167.5C 195.083,169.756 197.25,171.756 199.5,173.5C 198.207,175.296 196.707,176.963 195,178.5C 194.667,178.167 194.333,177.833 194,177.5C 192.606,179.388 191.44,181.388 190.5,183.5C 188.77,215.157 187.77,247.157 187.5,279.5C 187.623,285.444 188.29,291.277 189.5,297C 188.346,297.914 188.513,298.747 190,299.5C 190.278,298.584 190.778,297.918 191.5,297.5C 191.771,299.43 192.771,300.764 194.5,301.5C 195.167,302.5 195.833,303.5 196.5,304.5C 194.716,304.107 193.05,303.441 191.5,302.5C 190.312,301.636 189.145,300.636 188,299.5C 187.802,301.382 187.302,303.048 186.5,304.5C 186.5,260.167 186.5,215.833 186.5,171.5C 181.637,171.181 176.97,171.514 172.5,172.5C 159.562,177.035 146.562,181.368 133.5,185.5C 133.5,186.5 133.5,187.5 133.5,188.5C 132.566,189.568 132.232,190.901 132.5,192.5C 130.797,190.149 130.297,187.482 131,184.5C 133.462,183.35 135.796,182.017 138,180.5C 143.03,171.332 148.197,162.332 153.5,153.5C 156.239,153.241 158.905,152.741 161.5,152C 158.972,150.684 158.972,149.517 161.5,148.5C 163.415,149.735 164.415,151.068 164.5,152.5C 167.723,150.584 171.057,150.251 174.5,151.5C 174.833,151.167 175.167,150.833 175.5,150.5C 173.376,149.851 171.376,149.017 169.5,148C 170.5,147.667 171.5,147.333 172.5,147C 171.761,144.765 171.761,142.765 172.5,141C 173.931,140.535 175.097,139.701 176,138.5C 178.294,139.059 180.294,140.726 182,143.5C 182.507,144.996 182.007,146.163 180.5,147C 182.377,147.576 184.211,147.409 186,146.5C 187.626,147.289 189.126,148.289 190.5,149.5C 190.833,149.167 191.167,148.833 191.5,148.5C 190.263,147.719 189.263,146.719 188.5,145.5C 189.428,144.232 189.595,142.899 189,141.5C 187.127,139.291 184.96,137.458 182.5,136C 185.343,136.115 187.843,137.282 190,139.5C 189.923,138.262 190.089,137.262 190.5,136.5C 191.192,137.025 191.692,137.692 192,138.5C 192.718,137.549 193.551,137.383 194.5,138C 193.545,139.717 192.545,141.384 191.5,143C 192.784,143.684 193.951,143.517 195,142.5C 195.483,143.448 195.649,144.448 195.5,145.5C 194.448,145.351 193.448,145.517 192.5,146C 192.833,146.333 193.167,146.667 193.5,147C 195.443,146.695 197.443,146.695 199.5,147C 201.249,148.292 203.082,149.458 205,150.5C 205.448,152.409 204.615,153.576 202.5,154C 203.737,154.232 204.737,154.732 205.5,155.5 Z"/></g>
<g><path style="opacity:1" fill="#0b1824" d="M 268.5,183.5 C 266.177,187.009 264.011,190.676 262,194.5C 261.333,193.167 260.667,193.167 260,194.5C 257.009,206.315 251.175,216.482 242.5,225C 239.638,230.516 236.805,236.016 234,241.5C 233.667,241.167 233.333,240.833 233,240.5C 230.66,243.512 228.327,246.512 226,249.5C 225.038,255.626 224.538,261.793 224.5,268C 224.51,272.229 225.177,276.062 226.5,279.5C 226.833,279.5 227.167,279.5 227.5,279.5C 227.5,279.833 227.5,280.167 227.5,280.5C 224.476,280.947 224.143,281.78 226.5,283C 223.937,283.763 223.937,284.263 226.5,284.5C 245.472,283.525 264.472,283.191 283.5,283.5C 283.325,285.621 283.659,287.621 284.5,289.5C 282.651,290.593 280.984,291.926 279.5,293.5C 277.742,293.877 276.075,294.544 274.5,295.5C 273.719,294.271 273.219,292.938 273,291.5C 272.333,292.833 271.667,292.833 271,291.5C 270.517,292.448 270.351,293.448 270.5,294.5C 267.774,294.264 265.441,295.097 263.5,297C 266.124,297.576 266.791,298.91 265.5,301C 262.705,302.3 260.039,303.8 257.5,305.5C 256.152,303.539 254.819,303.372 253.5,305C 254.741,306.487 254.241,307.32 252,307.5C 250.674,307.245 249.674,306.578 249,305.5C 246.989,309.002 245.656,309.002 245,305.5C 243.684,308.028 242.517,308.028 241.5,305.5C 236.645,308.771 231.311,309.938 225.5,309C 224.944,308.617 224.611,308.117 224.5,307.5C 228.688,308.899 232.688,308.399 236.5,306C 244.915,300.462 253.582,295.462 262.5,291C 265.02,289.237 267.353,287.237 269.5,285C 257.167,284.333 244.833,284.333 232.5,285C 227.119,287.156 223.119,285.656 220.5,280.5C 220.709,279.914 221.043,279.414 221.5,279C 220.315,277.647 218.981,276.48 217.5,275.5C 218.167,274.833 218.833,274.167 219.5,273.5C 218.324,267.584 218.657,261.75 220.5,256C 218.06,254.62 216.227,255.453 215,258.5C 213.296,262.842 213.463,267.009 215.5,271C 213.702,272.505 211.868,272.672 210,271.5C 210.027,273.417 210.861,275.084 212.5,276.5C 210.559,278.834 208.893,281.334 207.5,284C 203.147,284.533 202.814,284.199 206.5,283C 205.386,281.43 204.053,280.097 202.5,279C 203.624,278.751 204.624,278.251 205.5,277.5C 204.137,276.107 203.304,274.441 203,272.5C 202.107,271.289 201.274,271.289 200.5,272.5C 203.471,277.519 202.138,279.519 196.5,278.5C 197.376,277.749 198.376,277.249 199.5,277C 198.359,276.259 198.359,275.425 199.5,274.5C 198.923,272.45 197.59,271.45 195.5,271.5C 195.18,260.918 195.513,250.418 196.5,240C 195.234,239.691 194.067,239.191 193,238.5C 192.667,238.833 192.333,239.167 192,239.5C 191.5,255.497 191.333,271.497 191.5,287.5C 190.473,263.665 190.473,239.665 191.5,215.5C 192.302,214.048 192.802,212.382 193,210.5C 194.588,212.808 196.588,213.475 199,212.5C 201.734,213.362 201.901,214.195 199.5,215C 205.888,217.013 205.888,218.679 199.5,220C 200.833,220.667 200.833,221.333 199.5,222C 200.744,222.456 201.577,221.956 202,220.5C 204.26,221.673 206.426,223.006 208.5,224.5C 210.946,223.017 210.612,221.851 207.5,221C 208.646,220.355 209.646,219.522 210.5,218.5C 213.028,219.498 213.028,220.331 210.5,221C 211.687,222.019 212.687,223.186 213.5,224.5C 211.713,225.316 210.046,226.316 208.5,227.5C 209.167,228.167 209.833,228.833 210.5,229.5C 215.269,229.025 219.936,229.525 224.5,231C 221.218,227.015 217.385,226.515 213,229.5C 212.5,229.167 212,228.833 211.5,228.5C 214.043,227.197 216.71,226.197 219.5,225.5C 221.291,227.46 223.457,228.793 226,229.5C 226.333,230.833 226.667,232.167 227,233.5C 228.465,219.598 228.965,205.598 228.5,191.5C 228.5,190.5 228.5,189.5 228.5,188.5C 229.267,187.828 229.934,186.995 230.5,186C 230.077,179.301 230.077,171.967 230.5,164C 233.167,163 233.167,162 230.5,161C 231.92,159.47 232.92,157.637 233.5,155.5C 233.997,157.216 234.331,158.883 234.5,160.5C 235.62,155.387 236.287,150.387 236.5,145.5C 237.221,147.686 237.887,149.853 238.5,152C 236.582,153.77 236.082,155.937 237,158.5C 238.586,157.624 240.086,156.624 241.5,155.5C 246.837,157.464 246.837,158.13 241.5,157.5C 240.281,158.646 238.948,159.646 237.5,160.5C 239.968,161.813 242.135,163.479 244,165.5C 245.923,163.788 248.089,162.454 250.5,161.5C 251.086,161.709 251.586,162.043 252,162.5C 252,161.167 252,159.833 252,158.5C 254.5,160.536 257.167,160.87 260,159.5C 264.588,163.1 264.255,163.767 259,161.5C 257.174,162.01 257.007,162.844 258.5,164C 261.667,164.252 264.667,164.418 267.5,164.5C 265.833,165.833 264.167,167.167 262.5,168.5C 263.833,169.833 263.833,171.167 262.5,172.5C 263.833,173.5 265.167,174.5 266.5,175.5C 264.269,175.887 261.936,176.053 259.5,176C 258.663,177.011 258.33,178.178 258.5,179.5C 260.766,179.859 262.599,179.192 264,177.5C 265,178.167 266,178.833 267,179.5C 265.992,181.366 266.492,182.699 268.5,183.5 Z"/></g>
<g><path style="opacity:1" fill="#2c4557" d="M 217.5,151.5 C 219.14,152.32 220.807,153.153 222.5,154C 221.833,154.333 221.167,154.667 220.5,155C 222.301,155.317 222.634,155.984 221.5,157C 223.342,158.344 225.008,159.844 226.5,161.5C 226.333,161.833 226.167,162.167 226,162.5C 225.163,160.993 223.996,160.493 222.5,161C 223.667,162.167 224.833,163.333 226,164.5C 226.622,169.263 226.455,170.263 225.5,167.5C 224.325,167.719 223.325,167.386 222.5,166.5C 223.262,166.089 224.262,165.923 225.5,166C 224.234,164.017 222.568,163.017 220.5,163C 221.696,163.654 221.696,164.154 220.5,164.5C 219.522,164.023 218.689,163.357 218,162.5C 217.691,163.766 217.191,164.933 216.5,166C 217.687,167.019 218.687,168.186 219.5,169.5C 221.021,169.88 222.687,170.046 224.5,170C 220.273,172.15 217.106,170.983 215,166.5C 215.838,172.988 219.171,174.655 225,171.5C 225.335,174.19 226.501,174.857 228.5,173.5C 228.5,177.5 228.5,181.5 228.5,185.5C 226.473,185.338 224.473,185.505 222.5,186C 225.051,186.002 227.051,186.836 228.5,188.5C 228.5,189.5 228.5,190.5 228.5,191.5C 226.574,192.242 224.741,193.242 223,194.5C 221.933,193.809 220.766,193.309 219.5,193C 220.938,192.781 222.271,192.281 223.5,191.5C 222.349,190.269 221.183,190.269 220,191.5C 218.209,189.487 216.875,189.487 216,191.5C 213.692,190.123 212.192,188.123 211.5,185.5C 212.582,185.251 213.915,185.085 215.5,185C 211.193,183.979 210.859,182.812 214.5,181.5C 215.687,182.894 216.354,182.727 216.5,181C 215.029,180.888 213.862,179.721 213,177.5C 211.559,178.87 209.892,179.87 208,180.5C 205.985,182.473 206.152,184.14 208.5,185.5C 207.711,187.488 206.545,187.821 205,186.5C 204.667,187.167 204.333,187.833 204,188.5C 202.839,185.349 200.672,183.849 197.5,184C 198.833,185 200.167,186 201.5,187C 200.289,188.113 200.289,189.28 201.5,190.5C 200.635,191.583 199.635,191.749 198.5,191C 199.634,189.984 199.301,189.317 197.5,189C 198.167,188.333 198.833,187.667 199.5,187C 196.888,185.721 194.555,184.055 192.5,182C 193.833,182 195.167,182 196.5,182C 196.167,181.667 195.833,181.333 195.5,181C 197.684,178.984 199.684,176.817 201.5,174.5C 201.043,173.702 200.376,173.369 199.5,173.5C 197.25,171.756 195.083,169.756 193,167.5C 192.868,165.677 193.868,164.677 196,164.5C 198.252,166.262 200.585,166.929 203,166.5C 204.019,165.313 205.186,164.313 206.5,163.5C 207.204,165.101 208.371,166.435 210,167.5C 210.915,166.672 211.581,165.672 212,164.5C 212.414,164.957 212.914,165.291 213.5,165.5C 214.244,164.009 214.91,162.509 215.5,161C 217.332,160.252 218.999,159.252 220.5,158C 218.837,157.735 217.337,158.235 216,159.5C 215.586,159.043 215.086,158.709 214.5,158.5C 213.481,159.687 212.314,160.687 211,161.5C 210.228,157.556 208.228,157.556 205,161.5C 203.272,159.806 203.772,158.639 206.5,158C 205.748,157.329 205.414,156.496 205.5,155.5C 207.311,156.822 209.311,157.322 211.5,157C 211.198,155.345 209.864,154.012 207.5,153C 208,152.5 208.5,152 209,151.5C 210.684,153.351 212.517,155.018 214.5,156.5C 216.262,155.312 217.262,153.645 217.5,151.5 Z"/></g>
<g><path style="opacity:1" fill="#fafdfc" d="M 172.5,172.5 C 176.833,172.5 181.167,172.5 185.5,172.5C 185.5,216.5 185.5,260.5 185.5,304.5C 177.5,304.5 169.5,304.5 161.5,304.5C 161.833,269.494 161.5,234.494 160.5,199.5C 159.893,199.624 159.56,199.957 159.5,200.5C 152.833,202.5 146.167,204.5 139.5,206.5C 137.497,200.483 135.497,194.483 133.5,188.5C 133.5,187.5 133.5,186.5 133.5,185.5C 146.562,181.368 159.562,177.035 172.5,172.5 Z"/></g>
<g><path style="opacity:1" fill="#f9fdfc" d="M 313.5,255.5 C 318.975,256.489 324.642,256.822 330.5,256.5C 330.5,263.833 330.5,271.167 330.5,278.5C 324.5,278.5 318.5,278.5 312.5,278.5C 312.5,287.167 312.5,295.833 312.5,304.5C 304.5,304.5 296.5,304.5 288.5,304.5C 288.5,296.167 288.5,287.833 288.5,279.5C 268.34,278.503 248.007,278.17 227.5,278.5C 227.5,271.167 227.5,263.833 227.5,256.5C 245.651,229.544 263.318,202.21 280.5,174.5C 291.085,173.524 301.752,173.191 312.5,173.5C 312.169,201.005 312.502,228.338 313.5,255.5 Z"/></g>
<g><path style="opacity:0.106" fill="#909aa7" d="M 320.5,184.5 C 323.341,188.849 325.674,193.516 327.5,198.5C 324.126,194.419 321.793,189.753 320.5,184.5 Z"/></g>
<g><path style="opacity:0.118" fill="#a0bdda" d="M 132.5,192.5 C 133.648,194.915 132.982,196.915 130.5,198.5C 131.167,196.5 131.833,194.5 132.5,192.5 Z"/></g>
<g><path style="opacity:1" fill="#7d98aa" d="M 280.5,172.5 C 291.5,172.5 302.5,172.5 313.5,172.5C 313.5,200.167 313.5,227.833 313.5,255.5C 312.502,228.338 312.169,201.005 312.5,173.5C 301.752,173.191 291.085,173.524 280.5,174.5C 280.5,173.833 280.5,173.167 280.5,172.5 Z"/></g>
<g><path style="opacity:1" fill="#09101b" d="M 319.5,184.5 C 319.833,184.5 320.167,184.5 320.5,184.5C 321.793,189.753 324.126,194.419 327.5,198.5C 334.272,211.209 340.939,224.042 347.5,237C 346.513,239.321 344.846,240.987 342.5,242C 337.652,244.256 332.985,246.756 328.5,249.5C 328.167,249.5 327.833,249.5 327.5,249.5C 324.552,249.777 321.719,249.444 319,248.5C 318.171,226.996 318.337,205.663 319.5,184.5 Z"/></g>
<g><path style="opacity:1" fill="#afcadd" d="M 172.5,172.5 C 176.97,171.514 181.637,171.181 186.5,171.5C 186.5,215.833 186.5,260.167 186.5,304.5C 186.167,304.5 185.833,304.5 185.5,304.5C 185.5,260.5 185.5,216.5 185.5,172.5C 181.167,172.5 176.833,172.5 172.5,172.5 Z"/></g>
<g><path style="opacity:1" fill="#091521" d="M 155.5,266.5 C 155.158,265.662 154.492,265.328 153.5,265.5C 142.489,259.331 131.822,252.664 121.5,245.5C 121.047,244.542 120.381,243.708 119.5,243C 120.5,242.667 121.5,242.333 122.5,242C 120.167,241.667 117.833,241.333 115.5,241C 118.86,240.306 120.86,238.306 121.5,235C 123.996,233.92 126.33,232.586 128.5,231C 127.833,230.333 127.167,229.667 126.5,229C 130.222,228.762 133.889,228.262 137.5,227.5C 137.833,227.167 138.167,226.833 138.5,226.5C 137.397,226.002 136.397,225.669 135.5,225.5C 136.09,224.201 137.09,223.368 138.5,223C 134.277,220.756 134.611,219.59 139.5,219.5C 138.948,217.669 138.948,216.003 139.5,214.5C 138.975,213.808 138.308,213.308 137.5,213C 139.167,212.667 140.833,212.333 142.5,212C 140.881,211.764 139.881,210.931 139.5,209.5C 140.833,209.5 142.167,209.5 143.5,209.5C 146.915,209.739 150.081,209.072 153,207.5C 155.188,207.354 156.521,208.354 157,210.5C 156.897,229.306 156.397,247.973 155.5,266.5 Z"/></g>
<g><path style="opacity:1" fill="#152431" d="M 133.5,188.5 C 135.497,194.483 137.497,200.483 139.5,206.5C 139.5,207.5 139.5,208.5 139.5,209.5C 139.881,210.931 140.881,211.764 142.5,212C 140.833,212.333 139.167,212.667 137.5,213C 138.308,213.308 138.975,213.808 139.5,214.5C 138.948,216.003 138.948,217.669 139.5,219.5C 134.611,219.59 134.277,220.756 138.5,223C 137.09,223.368 136.09,224.201 135.5,225.5C 136.397,225.669 137.397,226.002 138.5,226.5C 138.167,226.833 137.833,227.167 137.5,227.5C 133.889,228.262 130.222,228.762 126.5,229C 127.167,229.667 127.833,230.333 128.5,231C 126.33,232.586 123.996,233.92 121.5,235C 120.86,238.306 118.86,240.306 115.5,241C 117.833,241.333 120.167,241.667 122.5,242C 121.5,242.333 120.5,242.667 119.5,243C 120.381,243.708 121.047,244.542 121.5,245.5C 116.85,244.025 113.184,241.358 110.5,237.5C 116.923,224.319 123.59,211.319 130.5,198.5C 132.982,196.915 133.648,194.915 132.5,192.5C 132.232,190.901 132.566,189.568 133.5,188.5 Z"/></g>
<g><path style="opacity:1" fill="#0f1621" d="M 412.5,99.5 C 414.888,100.219 416.388,101.885 417,104.5C 416.83,110.705 415.997,116.872 414.5,123C 415.073,127.158 415.573,131.324 416,135.5C 420.153,154.109 423.986,172.776 427.5,191.5C 430.62,220.922 429.953,250.255 425.5,279.5C 423.018,292.099 420.851,304.765 419,317.5C 418.727,326.511 418.727,335.511 419,344.5C 418.623,345.942 417.79,346.942 416.5,347.5C 416.297,345.956 415.63,344.622 414.5,343.5C 415.552,341.89 415.552,340.223 414.5,338.5C 414.899,336.803 415.399,335.137 416,333.5C 416.333,336.167 416.667,338.833 417,341.5C 417.008,329.252 417.841,317.085 419.5,305C 418.494,303.662 417.494,302.329 416.5,301C 417.849,292.589 417.182,292.422 414.5,300.5C 415.326,301.451 415.492,302.451 415,303.5C 413.989,302.663 412.822,302.33 411.5,302.5C 411.5,301.167 411.5,299.833 411.5,298.5C 414.225,286.208 416.559,273.875 418.5,261.5C 420.05,251.55 420.717,241.383 420.5,231C 420.5,223.326 420.166,215.826 419.5,208.5C 418.608,197.755 417.108,187.089 415,176.5C 410.182,158.561 405.682,140.561 401.5,122.5C 400.448,122.351 399.448,122.517 398.5,123C 392.833,128.167 387.167,133.333 381.5,138.5C 380.104,139.852 379.437,141.519 379.5,143.5C 381.189,148.306 379.855,152.139 375.5,155C 370.868,159.072 365.535,160.405 359.5,159C 357.416,158.303 355.749,157.136 354.5,155.5C 354.953,154.542 355.619,153.708 356.5,153C 353.63,150.143 351.63,146.81 350.5,143C 351.667,141.833 352.833,140.667 354,139.5C 355.507,143.236 356.34,143.236 356.5,139.5C 357.167,139.5 357.5,139.167 357.5,138.5C 358.898,140.109 360.565,140.942 362.5,141C 367,137.167 371.5,133.333 376,129.5C 376.483,128.552 376.649,127.552 376.5,126.5C 389.341,118.435 401.341,109.435 412.5,99.5 Z"/></g>
<g><path style="opacity:1" fill="#182a38" d="M 199.5,173.5 C 200.376,173.369 201.043,173.702 201.5,174.5C 199.684,176.817 197.684,178.984 195.5,181C 195.833,181.333 196.167,181.667 196.5,182C 195.167,182 193.833,182 192.5,182C 194.555,184.055 196.888,185.721 199.5,187C 198.833,187.667 198.167,188.333 197.5,189C 199.301,189.317 199.634,189.984 198.5,191C 199.635,191.749 200.635,191.583 201.5,190.5C 200.289,189.28 200.289,188.113 201.5,187C 200.167,186 198.833,185 197.5,184C 200.672,183.849 202.839,185.349 204,188.5C 204.333,187.833 204.667,187.167 205,186.5C 206.545,187.821 207.711,187.488 208.5,185.5C 206.152,184.14 205.985,182.473 208,180.5C 209.892,179.87 211.559,178.87 213,177.5C 213.862,179.721 215.029,180.888 216.5,181C 216.354,182.727 215.687,182.894 214.5,181.5C 210.859,182.812 211.193,183.979 215.5,185C 213.915,185.085 212.582,185.251 211.5,185.5C 212.192,188.123 213.692,190.123 216,191.5C 216.875,189.487 218.209,189.487 220,191.5C 221.183,190.269 222.349,190.269 223.5,191.5C 222.271,192.281 220.938,192.781 219.5,193C 220.766,193.309 221.933,193.809 223,194.5C 224.741,193.242 226.574,192.242 228.5,191.5C 228.965,205.598 228.465,219.598 227,233.5C 226.667,232.167 226.333,230.833 226,229.5C 223.457,228.793 221.291,227.46 219.5,225.5C 216.71,226.197 214.043,227.197 211.5,228.5C 212,228.833 212.5,229.167 213,229.5C 217.385,226.515 221.218,227.015 224.5,231C 219.936,229.525 215.269,229.025 210.5,229.5C 209.833,228.833 209.167,228.167 208.5,227.5C 210.046,226.316 211.713,225.316 213.5,224.5C 212.687,223.186 211.687,222.019 210.5,221C 213.028,220.331 213.028,219.498 210.5,218.5C 209.646,219.522 208.646,220.355 207.5,221C 210.612,221.851 210.946,223.017 208.5,224.5C 206.426,223.006 204.26,221.673 202,220.5C 201.577,221.956 200.744,222.456 199.5,222C 200.833,221.333 200.833,220.667 199.5,220C 205.888,218.679 205.888,217.013 199.5,215C 201.901,214.195 201.734,213.362 199,212.5C 196.588,213.475 194.588,212.808 193,210.5C 192.802,212.382 192.302,214.048 191.5,215.5C 191.189,208.91 191.522,202.41 192.5,196C 190.611,192.164 189.945,187.997 190.5,183.5C 191.44,181.388 192.606,179.388 194,177.5C 194.333,177.833 194.667,178.167 195,178.5C 196.707,176.963 198.207,175.296 199.5,173.5 Z"/></g>
<g><path style="opacity:1" fill="#97b1c4" d="M 288.5,256.5 C 288.83,238.659 288.497,220.992 287.5,203.5C 287.987,202.527 288.487,201.527 289,200.5C 289.829,219.338 289.662,238.005 288.5,256.5 Z"/></g>
<g><path style="opacity:1" fill="#193956" d="M 280.5,172.5 C 280.5,173.167 280.5,173.833 280.5,174.5C 263.318,202.21 245.651,229.544 227.5,256.5C 226.508,263.982 226.175,271.648 226.5,279.5C 225.177,276.062 224.51,272.229 224.5,268C 224.538,261.793 225.038,255.626 226,249.5C 228.327,246.512 230.66,243.512 233,240.5C 233.333,240.833 233.667,241.167 234,241.5C 236.805,236.016 239.638,230.516 242.5,225C 251.175,216.482 257.009,206.315 260,194.5C 260.667,193.167 261.333,193.167 262,194.5C 264.011,190.676 266.177,187.009 268.5,183.5C 269.478,181.468 270.978,179.802 273,178.5C 273.49,177.207 273.657,175.873 273.5,174.5C 275.929,174.116 278.263,173.449 280.5,172.5 Z"/></g>
<g><path style="opacity:1" fill="#223e5d" d="M 287.5,203.5 C 288.497,220.992 288.83,238.659 288.5,256.5C 276.829,256.667 265.162,256.5 253.5,256C 264.269,238.078 275.602,220.578 287.5,203.5 Z"/></g>
<g><path style="opacity:1" fill="#031738" d="M 283.5,213.5 C 284.756,213.461 285.756,213.961 286.5,215C 286.428,228.042 286.428,241.208 286.5,254.5C 277.167,254.5 267.833,254.5 258.5,254.5C 258.755,251.984 259.589,249.65 261,247.5C 268.807,236.175 276.307,224.841 283.5,213.5 Z"/></g>
<g><path style="opacity:0.173" fill="#4c5565" d="M 427.5,191.5 C 429.927,203.902 430.927,216.569 430.5,229.5C 431.014,246.528 429.347,263.194 425.5,279.5C 429.953,250.255 430.62,220.922 427.5,191.5 Z"/></g>
<g><path style="opacity:1" fill="#9cb7ca" d="M 159.5,200.5 C 159.56,199.957 159.893,199.624 160.5,199.5C 161.5,234.494 161.833,269.494 161.5,304.5C 160.833,269.833 160.167,235.167 159.5,200.5 Z"/></g>
<g><path style="opacity:1" fill="#020716" d="M 280.5,223.5 C 281.5,223.5 282.5,223.5 283.5,223.5C 282.963,231.911 282.629,240.244 282.5,248.5C 277.29,250.088 271.957,250.755 266.5,250.5C 267.367,247.092 268.533,243.758 270,240.5C 275.338,235.913 278.838,230.246 280.5,223.5 Z"/></g>
<g><path style="opacity:0.02" fill="#87929f" d="M 419.5,208.5 C 420.166,215.826 420.5,223.326 420.5,231C 420.717,241.383 420.05,251.55 418.5,261.5C 419.363,243.849 419.697,226.182 419.5,208.5 Z"/></g>
<g><path style="opacity:1" fill="#052647" d="M 155.5,266.5 C 156.397,247.973 156.897,229.306 157,210.5C 156.521,208.354 155.188,207.354 153,207.5C 150.081,209.072 146.915,209.739 143.5,209.5C 146.387,207.917 149.387,206.417 152.5,205C 154.473,204.505 156.473,204.338 158.5,204.5C 158.667,225.836 158.5,247.169 158,268.5C 157.005,267.934 156.172,267.267 155.5,266.5 Z"/></g>
<g><path style="opacity:1" fill="#031631" d="M 319.5,184.5 C 318.337,205.663 318.171,226.996 319,248.5C 321.719,249.444 324.552,249.777 327.5,249.5C 326.547,251.61 324.881,252.777 322.5,253C 319.901,253.769 317.401,253.602 315,252.5C 314.123,228.81 314.456,205.144 316,181.5C 316.414,181.043 316.914,180.709 317.5,180.5C 318.362,181.766 319.029,183.099 319.5,184.5 Z"/></g>
<g><path style="opacity:1" fill="#254462" d="M 159.5,200.5 C 160.167,235.167 160.833,269.833 161.5,304.5C 169.5,304.5 177.5,304.5 185.5,304.5C 185.833,304.5 186.167,304.5 186.5,304.5C 186.414,305.496 186.748,306.329 187.5,307C 179.255,307.183 171.088,307.683 163,308.5C 162.667,307.833 162.333,307.167 162,306.5C 161.282,307.451 160.449,307.617 159.5,307C 158.517,298.585 158.183,290.085 158.5,281.5C 158.938,281.565 159.272,281.399 159.5,281C 158.307,279.905 156.973,279.072 155.5,278.5C 155.492,275.455 155.159,272.455 154.5,269.5C 154.567,268.041 154.234,266.708 153.5,265.5C 154.492,265.328 155.158,265.662 155.5,266.5C 156.172,267.267 157.005,267.934 158,268.5C 158.5,247.169 158.667,225.836 158.5,204.5C 156.473,204.338 154.473,204.505 152.5,205C 149.387,206.417 146.387,207.917 143.5,209.5C 142.167,209.5 140.833,209.5 139.5,209.5C 139.5,208.5 139.5,207.5 139.5,206.5C 146.167,204.5 152.833,202.5 159.5,200.5 Z"/></g>
<g><path style="opacity:0.247" fill="#8295a2" d="M 352.5,252.5 C 352.631,251.761 352.464,251.094 352,250.5C 350.663,251.765 349.163,252.265 347.5,252C 349.396,250.935 349.563,250.102 348,249.5C 345.485,250.115 343.152,251.115 341,252.5C 340.601,252.272 340.435,251.938 340.5,251.5C 344.24,248.537 348.407,247.537 353,248.5C 353.765,250.066 353.598,251.399 352.5,252.5 Z"/></g>
<g><path style="opacity:0.988" fill="#25405c" d="M 311.5,166.5 C 315.023,172.213 318.023,178.213 320.5,184.5C 320.167,184.5 319.833,184.5 319.5,184.5C 319.029,183.099 318.362,181.766 317.5,180.5C 316.914,180.709 316.414,181.043 316,181.5C 314.456,205.144 314.123,228.81 315,252.5C 317.401,253.602 319.901,253.769 322.5,253C 324.881,252.777 326.547,251.61 327.5,249.5C 327.833,249.5 328.167,249.5 328.5,249.5C 330.375,251.239 332.708,252.239 335.5,252.5C 337.135,251.954 338.801,251.62 340.5,251.5C 340.435,251.938 340.601,252.272 341,252.5C 343.152,251.115 345.485,250.115 348,249.5C 349.563,250.102 349.396,250.935 347.5,252C 349.163,252.265 350.663,251.765 352,250.5C 352.464,251.094 352.631,251.761 352.5,252.5C 350.668,256.836 348.335,260.836 345.5,264.5C 346.605,262.287 346.605,260.12 345.5,258C 346.715,255.904 347.549,256.071 348,258.5C 348.557,256.414 347.724,255.081 345.5,254.5C 342.139,256.511 338.806,258.511 335.5,260.5C 334.849,261.091 334.182,261.757 333.5,262.5C 332.833,267.985 332.167,273.319 331.5,278.5C 331.5,270.833 331.5,263.167 331.5,255.5C 325.5,255.5 319.5,255.5 313.5,255.5C 313.5,227.833 313.5,200.167 313.5,172.5C 302.5,172.5 291.5,172.5 280.5,172.5C 279.166,169.953 279.999,168.286 283,167.5C 287.253,167.269 291.586,167.602 296,168.5C 298.05,168.309 299.883,167.642 301.5,166.5C 302.623,167.544 303.956,168.21 305.5,168.5C 307.472,167.843 309.305,167.843 311,168.5C 311.464,167.906 311.631,167.239 311.5,166.5 Z"/></g>
<g><path style="opacity:0.504" fill="#2a3745" d="M 109.5,248.5 C 118.806,253.487 127.806,258.987 136.5,265C 141.47,267.368 146.636,269.201 152,270.5C 152.902,270.257 153.735,269.923 154.5,269.5C 155.159,272.455 155.492,275.455 155.5,278.5C 139.361,268.929 123.361,259.095 107.5,249C 108.094,248.536 108.761,248.369 109.5,248.5 Z"/></g>
<g><path style="opacity:1" fill="#afbdcb" d="M 109.5,248.5 C 108.761,248.369 108.094,248.536 107.5,249C 123.361,259.095 139.361,268.929 155.5,278.5C 156.973,279.072 158.307,279.905 159.5,281C 159.272,281.399 158.938,281.565 158.5,281.5C 157.167,280.833 155.833,280.167 154.5,279.5C 138.133,269.317 121.467,259.65 104.5,250.5C 105.591,247.808 107.257,247.142 109.5,248.5 Z"/></g>
<g><path style="opacity:0.968" fill="#0a1321" d="M 345.5,264.5 C 342.664,270.178 339.331,275.511 335.5,280.5C 335.968,274.103 335.968,267.436 335.5,260.5C 338.806,258.511 342.139,256.511 345.5,254.5C 347.724,255.081 348.557,256.414 348,258.5C 347.549,256.071 346.715,255.904 345.5,258C 346.605,260.12 346.605,262.287 345.5,264.5 Z"/></g>
<g><path style="opacity:1" fill="#081f40" d="M 190.5,183.5 C 189.945,187.997 190.611,192.164 192.5,196C 191.522,202.41 191.189,208.91 191.5,215.5C 190.473,239.665 190.473,263.665 191.5,287.5C 191.5,288.5 191.5,289.5 191.5,290.5C 191.5,292.833 191.5,295.167 191.5,297.5C 190.778,297.918 190.278,298.584 190,299.5C 188.513,298.747 188.346,297.914 189.5,297C 188.29,291.277 187.623,285.444 187.5,279.5C 187.77,247.157 188.77,215.157 190.5,183.5 Z"/></g>
<g><path style="opacity:0.997" fill="#131c27" d="M 48.5,152.5 C 38.1517,189.914 35.3184,227.914 40,266.5C 42.5164,280.582 45.3498,294.582 48.5,308.5C 47.3995,306.723 46.5662,304.723 46,302.5C 45.6948,304.557 45.6948,306.557 46,308.5C 44.5067,306.338 42.84,304.338 41,302.5C 40.1301,303.108 39.6301,303.941 39.5,305C 39.8919,306.011 40.5585,306.511 41.5,306.5C 40.1468,307.524 39.4802,308.857 39.5,310.5C 39.1667,310.5 38.8333,310.5 38.5,310.5C 26.6169,267.688 24.6169,224.354 32.5,180.5C 33.2679,179.737 33.7679,178.737 34,177.5C 34.3333,179.833 34.6667,182.167 35,184.5C 37.3397,175.741 39.6731,167.074 42,158.5C 43.8163,154.901 45.483,151.234 47,147.5C 48.2692,148.905 48.7692,150.571 48.5,152.5 Z"/></g>
<g><path style="opacity:1" fill="#708a9e" d="M 227.5,256.5 C 227.5,263.833 227.5,271.167 227.5,278.5C 248.007,278.17 268.34,278.503 288.5,279.5C 268.167,279.5 247.833,279.5 227.5,279.5C 227.167,279.5 226.833,279.5 226.5,279.5C 226.175,271.648 226.508,263.982 227.5,256.5 Z"/></g>
<g><path style="opacity:1" fill="#071f40" d="M 227.5,280.5 C 247.167,280.5 266.833,280.5 286.5,280.5C 286.664,283.187 286.497,285.854 286,288.5C 285.617,289.056 285.117,289.389 284.5,289.5C 283.659,287.621 283.325,285.621 283.5,283.5C 264.472,283.191 245.472,283.525 226.5,284.5C 223.937,284.263 223.937,283.763 226.5,283C 224.143,281.78 224.476,280.947 227.5,280.5 Z"/></g>
<g><path style="opacity:0.964" fill="#020715" d="M 334.5,281.5 C 329.238,289.033 324.238,296.699 319.5,304.5C 317.437,298.111 316.937,291.444 318,284.5C 323.43,283.27 328.93,282.27 334.5,281.5 Z"/></g>
<g><path style="opacity:0.378" fill="#95a8b5" d="M 104.5,291.5 C 103.265,291.721 102.265,292.388 101.5,293.5C 100.103,295.933 98.6033,298.266 97,300.5C 95.9614,299.756 95.4614,298.756 95.5,297.5C 96.0967,297.265 96.4301,296.765 96.5,296C 95.3475,293.791 93.6808,292.291 91.5,291.5C 89.7908,288.623 91.1242,287.123 95.5,287C 94.6667,286.833 93.8333,286.667 93,286.5C 90.097,287.702 87.2636,289.035 84.5,290.5C 88.9444,284.887 94.2777,284.054 100.5,288C 102.093,288.949 103.426,290.115 104.5,291.5 Z"/></g>
<g><path style="opacity:1" fill="#7e99af" d="M 313.5,255.5 C 319.5,255.5 325.5,255.5 331.5,255.5C 331.5,263.167 331.5,270.833 331.5,278.5C 325.69,279.49 319.69,279.823 313.5,279.5C 313.5,288.167 313.5,296.833 313.5,305.5C 304.983,305.826 296.65,305.493 288.5,304.5C 296.5,304.5 304.5,304.5 312.5,304.5C 312.5,295.833 312.5,287.167 312.5,278.5C 318.5,278.5 324.5,278.5 330.5,278.5C 330.5,271.167 330.5,263.833 330.5,256.5C 324.642,256.822 318.975,256.489 313.5,255.5 Z"/></g>
<g><path style="opacity:0.439" fill="#90a1b3" d="M 363.5,285.5 C 363.423,286.75 362.756,287.583 361.5,288C 362.167,288.333 362.833,288.667 363.5,289C 362.139,290.584 361.472,292.418 361.5,294.5C 360.312,295.364 359.145,296.364 358,297.5C 356.509,295.336 355.009,293.336 353.5,291.5C 355.873,287.977 359.207,285.977 363.5,285.5 Z"/></g>
<g><path style="opacity:1" fill="#465967" d="M 363.5,285.5 C 369.059,286.613 373.726,289.279 377.5,293.5C 375.766,292.438 374.099,292.438 372.5,293.5C 371.481,291.899 369.981,290.899 368,290.5C 365.607,291.563 363.441,292.897 361.5,294.5C 361.472,292.418 362.139,290.584 363.5,289C 362.833,288.667 362.167,288.333 361.5,288C 362.756,287.583 363.423,286.75 363.5,285.5 Z"/></g>
<g><path style="opacity:0.989" fill="#040b16" d="M 224.5,307.5 C 219.86,305.18 215.193,302.847 210.5,300.5C 209.893,300.624 209.56,300.957 209.5,301.5C 204.179,298.502 199.179,295.002 194.5,291C 193.552,290.517 192.552,290.351 191.5,290.5C 191.5,289.5 191.5,288.5 191.5,287.5C 191.333,271.497 191.5,255.497 192,239.5C 192.333,239.167 192.667,238.833 193,238.5C 194.067,239.191 195.234,239.691 196.5,240C 195.513,250.418 195.18,260.918 195.5,271.5C 197.59,271.45 198.923,272.45 199.5,274.5C 198.359,275.425 198.359,276.259 199.5,277C 198.376,277.249 197.376,277.749 196.5,278.5C 202.138,279.519 203.471,277.519 200.5,272.5C 201.274,271.289 202.107,271.289 203,272.5C 203.304,274.441 204.137,276.107 205.5,277.5C 204.624,278.251 203.624,278.751 202.5,279C 204.053,280.097 205.386,281.43 206.5,283C 202.814,284.199 203.147,284.533 207.5,284C 208.893,281.334 210.559,278.834 212.5,276.5C 210.861,275.084 210.027,273.417 210,271.5C 211.868,272.672 213.702,272.505 215.5,271C 213.463,267.009 213.296,262.842 215,258.5C 216.227,255.453 218.06,254.62 220.5,256C 218.657,261.75 218.324,267.584 219.5,273.5C 218.833,274.167 218.167,274.833 217.5,275.5C 218.981,276.48 220.315,277.647 221.5,279C 221.043,279.414 220.709,279.914 220.5,280.5C 223.119,285.656 227.119,287.156 232.5,285C 244.833,284.333 257.167,284.333 269.5,285C 267.353,287.237 265.02,289.237 262.5,291C 253.582,295.462 244.915,300.462 236.5,306C 232.688,308.399 228.688,308.899 224.5,307.5 Z"/></g>
<g><path style="opacity:1" fill="#12212f" d="M 91.5,291.5 C 93.6808,292.291 95.3475,293.791 96.5,296C 96.4301,296.765 96.0967,297.265 95.5,297.5C 95.2172,296.711 94.7172,296.044 94,295.5C 90.0434,298.56 86.3767,301.227 83,303.5C 82.3333,302.167 81.6667,302.167 81,303.5C 80.0087,301.553 79.6753,299.553 80,297.5C 83.7395,296.041 87.5728,294.041 91.5,291.5 Z"/></g>
<g><path style="opacity:1" fill="#0a1f42" d="M 335.5,260.5 C 335.968,267.436 335.968,274.103 335.5,280.5C 335.5,281.167 335.167,281.5 334.5,281.5C 328.93,282.27 323.43,283.27 318,284.5C 316.937,291.444 317.437,298.111 319.5,304.5C 319.5,304.833 319.5,305.167 319.5,305.5C 316.05,304.756 314.384,306.09 314.5,309.5C 305.494,309.666 296.494,309.5 287.5,309C 286.307,307.905 284.973,307.072 283.5,306.5C 283.646,302.044 283.646,297.378 283.5,292.5C 284.987,297.097 286.321,301.93 287.5,307C 294.833,307.667 302.167,307.667 309.5,307C 311.058,306.79 312.391,306.29 313.5,305.5C 313.5,296.833 313.5,288.167 313.5,279.5C 319.69,279.823 325.69,279.49 331.5,278.5C 332.167,273.319 332.833,267.985 333.5,262.5C 334.182,261.757 334.849,261.091 335.5,260.5 Z"/></g>
<g><path style="opacity:1" fill="#212c3d" d="M 372.5,293.5 C 373.463,294.363 373.463,295.03 372.5,295.5C 370.16,295.486 367.826,295.486 365.5,295.5C 366.167,296.167 366.833,296.833 367.5,297.5C 366.726,298.711 365.893,298.711 365,297.5C 364.383,298.449 364.549,299.282 365.5,300C 363.236,300.236 361.069,300.736 359,301.5C 357.315,299.012 355.981,299.345 355,302.5C 354.365,298.898 353.032,298.232 351,300.5C 350.667,300.167 350.333,299.833 350,299.5C 347.554,302.597 347.054,305.931 348.5,309.5C 347.883,309.389 347.383,309.056 347,308.5C 346.39,301.728 348.556,296.062 353.5,291.5C 355.009,293.336 356.509,295.336 358,297.5C 359.145,296.364 360.312,295.364 361.5,294.5C 363.441,292.897 365.607,291.563 368,290.5C 369.981,290.899 371.481,291.899 372.5,293.5 Z"/></g>
<g><path style="opacity:0.997" fill="#030612" d="M 283.5,306.5 C 284.973,307.072 286.307,307.905 287.5,309C 296.494,309.5 305.494,309.666 314.5,309.5C 314.384,306.09 316.05,304.756 319.5,305.5C 307.966,328.9 296.133,352.233 284,375.5C 275.598,389.967 266.931,404.3 258,418.5C 256.659,421.022 255.826,423.689 255.5,426.5C 262.423,424.038 269.09,421.038 275.5,417.5C 276.552,417.351 277.552,417.517 278.5,418C 272.5,421.333 266.5,424.667 260.5,428C 262.695,428.409 264.695,427.909 266.5,426.5C 266.735,427.097 267.235,427.43 268,427.5C 269.393,426.385 270.893,425.885 272.5,426C 271.655,427.558 272.321,428.558 274.5,429C 273.748,429.671 273.414,430.504 273.5,431.5C 261.367,437.733 249.367,444.233 237.5,451C 232.987,453.754 228.32,454.087 223.5,452C 215.501,448.292 207.834,444.125 200.5,439.5C 200.047,438.542 199.381,437.708 198.5,437C 200.344,435.818 202.177,434.651 204,433.5C 206.118,434.196 208.284,434.363 210.5,434C 212.305,434.972 213.972,436.139 215.5,437.5C 216.604,436.369 216.271,435.535 214.5,435C 215.06,431.877 216.06,428.877 217.5,426C 217.18,424.347 216.18,423.347 214.5,423C 214.957,422.586 215.291,422.086 215.5,421.5C 214.271,420.719 212.938,420.219 211.5,420C 214.167,419.333 216.833,418.667 219.5,418C 217.999,416.748 216.332,415.748 214.5,415C 216.441,414.257 218.274,414.424 220,415.5C 220.84,412.682 220.006,410.516 217.5,409C 218.894,408.044 219.561,406.711 219.5,405C 218.317,403.948 217.817,402.448 218,400.5C 220.892,401.842 222.225,404.175 222,407.5C 222.202,405.744 222.702,404.078 223.5,402.5C 224.284,405.049 225.451,407.382 227,409.5C 227.168,420.848 227.668,432.181 228.5,443.5C 228.872,407.867 229.705,372.2 231,336.5C 236.388,337.14 241.554,338.64 246.5,341C 244.167,341.333 241.833,341.667 239.5,342C 239.043,342.414 238.709,342.914 238.5,343.5C 246.5,344.833 246.5,346.167 238.5,347.5C 241.339,349.229 244.339,350.063 247.5,350C 249.919,347.469 252.252,344.969 254.5,342.5C 255.747,340.994 255.747,339.494 254.5,338C 256.049,336.786 257.215,335.286 258,333.5C 262.759,336.243 264.592,334.91 263.5,329.5C 264.808,326.27 265.808,322.936 266.5,319.5C 269.161,318.668 271.828,317.834 274.5,317C 270.534,315.388 270.534,313.721 274.5,312C 271.823,311.751 269.49,310.751 267.5,309C 268.416,308.626 269.25,308.126 270,307.5C 271.789,310.179 272.955,310.013 273.5,307C 272.715,305.049 271.715,303.215 270.5,301.5C 270.833,301.167 271.167,300.833 271.5,300.5C 273.909,303.775 276.576,304.442 279.5,302.5C 280.696,302.846 280.696,303.346 279.5,304C 280.736,305.085 282.069,305.918 283.5,306.5 Z"/></g>
<g><path style="opacity:1" fill="#1d3a5b" d="M 227.5,280.5 C 227.5,280.167 227.5,279.833 227.5,279.5C 247.833,279.5 268.167,279.5 288.5,279.5C 288.5,287.833 288.5,296.167 288.5,304.5C 296.65,305.493 304.983,305.826 313.5,305.5C 312.391,306.29 311.058,306.79 309.5,307C 302.167,307.667 294.833,307.667 287.5,307C 286.321,301.93 284.987,297.097 283.5,292.5C 282.167,292.833 280.833,293.167 279.5,293.5C 280.984,291.926 282.651,290.593 284.5,289.5C 285.117,289.389 285.617,289.056 286,288.5C 286.497,285.854 286.664,283.187 286.5,280.5C 266.833,280.5 247.167,280.5 227.5,280.5 Z"/></g>
<g><path style="opacity:1" fill="#232c37" d="M 279.5,293.5 C 271.012,299.582 262.012,304.915 252.5,309.5C 245.162,312.497 238.495,316.497 232.5,321.5C 231.417,321.539 230.417,321.873 229.5,322.5C 218.466,316.443 207.466,310.443 196.5,304.5C 195.833,303.5 195.167,302.5 194.5,301.5C 200.565,304.159 206.898,304.992 213.5,304C 212.307,302.905 210.973,302.072 209.5,301.5C 209.56,300.957 209.893,300.624 210.5,300.5C 215.193,302.847 219.86,305.18 224.5,307.5C 224.611,308.117 224.944,308.617 225.5,309C 231.311,309.938 236.645,308.771 241.5,305.5C 242.517,308.028 243.684,308.028 245,305.5C 245.656,309.002 246.989,309.002 249,305.5C 249.674,306.578 250.674,307.245 252,307.5C 254.241,307.32 254.741,306.487 253.5,305C 254.819,303.372 256.152,303.539 257.5,305.5C 260.039,303.8 262.705,302.3 265.5,301C 266.791,298.91 266.124,297.576 263.5,297C 265.441,295.097 267.774,294.264 270.5,294.5C 270.351,293.448 270.517,292.448 271,291.5C 271.667,292.833 272.333,292.833 273,291.5C 273.219,292.938 273.719,294.271 274.5,295.5C 276.075,294.544 277.742,293.877 279.5,293.5 Z"/></g>
<g><path style="opacity:1" fill="#354250" d="M 377.5,293.5 C 379.022,294.191 380.022,295.358 380.5,297C 379.578,299.505 379.078,302.005 379,304.5C 386.754,313.092 395.254,320.758 404.5,327.5C 406.949,317.771 409.282,308.104 411.5,298.5C 411.5,299.833 411.5,301.167 411.5,302.5C 411.982,303.416 412.315,304.416 412.5,305.5C 411.506,307.83 410.506,310.163 409.5,312.5C 408.735,318.826 407.402,324.992 405.5,331C 408.009,332.421 410.343,334.088 412.5,336C 412,336.167 411.5,336.333 411,336.5C 407.6,334.214 404.1,332.048 400.5,330C 399.167,329 399.167,328 400.5,327C 399.24,325.887 398.073,325.72 397,326.5C 390.7,321.275 384.533,315.942 378.5,310.5C 377.675,309.614 376.675,309.281 375.5,309.5C 375.649,308.448 375.483,307.448 375,306.5C 374.346,307.696 373.846,307.696 373.5,306.5C 374.289,304.512 375.455,304.179 377,305.5C 377.821,302.446 377.655,299.446 376.5,296.5C 375.676,298.748 374.676,298.914 373.5,297C 374.469,295.242 375.636,294.742 377,295.5C 377.464,294.906 377.631,294.239 377.5,293.5 Z"/></g>
<g><path style="opacity:1" fill="#041936" d="M 154.5,279.5 C 155.833,280.167 157.167,280.833 158.5,281.5C 158.183,290.085 158.517,298.585 159.5,307C 160.449,307.617 161.282,307.451 162,306.5C 162.333,307.167 162.667,307.833 163,308.5C 171.088,307.683 179.255,307.183 187.5,307C 186.748,306.329 186.414,305.496 186.5,304.5C 187.302,303.048 187.802,301.382 188,299.5C 189.145,300.636 190.312,301.636 191.5,302.5C 190.665,303.036 190.665,303.869 191.5,305C 190.494,306.338 189.494,307.671 188.5,309C 178.299,309.797 168.132,309.631 158,308.5C 156.051,307.042 155.218,305.042 155.5,302.5C 157.108,294.696 156.774,287.029 154.5,279.5 Z"/></g>
<g><path style="opacity:0.071" fill="#6d7a85" d="M 38.5,310.5 C 38.8333,310.5 39.1667,310.5 39.5,310.5C 39.7402,321.531 39.4069,332.531 38.5,343.5C 38.3666,332.701 38.3666,321.701 38.5,310.5 Z"/></g>
<g><path style="opacity:0.993" fill="#060c17" d="M 104.5,291.5 C 115.199,306.265 111.533,314.765 93.5,317C 81.5849,322.54 70.7516,329.707 61,338.5C 60.3333,339.5 60.3333,340.5 61,341.5C 64.5013,343.488 67.668,345.822 70.5,348.5C 65.6551,347.767 60.9884,345.767 56.5,342.5C 55.3279,342.919 54.3279,343.585 53.5,344.5C 60.5233,346.512 67.19,349.345 73.5,353C 91.5533,366.72 109.887,380.053 128.5,393C 148.658,403.245 168.658,413.745 188.5,424.5C 188.833,423.833 189.167,423.167 189.5,422.5C 195.109,425.473 200.776,428.14 206.5,430.5C 208.704,431.946 211.037,432.78 213.5,433C 204.732,417.239 195.565,401.739 186,386.5C 177.329,369.154 168.163,352.154 158.5,335.5C 161.205,335.62 161.872,334.62 160.5,332.5C 160.808,331.692 161.308,331.025 162,330.5C 162.219,331.938 162.719,333.271 163.5,334.5C 164.91,332.051 164.576,329.884 162.5,328C 164.087,327.138 165.754,326.471 167.5,326C 165.46,324.231 163.96,322.065 163,319.5C 162.586,319.957 162.086,320.291 161.5,320.5C 158.372,318.441 155.205,316.441 152,314.5C 151.578,311.24 150.078,308.574 147.5,306.5C 147.833,306.167 148.167,305.833 148.5,305.5C 150.001,306.752 151.668,307.752 153.5,308.5C 155.146,311.81 157.48,314.477 160.5,316.5C 162.413,315.627 164.247,314.627 166,313.5C 168.68,314.67 171.347,315.67 174,316.5C 175.731,314.383 177.898,312.883 180.5,312C 185.069,312.018 189.403,311.185 193.5,309.5C 195.545,311.475 197.212,311.475 198.5,309.5C 199.357,310.736 200.023,312.069 200.5,313.5C 199.934,314.291 199.101,314.291 198,313.5C 196.287,314.137 196.121,315.137 197.5,316.5C 196.675,317.386 195.675,317.719 194.5,317.5C 194.5,319.167 194.5,320.833 194.5,322.5C 193.5,322.5 192.5,322.5 191.5,322.5C 192.386,324.722 192.386,326.888 191.5,329C 193.086,331.181 195.086,332.848 197.5,334C 197.167,335 196.833,336 196.5,337C 198.108,337.658 199.275,337.158 200,335.5C 202.277,336.704 202.777,338.37 201.5,340.5C 199.995,337.869 199.329,338.203 199.5,341.5C 195.98,341.195 192.647,340.362 189.5,339C 191.167,338.667 192.833,338.333 194.5,338C 193.5,337.833 192.5,337.667 191.5,337.5C 188.581,338.64 185.581,339.473 182.5,340C 185.409,341.752 188.409,342.252 191.5,341.5C 197.203,341.856 202.536,343.356 207.5,346C 206.603,348.127 205.269,348.627 203.5,347.5C 203.709,346.914 204.043,346.414 204.5,346C 203.207,345.51 201.873,345.343 200.5,345.5C 199.766,347.984 198.266,349.984 196,351.5C 195.05,350.978 194.216,350.311 193.5,349.5C 192.747,352.035 193.08,354.535 194.5,357C 197.5,356.187 200.5,356.353 203.5,357.5C 203.5,356.5 203.5,355.5 203.5,354.5C 204.675,354.719 205.675,354.386 206.5,353.5C 205.68,351.889 204.346,351.222 202.5,351.5C 202.5,352.5 202.5,353.5 202.5,354.5C 200.94,354.519 199.44,354.852 198,355.5C 196.274,354.352 196.441,353.185 198.5,352C 200.838,349.581 203.505,349.081 206.5,350.5C 207.478,350.023 208.311,349.357 209,348.5C 211.756,349.794 214.256,351.46 216.5,353.5C 217.328,352.585 218.328,351.919 219.5,351.5C 221.457,352.954 223.29,354.62 225,356.5C 225.333,354.167 225.667,351.833 226,349.5C 227.272,365.447 227.939,381.447 228,397.5C 228.208,374.82 228.708,352.153 229.5,329.5C 229.408,327.742 229.075,326.076 228.5,324.5C 230.23,323.974 231.564,322.974 232.5,321.5C 239.506,318 246.173,314 252.5,309.5C 262.012,304.915 271.012,299.582 279.5,293.5C 280.833,293.167 282.167,292.833 283.5,292.5C 283.646,297.378 283.646,302.044 283.5,306.5C 282.069,305.918 280.736,305.085 279.5,304C 280.696,303.346 280.696,302.846 279.5,302.5C 276.576,304.442 273.909,303.775 271.5,300.5C 271.167,300.833 270.833,301.167 270.5,301.5C 271.715,303.215 272.715,305.049 273.5,307C 272.955,310.013 271.789,310.179 270,307.5C 269.25,308.126 268.416,308.626 267.5,309C 269.49,310.751 271.823,311.751 274.5,312C 270.534,313.721 270.534,315.388 274.5,317C 271.828,317.834 269.161,318.668 266.5,319.5C 265.808,322.936 264.808,326.27 263.5,329.5C 264.592,334.91 262.759,336.243 258,333.5C 257.215,335.286 256.049,336.786 254.5,338C 255.747,339.494 255.747,340.994 254.5,342.5C 252.252,344.969 249.919,347.469 247.5,350C 244.339,350.063 241.339,349.229 238.5,347.5C 246.5,346.167 246.5,344.833 238.5,343.5C 238.709,342.914 239.043,342.414 239.5,342C 241.833,341.667 244.167,341.333 246.5,341C 241.554,338.64 236.388,337.14 231,336.5C 229.705,372.2 228.872,407.867 228.5,443.5C 227.668,432.181 227.168,420.848 227,409.5C 225.451,407.382 224.284,405.049 223.5,402.5C 222.702,404.078 222.202,405.744 222,407.5C 222.225,404.175 220.892,401.842 218,400.5C 217.817,402.448 218.317,403.948 219.5,405C 219.561,406.711 218.894,408.044 217.5,409C 220.006,410.516 220.84,412.682 220,415.5C 218.274,414.424 216.441,414.257 214.5,415C 216.332,415.748 217.999,416.748 219.5,418C 216.833,418.667 214.167,419.333 211.5,420C 212.938,420.219 214.271,420.719 215.5,421.5C 215.291,422.086 214.957,422.586 214.5,423C 216.18,423.347 217.18,424.347 217.5,426C 216.06,428.877 215.06,431.877 214.5,435C 216.271,435.535 216.604,436.369 215.5,437.5C 213.972,436.139 212.305,434.972 210.5,434C 208.284,434.363 206.118,434.196 204,433.5C 202.177,434.651 200.344,435.818 198.5,437C 199.381,437.708 200.047,438.542 200.5,439.5C 174.846,427.506 149.513,414.673 124.5,401C 105.324,387.578 86.3235,373.912 67.5,360C 59.2704,355.216 50.6038,351.55 41.5,349C 40.2423,347.259 39.2423,345.426 38.5,343.5C 39.4069,332.531 39.7402,321.531 39.5,310.5C 39.4802,308.857 40.1468,307.524 41.5,306.5C 40.5585,306.511 39.8919,306.011 39.5,305C 39.6301,303.941 40.1301,303.108 41,302.5C 42.84,304.338 44.5067,306.338 46,308.5C 45.6948,306.557 45.6948,304.557 46,302.5C 46.5662,304.723 47.3995,306.723 48.5,308.5C 48.5,308.833 48.5,309.167 48.5,309.5C 48.8506,317.252 49.8506,324.919 51.5,332.5C 49.0582,332.881 48.3915,332.214 49.5,330.5C 45.567,329.605 44.067,331.272 45,335.5C 46.0495,336.517 47.2161,336.684 48.5,336C 54.1667,331.667 59.8333,327.333 65.5,323C 74.1146,315.056 82.7813,307.056 91.5,299C 92.745,298.209 94.0783,297.709 95.5,297.5C 95.4614,298.756 95.9614,299.756 97,300.5C 98.6033,298.266 100.103,295.933 101.5,293.5C 102.265,292.388 103.265,291.721 104.5,291.5 Z"/></g>
<g><path style="opacity:1" fill="#bfcad3" d="M 196.5,304.5 C 207.466,310.443 218.466,316.443 229.5,322.5C 230.417,321.873 231.417,321.539 232.5,321.5C 231.564,322.974 230.23,323.974 228.5,324.5C 217.567,318.229 206.901,311.562 196.5,304.5 Z"/></g>
<g><path style="opacity:1" fill="#b0b8c3" d="M 252.5,309.5 C 246.173,314 239.506,318 232.5,321.5C 238.495,316.497 245.162,312.497 252.5,309.5 Z"/></g>
<g><path style="opacity:0.835" fill="#4f5d6b" d="M 91.5,291.5 C 87.5728,294.041 83.7395,296.041 80,297.5C 79.6753,299.553 80.0087,301.553 81,303.5C 81.6667,302.167 82.3333,302.167 83,303.5C 86.3767,301.227 90.0434,298.56 94,295.5C 94.7172,296.044 95.2172,296.711 95.5,297.5C 94.0783,297.709 92.745,298.209 91.5,299C 82.7813,307.056 74.1146,315.056 65.5,323C 59.8333,327.333 54.1667,331.667 48.5,336C 47.2161,336.684 46.0495,336.517 45,335.5C 44.067,331.272 45.567,329.605 49.5,330.5C 48.3915,332.214 49.0582,332.881 51.5,332.5C 49.8506,324.919 48.8506,317.252 48.5,309.5C 49.7804,315.825 51.2804,322.158 53,328.5C 62.981,321.019 71.8143,312.353 79.5,302.5C 77.0305,296.645 78.6972,292.645 84.5,290.5C 87.2636,289.035 90.097,287.702 93,286.5C 93.8333,286.667 94.6667,286.833 95.5,287C 91.1242,287.123 89.7908,288.623 91.5,291.5 Z"/></g>
<g><path style="opacity:1" fill="#0a131e" d="M 104.5,250.5 C 121.467,259.65 138.133,269.317 154.5,279.5C 156.774,287.029 157.108,294.696 155.5,302.5C 155.218,305.042 156.051,307.042 158,308.5C 168.132,309.631 178.299,309.797 188.5,309C 189.494,307.671 190.494,306.338 191.5,305C 190.665,303.869 190.665,303.036 191.5,302.5C 193.05,303.441 194.716,304.107 196.5,304.5C 206.901,311.562 217.567,318.229 228.5,324.5C 229.075,326.076 229.408,327.742 229.5,329.5C 228.708,352.153 228.208,374.82 228,397.5C 227.939,381.447 227.272,365.447 226,349.5C 225.667,351.833 225.333,354.167 225,356.5C 223.29,354.62 221.457,352.954 219.5,351.5C 218.328,351.919 217.328,352.585 216.5,353.5C 214.256,351.46 211.756,349.794 209,348.5C 208.311,349.357 207.478,350.023 206.5,350.5C 203.505,349.081 200.838,349.581 198.5,352C 196.441,353.185 196.274,354.352 198,355.5C 199.44,354.852 200.94,354.519 202.5,354.5C 202.5,353.5 202.5,352.5 202.5,351.5C 204.346,351.222 205.68,351.889 206.5,353.5C 205.675,354.386 204.675,354.719 203.5,354.5C 203.5,355.5 203.5,356.5 203.5,357.5C 200.5,356.353 197.5,356.187 194.5,357C 193.08,354.535 192.747,352.035 193.5,349.5C 194.216,350.311 195.05,350.978 196,351.5C 198.266,349.984 199.766,347.984 200.5,345.5C 201.873,345.343 203.207,345.51 204.5,346C 204.043,346.414 203.709,346.914 203.5,347.5C 205.269,348.627 206.603,348.127 207.5,346C 202.536,343.356 197.203,341.856 191.5,341.5C 188.409,342.252 185.409,341.752 182.5,340C 185.581,339.473 188.581,338.64 191.5,337.5C 192.5,337.667 193.5,337.833 194.5,338C 192.833,338.333 191.167,338.667 189.5,339C 192.647,340.362 195.98,341.195 199.5,341.5C 199.329,338.203 199.995,337.869 201.5,340.5C 202.777,338.37 202.277,336.704 200,335.5C 199.275,337.158 198.108,337.658 196.5,337C 196.833,336 197.167,335 197.5,334C 195.086,332.848 193.086,331.181 191.5,329C 192.386,326.888 192.386,324.722 191.5,322.5C 192.5,322.5 193.5,322.5 194.5,322.5C 194.5,320.833 194.5,319.167 194.5,317.5C 195.675,317.719 196.675,317.386 197.5,316.5C 196.121,315.137 196.287,314.137 198,313.5C 199.101,314.291 199.934,314.291 200.5,313.5C 200.023,312.069 199.357,310.736 198.5,309.5C 197.212,311.475 195.545,311.475 193.5,309.5C 189.403,311.185 185.069,312.018 180.5,312C 177.898,312.883 175.731,314.383 174,316.5C 171.347,315.67 168.68,314.67 166,313.5C 164.247,314.627 162.413,315.627 160.5,316.5C 157.48,314.477 155.146,311.81 153.5,308.5C 151.668,307.752 150.001,306.752 148.5,305.5C 148.167,305.833 147.833,306.167 147.5,306.5C 150.078,308.574 151.578,311.24 152,314.5C 155.205,316.441 158.372,318.441 161.5,320.5C 162.086,320.291 162.586,319.957 163,319.5C 163.96,322.065 165.46,324.231 167.5,326C 165.754,326.471 164.087,327.138 162.5,328C 164.576,329.884 164.91,332.051 163.5,334.5C 162.719,333.271 162.219,331.938 162,330.5C 161.308,331.025 160.808,331.692 160.5,332.5C 161.872,334.62 161.205,335.62 158.5,335.5C 143.222,312.381 127.722,289.381 112,266.5C 109.193,261.224 106.693,255.891 104.5,250.5 Z"/></g>
<g><path style="opacity:0.196" fill="#798594" d="M 266.5,426.5 C 264.695,427.909 262.695,428.409 260.5,428C 266.5,424.667 272.5,421.333 278.5,418C 277.552,417.517 276.552,417.351 275.5,417.5C 291.741,409.379 308.075,401.213 324.5,393C 340.062,382.773 355.062,371.773 369.5,360C 374.056,356.893 378.723,354.06 383.5,351.5C 388.757,349.538 393.757,347.038 398.5,344C 400.167,343.333 401.833,343.333 403.5,344C 396.379,347.061 389.379,350.394 382.5,354C 367.523,365.821 352.189,377.155 336.5,388C 313.297,401.101 289.964,413.934 266.5,426.5 Z"/></g>
<g><path style="opacity:1" fill="#0a0e1a" d="M 377.5,293.5 C 377.631,294.239 377.464,294.906 377,295.5C 375.636,294.742 374.469,295.242 373.5,297C 374.676,298.914 375.676,298.748 376.5,296.5C 377.655,299.446 377.821,302.446 377,305.5C 375.455,304.179 374.289,304.512 373.5,306.5C 373.846,307.696 374.346,307.696 375,306.5C 375.483,307.448 375.649,308.448 375.5,309.5C 376.675,309.281 377.675,309.614 378.5,310.5C 384.533,315.942 390.7,321.275 397,326.5C 398.073,325.72 399.24,325.887 400.5,327C 399.167,328 399.167,329 400.5,330C 404.1,332.048 407.6,334.214 411,336.5C 411.5,336.333 412,336.167 412.5,336C 410.343,334.088 408.009,332.421 405.5,331C 407.402,324.992 408.735,318.826 409.5,312.5C 410.506,310.163 411.506,307.83 412.5,305.5C 412.315,304.416 411.982,303.416 411.5,302.5C 412.822,302.33 413.989,302.663 415,303.5C 415.492,302.451 415.326,301.451 414.5,300.5C 417.182,292.422 417.849,292.589 416.5,301C 417.494,302.329 418.494,303.662 419.5,305C 417.841,317.085 417.008,329.252 417,341.5C 416.667,338.833 416.333,336.167 416,333.5C 415.399,335.137 414.899,336.803 414.5,338.5C 415.552,340.223 415.552,341.89 414.5,343.5C 415.63,344.622 416.297,345.956 416.5,347.5C 406.25,351.456 396.25,356.289 386.5,362C 368.39,376.109 349.723,389.443 330.5,402C 311.442,411.861 292.442,421.695 273.5,431.5C 273.414,430.504 273.748,429.671 274.5,429C 272.321,428.558 271.655,427.558 272.5,426C 270.893,425.885 269.393,426.385 268,427.5C 267.235,427.43 266.735,427.097 266.5,426.5C 289.964,413.934 313.297,401.101 336.5,388C 352.189,377.155 367.523,365.821 382.5,354C 389.379,350.394 396.379,347.061 403.5,344C 401.833,343.333 400.167,343.333 398.5,344C 393.757,347.038 388.757,349.538 383.5,351.5C 387.871,348.546 392.037,345.213 396,341.5C 396.667,340.5 396.667,339.5 396,338.5C 386.727,330.56 376.894,323.393 366.5,317C 361.24,317.072 356.24,316.072 351.5,314C 349.859,312.871 348.859,311.371 348.5,309.5C 347.054,305.931 347.554,302.597 350,299.5C 350.333,299.833 350.667,300.167 351,300.5C 353.032,298.232 354.365,298.898 355,302.5C 355.981,299.345 357.315,299.012 359,301.5C 361.069,300.736 363.236,300.236 365.5,300C 364.549,299.282 364.383,298.449 365,297.5C 365.893,298.711 366.726,298.711 367.5,297.5C 366.833,296.833 366.167,296.167 365.5,295.5C 367.826,295.486 370.16,295.486 372.5,295.5C 373.463,295.03 373.463,294.363 372.5,293.5C 374.099,292.438 375.766,292.438 377.5,293.5 Z"/></g>
<g><path style="opacity:1" fill="#b1bbc8" d="M 408.5,329.5 C 409.5,329.5 410.5,329.5 411.5,329.5C 410.754,333.31 409.754,333.31 408.5,329.5 Z"/></g>
<g><path style="opacity:0.867" fill="#6a7888" d="M 70.5,348.5 C 73.9396,350.055 77.2729,351.888 80.5,354C 95.9882,365.91 111.655,377.577 127.5,389C 150.095,401.464 173.095,413.131 196.5,424C 200.069,425.942 203.402,428.108 206.5,430.5C 200.776,428.14 195.109,425.473 189.5,422.5C 189.167,423.167 188.833,423.833 188.5,424.5C 168.658,413.745 148.658,403.245 128.5,393C 109.887,380.053 91.5533,366.72 73.5,353C 67.19,349.345 60.5233,346.512 53.5,344.5C 54.3279,343.585 55.3279,342.919 56.5,342.5C 60.9884,345.767 65.6551,347.767 70.5,348.5 Z"/></g>
</svg>
